<svg aria-hidden="true" style="position: absolute; width: 0; height: 0; overflow: hidden;" version="1.1" xmlns="http://www.w3.org/2000/svg" xmlns:xlink="http://www.w3.org/1999/xlink">
<defs>
<symbol id="feed" viewBox="0 0 22 22">
<path d="M6.849 0h-4.948c-1.050 0-1.901 0.851-1.901 1.901v16.105c0 1.050 0.851 1.901 1.901 1.901h4.948c1.050 0 1.901-0.851 1.901-1.901v-16.105c0-1.050-0.851-1.901-1.901-1.901zM1.901 1.122h4.948c0.43 0 0.779 0.349 0.779 0.779v16.105c0 0.43-0.349 0.779-0.779 0.779h-4.948c-0.43 0-0.779-0.349-0.779-0.779v-16.105c0-0.43 0.349-0.779 0.779-0.779z"></path>
<path d="M17.071 0h-4.948c-1.050 0-1.901 0.851-1.901 1.901v3.114c0 1.050 0.851 1.901 1.901 1.901h4.948c1.050 0 1.901-0.851 1.901-1.901v-3.114c0-1.050-0.851-1.901-1.901-1.901zM12.123 1.122h4.948c0.43 0 0.779 0.349 0.779 0.779v3.114c0 0.43-0.349 0.779-0.779 0.779h-4.948c-0.43 0-0.779-0.349-0.779-0.779v-3.114c0-0.43 0.349-0.779 0.779-0.779z"></path>
<path d="M17.44 8.241h-5.65c-0.866 0-1.567 0.704-1.567 1.571v8.446c0 0.868 0.702 1.571 1.567 1.571h5.65c0.866 0 1.567-0.704 1.567-1.571v-8.446c0-0.868-0.702-1.571-1.567-1.571zM11.798 9.176h5.634c0.354 0 0.641 0.288 0.641 0.643v8.433c0 0.355-0.287 0.643-0.641 0.643h-5.634c-0.354 0-0.641-0.288-0.641-0.643v-8.433c0-0.355 0.287-0.643 0.641-0.643z"></path>
</symbol>
<symbol id="cancel" viewBox="0 0 10 20">
<path d="M14.348 14.849c-0.469 0.469-1.229 0.469-1.697 0l-2.651-3.030-2.651 3.029c-0.469 0.469-1.229 0.469-1.697 0-0.469-0.469-0.469-1.229 0-1.697l2.758-3.15-2.759-3.152c-0.469-0.469-0.469-1.228 0-1.697s1.228-0.469 1.697 0l2.652 3.031 2.651-3.031c0.469-0.469 1.228-0.469 1.697 0s0.469 1.229 0 1.697l-2.758 3.152 2.758 3.15c0.469 0.469 0.469 1.229 0 1.698z"></path>
</symbol>
<symbol id="community" viewBox="0 0 24 24">
<path d="M16.173 7.283s3.182 4.068-0.258 8.8c0 0 3.796-3.076 3.194-6.505-0.453-2.581-2.585-4.111-2.55-6.010 0 0-4.276 5.047-1.63 9.523 0 0-0.757-3.591 1.247-5.807z"></path>
<path d="M24.85 16.222s-4.083 3.163-8.8-0.296c0 0 3.059 3.81 6.492 3.224 2.581-0.444 4.121-2.564 6.021-2.519 0 0-5.027-4.296-9.516-1.677 0 0 3.594-0.741 5.803 1.274z"></path>
<path d="M16.273 24.702s-3.384-3.899-0.191-8.801c0 0-3.634 3.259-2.858 6.667 0.584 2.553 2.791 3.972 2.853 5.871 0 0 4.012-5.259 1.145-9.594 0 0 0.939 3.556-0.95 5.864z"></path>
<path d="M7.167 16.178s3.899-3.387 8.801-0.191c0 0-3.259-3.634-6.667-2.858-2.547 0.584-3.969 2.791-5.865 2.853 0 0 5.259 4.012 9.594 1.145 0 0-3.548 0.939-5.864-0.95z"></path>
</symbol>
<symbol id="hashtag" viewBox="0 0 36 36">
<path d="M30.545 8.728h-4.419l1.459-5.441c0.208-0.775-0.252-1.574-1.028-1.782s-1.575 0.253-1.782 1.028l-1.66 6.195h-10.33l1.459-5.441c0.208-0.775-0.252-1.574-1.028-1.782-0.777-0.206-1.574 0.253-1.78 1.028l-1.661 6.195h-5.411c-0.803 0-1.454 0.65-1.454 1.454s0.651 1.455 1.454 1.455h4.63l-2.34 8.727h-5.199c-0.803 0-1.454 0.65-1.454 1.454s0.652 1.454 1.454 1.454h4.419l-1.459 5.441c-0.208 0.775 0.252 1.574 1.028 1.782 0.125 0.034 0.252 0.050 0.375 0.050 0.642 0 1.231-0.428 1.404-1.078l1.662-6.195h10.33l-1.459 5.441c-0.208 0.775 0.252 1.574 1.029 1.782 0.125 0.034 0.251 0.050 0.377 0.050 0.642 0 1.23-0.428 1.404-1.078l1.661-6.195h5.411c0.803 0 1.455-0.65 1.455-1.454s-0.652-1.454-1.455-1.454h-4.63l2.34-8.727h5.199c0.803 0 1.454-0.65 1.454-1.455s-0.651-1.454-1.454-1.454zM19.994 20.364h-10.33l2.34-8.727h10.33z"></path>
</symbol>
<symbol id="send" viewBox="0 0 33 33">
<path d="M30.094 13.146l-25.818-10.713c-1.088-0.451-2.316-0.253-3.207 0.518s-1.263 1.959-0.972 3.1l2.537 9.949-2.537 9.95c-0.291 1.141 0.081 2.329 0.972 3.1 0.892 0.772 2.121 0.968 3.207 0.518l25.818-10.713c1.175-0.488 1.906-1.581 1.906-2.854s-0.73-2.366-1.906-2.854zM29.376 17.122l-25.818 10.713c-0.434 0.18-0.905 0.104-1.261-0.204s-0.498-0.763-0.382-1.219l2.416-9.475h9.317c0.518 0 0.938-0.42 0.938-0.938s-0.42-0.938-0.938-0.938h-9.316l-2.416-9.475c-0.116-0.455 0.027-0.911 0.382-1.219s0.827-0.384 1.261-0.204l25.818 10.713c0.695 0.288 0.749 0.932 0.749 1.122s-0.054 0.834-0.749 1.122z"></path>
</symbol>
<symbol id="plus" viewBox="0 0 24 24">
<path d="M5 13h6v6c0 0.552 0.448 1 1 1s1-0.448 1-1v-6h6c0.552 0 1-0.448 1-1s-0.448-1-1-1h-6v-6c0-0.552-0.448-1-1-1s-1 0.448-1 1v6h-6c-0.552 0-1 0.448-1 1s0.448 1 1 1z"></path>
</symbol>
<symbol id="sun" viewBox="0 0 24 24">
<path d="M18 12c0-1.657-0.673-3.158-1.757-4.243s-2.586-1.757-4.243-1.757-3.158 0.673-4.243 1.757-1.757 2.586-1.757 4.243 0.673 3.158 1.757 4.243 2.586 1.757 4.243 1.757 3.158-0.673 4.243-1.757 1.757-2.586 1.757-4.243zM16 12c0 1.105-0.447 2.103-1.172 2.828s-1.723 1.172-2.828 1.172-2.103-0.447-2.828-1.172-1.172-1.723-1.172-2.828 0.447-2.103 1.172-2.828 1.723-1.172 2.828-1.172 2.103 0.447 2.828 1.172 1.172 1.723 1.172 2.828zM11 1v2c0 0.552 0.448 1 1 1s1-0.448 1-1v-2c0-0.552-0.448-1-1-1s-1 0.448-1 1zM11 21v2c0 0.552 0.448 1 1 1s1-0.448 1-1v-2c0-0.552-0.448-1-1-1s-1 0.448-1 1zM3.513 4.927l1.42 1.42c0.391 0.391 1.024 0.391 1.414 0s0.391-1.024 0-1.414l-1.42-1.42c-0.391-0.391-1.024-0.391-1.414 0s-0.391 1.024 0 1.414zM17.653 19.067l1.42 1.42c0.391 0.391 1.024 0.391 1.414 0s0.391-1.024 0-1.414l-1.42-1.42c-0.391-0.391-1.024-0.391-1.414 0s-0.391 1.024 0 1.414zM1 13h2c0.552 0 1-0.448 1-1s-0.448-1-1-1h-2c-0.552 0-1 0.448-1 1s0.448 1 1 1zM21 13h2c0.552 0 1-0.448 1-1s-0.448-1-1-1h-2c-0.552 0-1 0.448-1 1s0.448 1 1 1zM4.927 20.487l1.42-1.42c0.391-0.391 0.391-1.024 0-1.414s-1.024-0.391-1.414 0l-1.42 1.42c-0.391 0.391-0.391 1.024 0 1.414s1.024 0.391 1.414 0zM19.067 6.347l1.42-1.42c0.391-0.391 0.391-1.024 0-1.414s-1.024-0.391-1.414 0l-1.42 1.42c-0.391 0.391-0.391 1.024 0 1.414s1.024 0.391 1.414 0z"></path>
</symbol>
<symbol id="moon" viewBox="0 0 24 24">
<path d="M21.996 12.882c0.022-0.233-0.038-0.476-0.188-0.681-0.325-0.446-0.951-0.544-1.397-0.219-0.95 0.693-2.060 1.086-3.188 1.162-1.368 0.092-2.765-0.283-3.95-1.158-1.333-0.985-2.139-2.415-2.367-3.935s0.124-3.124 1.109-4.456c0.142-0.191 0.216-0.435 0.191-0.691-0.053-0.55-0.542-0.952-1.092-0.898-2.258 0.22-4.314 1.18-5.895 2.651-1.736 1.615-2.902 3.847-3.137 6.386-0.254 2.749 0.631 5.343 2.266 7.311s4.022 3.313 6.772 3.567 5.343-0.631 7.311-2.266 3.313-4.022 3.567-6.772zM19.567 14.674c-0.49 1.363-1.335 2.543-2.416 3.441-1.576 1.309-3.648 2.016-5.848 1.813s-4.108-1.278-5.417-2.854-2.016-3.648-1.813-5.848c0.187-2.032 1.117-3.814 2.507-5.106 0.782-0.728 1.71-1.3 2.731-1.672-0.456 1.264-0.577 2.606-0.384 3.899 0.303 2.023 1.38 3.934 3.156 5.247 1.578 1.167 3.448 1.668 5.272 1.545 0.752-0.050 1.496-0.207 2.21-0.465z"></path>
</symbol>
<symbol id="add-user" viewBox="0 0 24 24">
<path d="M17 21v-2c0-1.38-0.561-2.632-1.464-3.536s-2.156-1.464-3.536-1.464h-7c-1.38 0-2.632 0.561-3.536 1.464s-1.464 2.156-1.464 3.536v2c0 0.552 0.448 1 1 1s1-0.448 1-1v-2c0-0.829 0.335-1.577 0.879-2.121s1.292-0.879 2.121-0.879h7c0.829 0 1.577 0.335 2.121 0.879s0.879 1.292 0.879 2.121v2c0 0.552 0.448 1 1 1s1-0.448 1-1zM13.5 7c0-1.38-0.561-2.632-1.464-3.536s-2.156-1.464-3.536-1.464-2.632 0.561-3.536 1.464-1.464 2.156-1.464 3.536 0.561 2.632 1.464 3.536 2.156 1.464 3.536 1.464 2.632-0.561 3.536-1.464 1.464-2.156 1.464-3.536zM11.5 7c0 0.829-0.335 1.577-0.879 2.121s-1.292 0.879-2.121 0.879-1.577-0.335-2.121-0.879-0.879-1.292-0.879-2.121 0.335-1.577 0.879-2.121 1.292-0.879 2.121-0.879 1.577 0.335 2.121 0.879 0.879 1.292 0.879 2.121zM23 10h-2v-2c0-0.552-0.448-1-1-1s-1 0.448-1 1v2h-2c-0.552 0-1 0.448-1 1s0.448 1 1 1h2v2c0 0.552 0.448 1 1 1s1-0.448 1-1v-2h2c0.552 0 1-0.448 1-1s-0.448-1-1-1z"></path>
</symbol>
</defs>
</svg>
