<?xml version="1.0" standalone="no"?>
<!DOCTYPE svg PUBLIC "-//W3C//DTD SVG 20010904//EN"
 "http://www.w3.org/TR/2001/REC-SVG-20010904/DTD/svg10.dtd">
<svg version="1.0" xmlns="http://www.w3.org/2000/svg"
 width="520.000000pt" height="520.000000pt" viewBox="0 0 520.000000 520.000000"
 preserveAspectRatio="xMidYMid meet">
<metadata>
Created by potrace 1.14, written by Peter Selinger 2001-2017
</metadata>
<g transform="translate(0.000000,520.000000) scale(0.100000,-0.100000)"
fill="#000000" stroke="none">
<path d="M0 2600 l0 -2600 2600 0 2600 0 0 2600 0 2600 -2600 0 -2600 0 0
-2600z m3043 1925 c346 -62 643 -239 777 -463 87 -147 129 -291 195 -660 54
-302 75 -390 155 -627 112 -335 150 -500 150 -658 0 -157 -52 -323 -148 -476
-134 -212 -320 -383 -659 -607 -425 -280 -666 -377 -943 -377 -299 -1 -458
101 -766 489 -64 82 -161 199 -214 259 -188 214 -298 363 -393 535 -43 78
-169 363 -157 355 4 -3 7 6 6 19 0 13 -4 22 -8 20 -4 -2 -10 0 -13 6 -4 6 -1
9 6 8 6 -2 14 3 17 11 3 9 0 11 -8 6 -10 -6 -12 -4 -7 8 3 10 3 17 -1 17 -5 0
-8 11 -8 24 0 14 4 22 8 20 4 -3 8 0 8 6 0 6 5 8 10 5 6 -3 10 -1 10 6 0 7 -8
9 -21 6 -16 -4 -19 -3 -11 5 8 8 8 17 0 32 -6 12 -7 18 -3 14 5 -4 14 -3 21 3
10 8 11 16 3 31 -6 11 -8 27 -5 35 4 9 1 22 -6 31 -11 12 -11 16 0 20 10 3 10
7 1 18 -9 11 -9 14 1 14 9 0 9 4 2 13 -5 6 -13 23 -17 36 -6 18 -4 22 6 15 11
-6 11 -4 0 10 -16 20 -23 58 -9 50 5 -4 7 -12 4 -20 -3 -7 -1 -16 3 -19 15 -9
22 27 15 83 -4 33 -2 52 3 49 5 -4 10 0 10 7 0 8 -8 11 -18 9 -20 -6 -34 13
-18 23 8 5 9 3 4 -7 -5 -8 -4 -11 0 -6 5 4 10 15 11 25 0 9 3 24 5 32 2 8 -1
14 -7 13 -6 -1 -11 5 -11 13 0 8 6 13 14 10 15 -6 18 10 3 19 -7 4 -7 12 0 25
7 13 7 21 0 25 -5 3 -10 11 -10 16 0 6 5 7 10 4 6 -3 10 -1 10 4 0 6 -5 11
-11 11 -6 0 -9 9 -6 20 3 11 0 20 -6 21 -8 0 -8 2 1 6 6 2 9 10 6 15 -4 6 -2
8 4 4 6 -3 13 -2 17 4 3 5 0 10 -8 10 -7 0 -14 6 -14 13 0 6 -4 21 -9 32 -6
17 -5 18 7 8 11 -9 14 -6 15 18 2 47 47 102 295 354 129 132 296 308 369 390
362 404 515 499 880 545 100 12 344 4 453 -15z m-2009 -1709 c2 -14 0 -23 -4
-21 -4 3 -7 16 -7 30 0 32 8 26 11 -9z"/>
<path d="M1040 2491 c0 -6 4 -13 10 -16 6 -3 7 1 4 9 -7 18 -14 21 -14 7z"/>
<path d="M1041 2421 c-8 -5 -9 -11 -3 -15 5 -3 12 1 16 9 6 17 6 18 -13 6z"/>
</g>
</svg>
