<svg version="1.2" xmlns="http://www.w3.org/2000/svg" viewBox="0 0 1024 1024">
	<title>image</title>
	<style>
		.s0 { opacity: .9;fill: currentColor } 
	</style>
	<path id="Path 0" fill-rule="evenodd" class="s0" d="m130.4 552.8c-0.6 0.4-1.3 1.4-1.6 2.2-0.3 0.8-0.2 6.9 0.3 13.5 0.5 6.6 1.8 20.1 2.9 30 1.2 9.9 2.5 19.4 2.9 21 0.8 2.8 0.6 3.1-2.8 4.4-2 0.8-5.7 3.6-8.4 6.3-2.6 2.6-5.7 6.9-6.9 9.6-1.5 3.4-2.1 6.7-2.2 12.2 0 6.1 0.5 8.4 2.6 12.5 1.4 2.8 4.4 6.6 6.6 8.5 2.2 1.9 5.1 4.4 6.4 5.5 1.9 1.6 3.3 5.6 7.2 21.5 2.7 10.7 5.2 20 5.7 20.5 0.4 0.6 1.1-1.2 1.5-4 0.3-2.7 1.9-11.7 3.5-20 1.6-8.2 3.2-15.3 3.7-15.6 0.4-0.4 2.3-1.2 4.2-1.8 1.9-0.6 5.7-2.6 8.5-4.6 2.7-1.9 6.1-5 7.5-6.9l2.5-3.5c10.1 27.6 12.5 36 12.5 38.4 0 2.2 0.5 7.2 1 11 0.6 3.9 1.8 9.2 2.8 11.8 0.9 2.7 3 6.4 4.7 8.2 1.7 1.8 4.3 3.6 6 4 1.7 0.4 4 0.3 5.2-0.4 1.3-0.6 3.1-2.4 4-4 1.8-2.7 1.8-2.2 1.8 18.8 0.1 15.4 0.6 25.1 1.8 33.6 1 6.6 3.2 19 4.8 27.5 1.7 8.5 5.5 25.9 8.4 38.5 3 12.7 6.3 25.8 7.5 29.3l2 6.2c-8.9 2.4-13.9 3.9-16.8 4.8-4 1.3-5.2 2.2-5.2 3.7 0 1.7 0.4 1.9 3.2 1.2 1.8-0.4 6.9-2.1 11.3-3.9 4.4-1.7 8.6-3.6 9.3-4.2 0.8-0.7 1.3-3.3 1.3-6.6-0.1-3 0.2-8.5 0.7-12.3l0.7-6.7h10.5c3.2 15.1 5.2 24 6.5 29.5 1.3 5.5 2.3 10.1 2.2 10.2-0.1 0.2-4.7 1-10.2 1.8-5.5 0.9-10.8 2.1-11.7 2.8-1.2 0.8-1.5 1.6-0.8 2.7 0.8 1.3 1.8 1.3 8.7-0.4 4.3-1 9.9-2.5 12.5-3.2l4.8-1.4v-42c21.7 0 28.2-0.3 28.4-0.7 0.2-0.5-6.1-0.7-14-0.5l-14.4 0.2-0.5-9c27.6 0 33.3-0.4 33-1-0.3-0.6-7-1-17-1h-16.5c-0.7-77.1-1.3-103.3-1.9-108-0.6-4.7-2-13-3.1-18.5-1.1-5.5-2-10.6-2-11.2 0-0.7 3.9 2.3 8.7 6.8 4.9 4.4 11.5 9.9 14.8 12 3.3 2.2 6.7 4 7.5 4 0.8 0 2.1-0.7 2.7-1.6 1.1-1.2 1-2.1-0.4-4.7-0.9-1.8-9.4-11.2-18.9-20.8l-17.2-17.5c-7.5 0.3-9.9 0-10.2-0.5-0.3-0.5-0.3-3.1 0-5.8 0.4-4.3 1.2-5.7 5.6-10.3 3.5-3.7 5.3-6.6 5.7-9.1 0.5-2.8 0.1-5-1.3-8.3-1.4-3.2-3.4-5.4-6.8-7.5-2.6-1.7-6.5-3.5-8.7-4.1-2.2-0.6-6-0.8-8.5-0.4-3.3 0.5-5.5 1.7-8.2 4.4-3.3 3.2-3.7 4.2-3.8 8.6 0 3.8 0.4 5.5 2 7 1.7 1.6 2 3.2 1.9 8-0.1 5.3 0.2 6.3 2.8 8.8 1.5 1.5 4.6 3.2 6.8 3.6 2.2 0.5 4.9 0.6 6 0.2 1.5-0.6 0.5-1-3.5-1.4-4.5-0.4-6-1-8.3-3.6-1.9-2.2-2.7-4.2-2.7-6.8 0-2.1 0.4-4.3 0.8-4.9 0.4-0.7 2.7-1.7 5.2-2.4 2.5-0.7 6.2-2.1 8.2-3.1 2.1-1 4.1-1.9 4.5-1.9 0.5 0 1.4 1.9 2.2 4.2 1.2 3.7 1.1 5.2-0.3 11.1-0.9 3.7-1.6 8.5-1.6 10.7v4c-8.9 0-14-0.4-17-1-3-0.6-6.2-0.8-7-0.5-0.8 0.2-4.5 6.6-8.3 14-3.7 7.4-7 13.5-7.5 13.5-0.4 0-1.5-1.5-2.6-3.3-1-1.7-3.5-6.1-5.5-9.7-1.9-3.6-6.6-14.6-10.2-24.5-6.1-16.3-6.6-18.2-5.4-20.5 0.7-1.4 1.8-5 2.4-8 0.9-4.4 0.9-6.5-0.3-10.5-0.8-2.7-2.9-7-4.8-9.4-1.8-2.4-5.6-5.7-8.3-7.2-2.8-1.5-7.7-3.2-11-3.7-3.6-0.6-8.6-0.6-12.5-0.1-3.6 0.5-6.6 0.8-6.7 0.6-0.1-0.1-0.9-6.9-1.8-15.2-0.8-8.2-2.2-22.9-2.9-32.5-0.7-9.6-1.2-18.1-1-18.7 0.2-0.7 2-1.3 3.9-1.3 2.8 0 3.6 0.4 4 2.3 0.2 1.2 1.1 12.3 2 24.7 0.9 12.4 1.8 23 2 23.5 0.2 0.6 0.4-1.2 0.4-4 0.1-2.7-0.4-14.2-1-25.5-0.7-11.8-1.7-21.1-2.3-21.8-0.6-0.7-2.7-1.3-4.6-1.2-1.9 0-4 0.4-4.6 0.8zm10.8 70.3c2.9-0.5 7.8-0.7 10.8-0.4 3 0.3 7.7 1.3 10.5 2.4 2.7 1 6.6 3.5 8.6 5.6 2 2.1 4.5 5.4 5.4 7.3 1 1.9 2 5.9 2.4 8.8 0.4 3.8 0.3 5.2-0.7 5.2-0.6 0-1.2-0.3-1.2-0.7 0-0.5-1.3-1.6-3-2.5-1.6-1-4.5-1.8-6.3-1.8-1.7 0-4.7 0.9-6.5 2-1.7 1.1-3.9 3.5-4.8 5.3-0.9 1.7-1.8 5.2-2.1 7.7-0.4 3.5 0.1 5.5 4.7 14l-2.3 1.2c-1.2 0.6-6 1.4-10.7 1.6-7.3 0.4-9.2 0.1-13.9-1.9-3.4-1.5-6.9-4.1-9.3-6.9-2.1-2.5-4.6-6.7-5.5-9.5-1-3.3-1.4-6.9-1.1-10.5 0.3-3 1.4-7.5 2.6-10 1.1-2.5 3.7-6.2 5.8-8.4 2.2-2.1 5.6-4.7 7.6-5.7 2.1-1.1 6.2-2.3 9-2.8zm21.8 27.1c2.6-1.7 4.3-2.2 6.5-1.7 1.6 0.3 4 1.6 5.3 2.8 1.2 1.2 2.2 3 2.2 4 0 0.9-0.2 1.7-0.5 1.7-0.3 0-1.6-1.1-3-2.5-1.5-1.5-3.6-2.5-5.3-2.5-1.5 0-3.4 0.6-4.2 1.3-0.9 0.7-2.4 2.3-3.3 3.7-0.9 1.4-1.7 4.2-1.7 6.3 0 2 0.8 5.3 1.7 7.2 1 2 1.5 3.8 1 4-0.4 0.3-1.1 0.3-1.7 0-0.6-0.3-1.7-2.1-2.5-4-0.8-1.9-1.5-5.2-1.5-7.2 0-2.1 0.8-5.4 1.8-7.3 0.9-1.9 3.3-4.5 5.2-5.8zm-28.6 32.2c-0.7-2.1-0.5-2.1 6.7-1.6 4.1 0.2 7.5 0.5 7.6 0.6 0.2 0-0.4 3.3-1.1 7.1-0.8 3.9-2 10.2-2.6 14-0.6 3.9-1.3 7.9-1.7 9-0.4 1.3-1.9-3.1-4.4-12.5-2.1-8-4.1-15.5-4.5-16.6zm106.7 147.4c0-11.7 0.2-20.8 0.4-20.3 0.2 0.5 2 9.5 4 20 1.9 10.5 3.5 19.6 3.5 20.3 0 0.7-1.5 1.2-8 1.2zm-0.1 22.8h4.5c2.5 0 4.5 0.4 4.5 1 0 0.5 0.3 2.4 1.5 7.5h-10.5v-4.3zm315.3-52.1c-0.2 0.3 0.5 2.5 1.5 4.9 1.2 3 1.7 6.9 1.7 13.7 0 8.1-0.4 10.3-2.5 15-1.4 3-3.9 7.2-5.5 9.4-1.7 2.1-5 5.3-7.5 7.1-2.5 1.9-7.7 5.2-11.7 7.4l-7.3 4.1c-1.5-3.9-3-5.7-4.2-6.5-1.3-0.8-4.3-1.5-6.8-1.5-2.7 0-5.9 0.9-8 2.1l-3.5 2.1c-5.4-3.7-8.8-5.1-11-5.5-2.2-0.3-5.8-0.2-8 0.3-2.2 0.6-5.1 1.8-6.5 2.7-1.3 1-2.9 3-3.5 4.4-0.8 2.3-1.4 2.5-4 2-1.6-0.4-5.2-1.8-7.9-3.2-2.7-1.3-6.7-4.4-8.8-6.9-2.2-2.5-4.2-5.7-4.6-7.3-0.4-1.5-1-2.7-1.4-2.7-0.4 0-0.5 1-0.2 2.3 0.4 1.2 1.7 4.1 3 6.5 1.4 2.5 4.4 5.4 7.2 7.2 2.6 1.7 6.1 3.5 7.7 4.1l3 1.2c-6.8 3.2-10.8 6-13.2 8.2-2.7 2.4-5.7 6.6-7.6 10.5-2.6 5.4-3.2 8-3.5 15-0.3 7.1 0 9.5 1.9 14.5 1.5 3.8 4.2 8 7.5 11.5 2.8 3 7.8 6.9 11 8.7 3.3 1.7 8.6 3.8 11.9 4.7 3.3 0.9 9.1 1.6 12.8 1.6 3.8 0 6.7-0.4 6.7-1 0-0.6-2.7-1-6.2-1-3.5 0-8.8-0.7-11.8-1.6-3-0.9-8.2-3-11.5-4.7-3.3-1.6-8.2-5.3-11-8.1-3.4-3.4-5.8-7.1-7.4-11.1-1.8-4.9-2.2-7.5-1.9-14 0.3-5.9 1-9.5 2.9-13.5 1.4-3 4.4-7.4 6.7-9.7 2.3-2.4 6.6-5.4 9.5-6.8 2.9-1.4 5.7-2.5 6.2-2.5 0.6 0 2 1.7 3.1 3.8 1.3 2.2 3.7 4.5 6 5.7 2.8 1.3 5.7 1.9 9.9 1.7 3.8-0.1 6.9-0.8 8.5-1.8 1.4-1 3-2.5 3.7-3.3 0.8-1.2 1.4-1.3 2.5-0.5 0.7 0.6 2.4 1.4 3.8 1.7 1.4 0.3 4.5 0.3 6.9-0.1 4-0.6 4.5-0.5 6.7 2.3 1.2 1.7 3.6 5.7 5.1 9 2.5 5.3 2.8 7.1 2.8 16 0 8.6-0.3 10.8-2.5 15.5-1.4 3-4.4 7.4-6.5 9.8-2.2 2.4-3.4 4.3-2.8 4.2 0.7 0 2.9-1.7 5-3.7 2-2.1 4.8-6.3 6.3-9.3 2.2-4.9 2.5-6.8 2.5-16.5 0-9.7-0.3-11.6-2.6-16.5-1.4-3-3.9-7.1-5.6-9l-3-3.5c4.9-5.6 9.4-8.7 13.7-10.7 4.5-2.2 10.2-6 14-9.5 4.7-4.3 7.5-7.9 9.9-12.9 2.8-5.5 3.6-8.4 3.9-14.4q0.4-7.5-1.1-13.5c-0.9-3.3-2.2-6.6-2.9-7.4-0.7-0.7-1.4-1.1-1.5-0.7zm33.9-277.8c-1.8 0.9-4.2 3-5.2 4.5-1.6 2.4-2.4 2.7-4.2 2q-2.3-0.9-5 0.5c-1.6 0.8-3.6 3.3-4.8 5.7-1 2.3-1.9 5.3-1.9 6.7 0 1.4 0.8 4.3 1.8 6.5 1 2.2 2.7 4.8 3.7 5.8 1.1 0.9 3.8 2.1 6.1 2.5 4.1 0.7 4.2 0.8 4.6 5.2 0.2 2.5 0.5 9.9 0.6 16.5l0.3 12-7.2-5.5c-3.1 5.4-6.6 8.7-9.7 10.9-3.2 2.1-8.4 5.2-11.5 7l-5.8 3.1c-0.4-6.4 0-7.4 1.5-8 1.1-0.4 3.1-2 4.3-3.6 1.3-1.6 2.8-4.5 3.4-6.4 0.6-1.9 0.8-4.8 0.5-6.5-0.3-1.6-1.6-4.3-2.9-5.9-1.3-1.6-3.7-3.5-5.5-4.3-1.9-0.7-4.5-1-6-0.6-1.5 0.3-3.7 1.2-4.8 1.9-1.1 0.6-2.8 2.8-3.7 4.8-1 2-1.8 5.4-1.8 7.6 0 2.2 0.8 5.6 1.8 7.7 0.9 2 2.6 4.2 3.7 5 1.1 0.7 3.3 1.3 4.8 1.3 2.5 0 2.7 0.3 2.7 4v4c-53.8 27.1-74.2 37.8-80 41.3-9.9 5.9-10.9 6.3-18.5 7-4.4 0.3-12 1.8-17 3.2-4.9 1.4-13 4.4-18 6.6-4.9 2.1-13.3 6.6-18.5 10-5.2 3.4-12.4 9.1-16 12.8-4.1 4.1-7.3 8.4-8.5 11.5l-2 4.8c-15.5-1-22.5-1.5-25.5-1.8-3.7-0.5-5.2-0.3-4.5 0.4 0.6 0.5 8.9 1.7 18.5 2.6 9.6 0.9 18.2 1.7 19 1.7 0.8 0.1-0.7 0.5-3.5 1-2.7 0.4-9.4 1.9-14.7 3.3-5.4 1.4-10.5 2.4-11.3 2.1-0.8-0.3-1.5-0.4-1.5-0.2 0 0.1 0.6 1.8 1.4 3.7 0.7 1.9 1.6 4.7 2 6.3l0.6 2.7c-11.3-0.8-12.8-0.7-11.5 0 1.1 0.5 4.2 1.1 6.8 1.4 4.5 0.6 4.8 0.8 5.7 4.4 0.5 2 1.4 6.2 2 9.2 0.6 3 1 5.6 0.8 5.8-0.1 0.1-4.2 0.7-9 1.2-4.8 0.6-12.2 2.1-16.3 3.5-4.1 1.4-7.6 2.5-7.7 2.5-0.2 0-0.6-2.2-1-5-0.4-2.7-1.2-5-1.8-5-0.5 0-0.8 0.8-0.5 1.8 0.2 0.9 0.6 3.3 0.9 5.2 0.5 3.3 0.3 3.7-5.2 7.3-5.2 3.4-5.9 3.6-8.4 2.5-1.5-0.7-2.8-2-2.8-2.8 0-0.8 0.8-7 1.8-13.8l1.7-12.4c4.7 1 7.3 1.2 8.8 1.2 2.5 0 2.7 0.3 2.5 3.7-0.2 2.2 0.2 3.8 1 4 0.9 0.2 1.1-0.7 0.7-3.4-0.3-2.1-0.9-7.2-1.4-11.3l-0.8-7.5-0.3 12.5c-5 0-7.5-0.2-8.7-0.5-1.8-0.4-2.3-1.2-2.4-4.2-0.1-3.2-0.2-3-0.9 1.7-0.5 3-0.6 5.8-0.4 6.3 0.2 0.4-0.9 0.7-2.6 0.7h-3c0.9-8.1 1.6-13.6 2.1-17.5 0.6-3.8 1.8-8.5 2.7-10.4 1-1.8 2.5-3.8 3.5-4.2 0.9-0.5 2.7-0.6 4-0.2 1.6 0.5 2 0.3 1.5-0.5-0.4-0.7-2.1-1.2-3.8-1.2-2.1 0-3.5 0.8-4.9 2.8-1 1.5-2.3 4.5-2.9 6.7-0.6 2.2-2.4 14.8-4.1 28-1.7 13.2-3.1 25.5-3.1 27.3 0 2.8 0.4 3.2 2.8 3.5 1.8 0.1 2.6 0.7 2.5 1.7-0.1 0.8-0.9 4-1.8 7-1.3 4.5-1.5 9.3-1.1 26.5 0.3 15.7 0.8 22.5 2.1 27 1 3.3 2.8 8.1 4.1 10.8 1.3 2.6 2.9 4.9 3.4 5.2 0.6 0.3 1 1.2 1 2 0 0.8-3.4 4.2-7.5 7.5-4.1 3.3-7.3 6.2-7 6.5 0.3 0.3 4.1-2 8.5-5 7.9-5.4 8.1-5.5 10.4-3.7 1.3 0.9 6.1 4.9 10.7 8.8 4.7 3.9 9.2 8.1 10.2 9.3 1.3 1.6 1.4 2.3 0.5 2.8-0.7 0.4-4.9 0.7-9.4 0.8-6.7 0-8.5 0.3-10.3 2-1.2 1.1-2.1 2.9-2.1 4 0 1.1 0.8 2.8 1.7 3.7 1 1 2.9 1.8 4.3 1.8 1.4 0 3.5-0.7 4.8-1.5 1.3-0.9 2.2-2.5 2.2-4 0-1.4-0.5-2.7-1.2-2.9-0.7-0.2 0.5-0.7 2.7-1.1 2.2-0.4 5.4-1 7-1.4 2.5-0.6 3.8-0.2 7.5 2.6 2.5 1.9 6.3 3.9 8.5 4.5 2.2 0.5 6.3 0.8 9 0.5 2.8-0.2 6.8-1.4 9-2.6 2.2-1.1 5.2-3.1 6.5-4.3 1.4-1.3 3.1-4.2 3.8-6.5 0.7-2.4 1-4.9 0.8-5.5-0.2-0.7-0.7-2.4-1-3.8-0.5-2.2 0.1-3 4.9-6.2 3-2.1 8.1-6.1 11.3-9 3.1-2.9 7.6-7.5 10-10.3 2.4-2.7 5.5-7.2 7-10 2.3-4.2 3.2-4.9 5.2-4.7 1.4 0.2 5.2 1.7 8.5 3.2 3.3 1.6 8 4.8 10.4 7.2 2.3 2.4 5.4 6.6 6.9 9.3 1.4 2.8 2.8 7.8 3.2 11.5 0.5 3.6 0.5 7.7 0.2 9.3-0.4 1.6-1.7 3.1-3.2 3.7-1.4 0.5-7.5 2.1-13.7 3.5-6.6 1.5-15.2 2.6-20.8 2.8-5.2 0.1-9.5 0.5-9.5 1 0 0.4 5.5 0.5 12.3 0.3 10-0.3 14.1-1 22.7-3.5 5.8-1.7 10.7-3 10.8-2.9 0.2 0.2-0.4 2-1.2 4.1-0.9 2-3.5 5.6-5.8 8-2.7 2.7-6.6 5.2-10.3 6.7-4.7 1.8-8.5 2.5-18 2.8-7.5 0.3-11 0.8-9.5 1.3 1.4 0.4 5.3 0.7 8.8 0.8 3.4 0.1 8.6-0.4 11.5-1 2.9-0.6 7.7-2.4 10.7-3.9 3-1.5 7.1-4.5 8.9-6.6 1.9-2.2 4.4-6 5.5-8.7 1.2-2.6 2.8-4.9 3.6-5.1 1.4-0.3 1.4-0.4 0-0.5-1.2-0.1-1.5-1.8-1.6-8.4 0-6.8-0.5-9.2-3-14.6-1.9-4.2-4.7-8-8.1-11.2-2.9-2.7-8.1-6.2-11.5-7.9-3.5-1.6-7.1-3-8-3q-1.8 0-1.3-1.7c0.2-1 0.9-3.8 1.5-6.3 0.5-2.5 1-8.3 1-13 0-4.7-0.6-11.1-1.5-14.2-0.8-3.2-2.7-8.2-4.1-11-1.5-2.9-4.8-7.3-7.3-9.8-2.5-2.5-7.7-6.1-11.6-8.1-3.8-2-9.7-4.1-13-4.8-3.3-0.7-7.9-1.7-10.2-2.2-2.4-0.5-5.7-0.9-7.5-0.9h-3.3c-2.8-14.3-4-19.1-4.3-19.9-0.6-1.2 0.4-1.4 5.1-1 3.1 0.2 5.7 0.1 5.7-0.3 0-0.5-2.3-0.8-5.2-0.8-4.9 0-5.3-0.1-6-2.7-0.3-1.6-1-3.7-1.5-4.7-0.7-1.8-0.5-1.9 4.2-1.2 2.8 0.4 6.5 1 8.3 1.4 2.6 0.5 3.2 1.1 2.8 2.5-0.3 0.9-0.1 1.7 0.4 1.7 0.6 0 1-1 1-2.2 0-2.2 0.2-2.3 5.8-1.6 3.1 0.4 7.4 0.3 9.5-0.2 2-0.6 4.2-1.9 4.7-3 0.6-1.1 1-2.7 1-3.5 0-0.8-1.3-2.8-3-4.5-2.6-2.6-3.7-3-8.5-3-3 0-5.5-0.2-5.5-0.5 0-0.3 0.9-2.4 2-4.7 1.1-2.4 3.7-6.3 5.7-8.7 2.1-2.5 7.2-7 11.3-10.1 4.1-3 12-7.8 17.5-10.7 5.5-2.8 13.2-6.2 17-7.6 3.9-1.3 10.4-3.2 14.5-4 4.1-0.9 9.3-1.8 11.5-2.1l4-0.5c-4.6 4-9.2 8.2-13.1 11.8-5.6 5.2-7.2 7.4-7.7 10.4l-0.7 3.7c4.3-2.3 6.1-3 6.8-3 0.7 0 1.4-0.7 1.7-1.5 0.3-0.8 0.5-2.6 0.5-4 0-1.4 0.2-3.1 0.5-3.7 0.2-0.7 3.4-3.9 7-7 6.2-5.5 6.8-5.8 11.8-5.8 2.9 0 7.7 0.7 10.7 1.5 3 0.8 8.7 3 12.5 4.9 4.3 2.1 9.4 5.7 13 9.3 3.3 3.2 7.8 8.5 10 11.8 2.1 3.3 4.9 8.6 6.2 11.8 1.8 4.3 2.3 7.3 2.1 12.5l-0.3 6.7c-7.7 0.5-9.5 0.9-8.8 1.3 0.6 0.4 5.1 0.4 10 0 4.8-0.3 13.1-1.4 18.3-2.2 5.2-0.9 14.7-2.8 21-4.2 6.3-1.4 14.8-3.9 18.8-5.5l7.2-2.9c0.9 6.6 2 15.3 3 23.5 1 8.3 1.7 15.1 1.7 15.2-0.1 0.1-2-0.3-4.2-0.9-2.2-0.6-7.1-0.8-11-0.6-4.8 0.4-8.7 1.4-12.5 3.2-3 1.5-6.3 3.5-7.3 4.4-1.1 0.9-3.2 4-4.8 6.7-1.8 3.1-2.9 6.5-2.9 9 0 2.6 0.6 4.6 1.7 5.7 1 1 3.1 1.8 4.6 1.8 1.5 0 4.9-1.1 7.5-2.4 2.6-1.3 10.2-5.8 17-10 6.7-4.2 12.4-7.5 12.7-7.3 0.2 0.1 1.6 10.1 3 22.2 1.4 12.1 2.7 23.2 3 24.8l0.5 2.7c-27.5 0-35.3 0.2-35 0.4 0.3 0.3 8.2 0.5 17.5 0.6l17 0.1c1.2 5 1.5 7 1.5 7.7 0 0.9-3.4 1.2-13.5 1.2-8.3 0-13.5 0.4-13.5 1 0 0.6 5.4 1 14 1h14c0.5 6.6 0.2 8.8-0.4 9.2-0.6 0.4-4.2 1.4-8.1 2.3-3.8 0.8-7.9 2.2-9 2.9-1.1 0.8-1.6 1.8-1.2 2.3 0.4 0.4 4.7-0.1 9.5-1.1 4.8-1.1 9.7-2.3 11-2.8 2-0.7 2.2-1.5 2.2-7v-6.3l12 0.5c0 12.7 0.2 13.1 2.8 14.1 1.5 0.5 4.7 1.5 7.2 2 3.1 0.8 10.1 0.7 22.5-0.1 9.9-0.6 19.5-1.3 21.3-1.5l3.2-0.5-0.5-14h35c1.1 5.8 1.1 7.8 0.7 8.1-0.4 0.4-6.4 2.2-13.5 4-7 1.9-12.7 3.7-12.7 4.2 0 0.4 0.9 0.7 2 0.7 1.1 0 7.8-0.9 14.8-2.1 7-1.1 13.1-2.3 13.5-2.5 0.4-0.2 0.7-2.4 0.7-4.9 0-2.5 0.2-5.2 0.5-6 0.4-1.3 3.6-1.5 20.3-1.5h19.7c4.3 8.6 4.5 9.7 3.4 10.3-0.8 0.4-4.9 2.8-9.1 5.2-5.6 3.2-7.7 5-7.5 6.3 0.1 0.9 1.1 1.8 2.2 2 1.1 0.2 6.4-2.2 11.8-5.2l9.7-5.6c-3.1-7.7-4-10.7-4-11.5 0-1.2 1.5-1.5 7.3-1.6 4 0 9.5-0.4 12.2-0.9 4-0.6 2.3-0.8-7.7-0.9-10.4-0.1-12.9-0.4-13.3-1.6-0.3-0.8-0.5-2.6-0.5-4v-2.5c35.8-0.2 39.4-0.4 35.5-1.2-2.7-0.5-7.6-0.6-10.7-0.3-5.4 0.5-5.9 0.3-8.1-2.2-1.3-1.6-2.6-4.4-3.1-6.3-0.4-1.9-0.4-4.8-0.1-6.5 0.4-1.6 1.8-4.7 3.1-6.7 1.3-2.1 4.3-4.8 6.7-6 3.1-1.6 6-2.2 10.7-2.2 4.6 0 8 0.6 11.5 2.2 2.8 1.3 6.9 4.2 9.3 6.5 2.3 2.3 4.2 3.8 4.3 3.2 0-0.5-1.7-2.7-3.8-4.7-2.1-2-6.3-4.8-9.3-6.2-4.1-1.9-7.1-2.6-12-2.6-4.7 0-7.7 0.6-10.9 2.3-2.4 1.2-5.7 3.8-7.2 5.7-1.6 1.9-3.3 5.5-3.8 8-0.7 2.9-0.7 5.8 0 8.3 0.5 2 1.4 3.9 1.9 4.2 0.6 0.3 1 1 1 1.5 0 0.6-3.3 1-8 1-6.8 0-8-0.3-8.4-1.7-0.3-1-1.4-6.5-2.5-12.3-1.1-5.8-2.5-14.3-3-19-0.6-4.7-1.5-19.1-2.1-32-0.6-12.9-1.5-29.8-2-37.5-0.5-7.7-0.7-15.6-0.4-17.5 0.5-3.2 1.2-3.9 7.7-7.2 4-2.1 9.4-5.4 12-7.3 2.6-1.9 4.6-3.7 4.5-4-0.2-0.3-3.2 1.4-6.8 3.9-3.6 2.4-8.6 5.4-11.2 6.5-2.6 1.2-5 2-5.2 1.9-0.3-0.2 0.4-2.8 1.5-5.8 1.4-3.5 2.3-9.1 2.6-15.5 0.4-7.2 0.1-12.5-1.1-19-1-4.9-2.9-11.9-4.3-15.5-1.3-3.6-3.8-8.4-5.4-10.7-1.6-2.4-4.8-5.4-7.1-6.8-2.4-1.3-5.2-2.5-6.3-2.5-1.1 0-2.5-0.4-3.2-0.8-0.7-0.4-1.6-2.4-2-4.5l-0.8-3.8c5.4 2.2 7.3 2.2 12 1.1 4-0.9 7.1-2.4 9.4-4.4 1.9-1.7 3.7-4 4.2-5.1 0.4-1.1 0.5-3.1 0.1-4.4-0.4-1.4-2.2-3.2-4.4-4.2-3.1-1.6-3.7-2.3-3.2-4.1 0.3-1.3 0.3-3.4 0-4.8-0.3-1.5-2.1-3.4-4.3-4.7-3.2-1.8-3.9-2.8-4.5-6.5-0.5-3.2-1.7-5.2-4.7-8-2.3-2.1-5.4-4.5-7.1-5.3-1.6-0.8-4.7-1.8-6.7-2.1-2.1-0.4-5-0.4-6.5 0-1.5 0.3-4.4 2-6.3 3.6-2.8 2.5-4.1 2.9-6.7 2.4-2.3-0.4-3.8-0.1-5 1-1 0.9-1.8 3-1.8 4.6 0 1.7 0.7 4.4 1.5 6 0.8 1.7 2.8 3.9 4.3 5 2.6 2 2.7 2.2 1.5 6-0.7 2.2-3.1 5.9-5.2 8.3-3.5 3.6-4 4.8-4 9-0.1 3.9 0.4 5.1 2.7 7.2 1.9 1.7 4.8 2.9 9.2 3.6 5.8 1 6.9 0.9 9.8-0.7 1.8-1.1 3.6-2.8 4-3.9 0.4-1.3 0.9 0.6 1.2 5.2 0.3 3.9 0.9 7.5 1.3 8 0.4 0.4 0.9 0.6 1 0.3 0.2-0.3 0-7.7-0.4-16.5-0.3-8.8-0.9-17.2-1.3-18.7-0.3-1.6-0.2-2.8 0.4-2.8 0.6 0 1 1 1.1 2.3 0 1.2 1.6 3.7 3.5 5.5 3.1 2.9 3.4 3.7 3.5 9 0 3.1 0.4 8.2 0.9 11.2 0.5 3.7 1.5 6.1 2.9 7.3 1.2 0.9 2.1 2.4 2.1 3.2 0 0.8-1.1 4-2.5 7-1.7 3.7-3.4 6-5.5 7-2 1-3.7 1.2-5.2 0.6-1.3-0.4-3-1.9-3.9-3.2-0.9-1.3-2.2-4.4-2.9-6.9-0.9-3.1-1.4-3.9-1.7-2.5-0.2 1.1 0.1 3.6 0.8 5.5 0.7 1.9 1.8 4.4 2.5 5.5 0.7 1.1 2.5 2.6 4.1 3.4 2.4 1.1 3.3 1.1 6.2 0 2.1-0.9 4.3-2.9 5.7-5.4 1.3-2.2 2.8-6.1 3.4-8.7 0.6-3.1 1.5-4.8 2.5-4.8 0.8 0 3.4 1.7 5.6 3.8 2.3 2 5.4 6.4 7 9.7 1.6 3.3 3.9 10.1 5.1 15 1.4 5.8 2.2 12.4 2.2 18.5 0.1 5.2-0.2 11.8-0.7 14.5-0.4 2.8-1.1 4.6-1.5 4.2-0.4-0.5-1.4-4.1-2.4-8-0.9-4-1.7-7.8-1.7-8.4-0.1-0.7 0.9-1.5 2.2-1.7q2.2-0.3-1-0.5c-3.1-0.1-3.2 0.1-2.7 2.7 0.3 1.5 1.2 5.9 2.1 9.7 0.8 3.9 1.3 8.6 1.1 10.5l-0.3 3.5-48 0.5c1.1 10.5 1.8 19 2.2 25.8 0.7 10.5 0.6 12.2-0.7 12.2-0.8 0-5.1-0.9-9.5-1.9-4.4-1.1-9.7-2.8-11.8-3.8-3.4-1.7-3.7-2.1-3.7-6v-4.3c5.1 3.1 7.2 4 8 4 0.8 0-0.6-1.3-3.2-3l-4.8-3-0.1-38.5c6.7-2.7 8.3-3.7 7.9-4-0.4-0.3-1.8 0-3 0.6-1.3 0.6-2.8 0.8-3.5 0.5-0.8-0.4-1.4-3.3-1.5-8.3-0.3-7.3-0.4-7.8-2.5-8-1.9-0.3-2.3-0.9-2.3-3.5 0-1.8-0.6-4.3-1.5-5.5-0.8-1.3-2.7-2.8-4.2-3.4q-2.8-1-13.5-0.2l-10.7 0.8c0.8 6.2 1.2 9 1.5 10.3 0.4 1.9 0 2.2-2.6 2.2-1.6 0-3 0.5-3 1 0 0.6 1.3 1 2.8 1h2.7c-1.2 11.4-2 13.9-3.2 14.8-1 0.7-2.6 1.2-3.5 1.2-1 0-1.8 0.5-1.8 1 0 0.6 0.5 1 1 1 0.6 0 0.3 1.6-0.6 3.8-0.8 2-2.1 4.8-2.7 6.2-1 2.1-1.2 1.1-1.7-7.5l-0.5-10c4.9-1.2 4.9-1.3 2.8-1.4-1.3 0-2.5-0.4-2.7-0.8-0.2-0.5-1.2-10-2.1-21.3-0.9-11.3-2-22.7-2.6-25.5-0.5-2.7-0.9-5.1-0.9-5.2 0-0.2 3.3-1.2 7.3-2.4 4-1.2 8.5-2.7 10-3.5 1.5-0.8 4.6-3.1 6.9-5.1 2.3-2.1 4.7-5.3 5.5-7 0.7-1.8 1.3-4.8 1.3-6.5 0-1.8-0.2-4.3-0.5-5.5-0.3-1.3-0.8-2.3-1.2-2.3-0.4 0-0.6 2.8-0.5 6.2 0.2 5-0.1 7-1.7 9.6-1.2 1.7-4 4.5-6.3 6-2.4 1.6-6.8 3.8-9.8 5-3 1.2-6.9 2.4-8.7 2.7-2.8 0.4-3.7 0-6.3-3-2.2-2.5-3.7-3.5-5.7-3.4-2.3 0.1-2.4 0.2-0.5 0.5 1.2 0.2 3.3 1.8 4.7 3.4 1.4 1.7 3 4.7 3.5 6.8 0.5 2 1.2 5.7 1.6 8.2 0.3 2.5 1.1 12.6 1.8 22.5 0.7 9.9 1.1 18.1 0.9 18.3-0.1 0.1-6.2-1.8-13.5-4.3-7.3-2.5-13.8-4.8-14.5-5-1-0.4-0.9-1.2 0.2-3.5 0.8-1.6 1.5-4.5 1.5-6.2 0-1.8-0.4-4-0.9-4.8q-0.9-1.5-0.7 3c0 2.5-0.5 6-1.1 7.8l-1.3 3.2c-6.6-3.1-9.2-3.9-10-3.9-0.8 0 0.9 1.2 3.8 2.5l5.2 2.4c-3.7 7.4-5.7 12.7-6.9 16.5-1.3 4.4-2.1 9.6-2.1 14.3 0 3.9 0.5 11.6 1 17 0.6 5.3 1.3 11.2 1.5 13l0.5 3.2c-14.3 4.5-21.6 6.6-25.5 7.5-3.8 0.9-13.3 2.7-21 4-7.7 1.4-14.9 2.5-16 2.5-1.8 0-2-0.7-2.1-6.8-0.1-3.9-1.1-9-2.3-12.2-1.1-3-3.7-8.2-5.9-11.5-2.1-3.3-6-8.3-8.7-11-2.8-2.8-7.2-6.6-10-8.4-2.7-1.9-7-4.4-9.5-5.4-2.5-1.1-8.2-2.7-12.7-3.6l-8.1-1.6c18.1-10.3 37.6-20.6 55.1-29.4 17.4-8.9 32.2-15.9 32.7-15.6 0.6 0.3 1 2.2 1 4.3 0 2-0.6 5.2-1.2 7-1.1 2.8-1.1 3.4 0.7 5.3 1.4 1.4 2.7 1.9 4.3 1.5 1.2-0.3 2.2-0.9 2.2-1.3 0-0.5-1.1-0.7-2.5-0.5-1.5 0.1-2.7-0.4-3-1.3-0.3-0.8-0.2-2.1 0.2-2.7 0.4-0.7 0.6-4.1 0.5-7.5-0.2-6.1-0.1-6.4 3-8 1.7-1 7-4.4 11.7-7.5l8.6-5.6c1 4.8 1.3 4.3 2.3-0.4 0.9-4.1 1.6-5.6 2.5-5.1 0.7 0.4 2.8 1.8 4.7 3 2.3 1.6 5 2.4 7.8 2.3 2.3 0 5.2-0.4 6.5-1 1.2-0.5 3.1-1.6 4.2-2.5 1.9-1.5 2-2.6 1.7-21.8l-0.3-20.2c6.2-4.8 7.3-6.5 7.7-9.2 0.4-2.3 0-5.2-0.9-7.3-0.8-1.9-2.9-4.8-4.6-6.5-2.6-2.4-4.3-3.1-8.4-3.3-3.4-0.2-6.3 0.3-8.5 1.4zm-84.1 335.4c2.1-1.2 5.2-2 7.9-2 2.5 0 5 0.4 5.6 0.8 0.6 0.4 1.6 1.7 2.1 3 0.6 1.2 0.9 3.2 0.7 4.2-0.2 1.2-2.2 2.8-5.1 4.1-3.4 1.5-5.8 2-8.3 1.5-1.9-0.3-4.1-1.2-4.8-1.9-0.7-0.6-1.3-2.7-1.4-4.5 0-2.7 0.5-3.6 3.3-5.2zm365.7-768.1c-1.5 0.5-3.9 1.5-5.5 2.3-1.5 0.8-4.6 3.6-6.8 6-2.2 2.5-5.6 5.2-7.6 6.1-1.9 0.8-4.3 2.6-5.2 3.9-0.9 1.2-1.9 4.1-2.3 6.3-0.5 2.9-1.8 5.1-5 8.3-2.4 2.3-5.7 6.8-7.3 10-1.6 3.1-3.6 9.2-4.5 13.5-0.9 4.2-1.5 9.8-1.5 12.5 0 3.5 0.3 4.2 0.9 2.7 0.5-1.1 0.9-3.8 1-6 0-2.2 0.7-6.9 1.6-10.5 0.8-3.6 2.7-8.7 4-11.5 1.4-2.7 4-6.7 5.8-8.7 1.8-2.1 3.7-3.8 4.2-3.8 0.5 0 1.9 2 3.2 4.5 1.2 2.5 3.7 5.4 5.5 6.5 1.8 1.1 3.9 2 4.7 2 0.8 0 0.2-0.8-1.5-1.9-1.6-1-4-2.9-5.2-4.2-1.2-1.3-2.6-3.6-3.2-5.1-0.6-1.6-1.1-4.4-1.1-6.3 0-1.9 0.7-4.8 1.6-6.3 0.9-1.5 2.7-3.3 4-4 1.3-0.7 3.1-1.2 3.9-1.2 0.8 0 1.9-1 2.4-2.2 0.5-1.3 2.4-3.7 4.3-5.5 1.8-1.8 4.9-3.8 6.8-4.6 1.9-0.8 5.3-1.8 7.5-2.2 2.3-0.4 6.6-0.1 10 0.6 4.5 0.9 7 2.1 9.8 4.8 2.1 2 4.3 5.2 4.9 7.1 0.6 1.9 1.1 6.2 1 9.5 0 4.7-0.8 7.4-3.4 12.5-2.2 4.5-4.7 7.5-7.8 9.8-2.5 1.9-7 4.1-10 4.9-3.9 1.1-7.3 1.4-12 0.9-3.6-0.4-6.3-0.5-6-0.2 0.3 0.3 3 1 6 1.4 3.2 0.5 7.4 0.5 10 0 2.5-0.4 6.3-1.8 8.5-2.9 2.2-1.1 5.5-3.5 7.4-5.2 1.8-1.8 4.5-5.4 5.9-8.2 1.9-3.7 2.7-7 3-12.5 0.4-6.8 0.1-8-2.4-12.9-2.4-4.5-3.8-6-8.4-8.3-4.5-2.4-6.6-2.8-12-2.7-3.6 0-7.7 0.4-9.2 0.8zm-97.5 3.4c-1.2 1.2-3 4.2-4.1 6.7-1 2.5-3.3 8.9-5 14.3-1.8 5.3-3.2 10.7-3.2 12 0 1.3 0.3 1.8 0.9 1.2 0.4-0.5 1.5-3.9 2.4-7.5 0.8-3.6 3-10.3 4.8-15 1.9-4.7 4.4-9.7 5.6-11.2 1.3-1.6 2-2.8 1.5-2.8-0.5 0-1.8 1-2.9 2.3zm-403.9 1.5c0.3 0.4 1.2 4.5 2.1 9.2 0.8 4.7 1.5 9.1 1.5 9.8 0 0.6-0.4 1.2-1 1.2-0.5 0-3.3-2.5-6.2-5.6-3.2-3.4-7.7-6.8-11.3-8.6l-6-3c-2.8 3.6-4.3 7.2-5.2 10.2-0.8 3-1.6 9.6-1.7 14.5 0 5 0.3 11.1 0.7 13.8 0.4 2.6 1.2 4.7 1.7 4.7 0.6 0 0.7-1.2 0.3-3.2-0.4-1.8-0.8-7.6-0.7-12.8 0-5.2 0.5-12 1.2-15 0.7-3 1.8-6.4 2.6-7.5 1.4-2 1.4-2 6.3-0.1 2.9 1.2 7.2 4.3 10.8 7.8 5.8 5.7 6 5.9 4 7.4-1.6 1.3-1.6 1.5-0.2 1 0.9-0.3 1.7-0.1 1.7 0.4 0 0.6 1.1-0.2 2.4-1.7 2.1-2.5 2.2-3.3 1.4-7.8-0.5-2.7-1.3-7.4-1.7-10.2-0.5-3.2-1.3-5.3-2-5.3-0.7 0-1 0.3-0.7 0.8zm409.1 20.5c-4.3 6.7-8.4 13.2-9.1 14.5-0.8 1.2-2.4 2.4-3.6 2.6-1.9 0.3-1.8 0.4 0.5 0.5 2.4 0.1 3.5-1.1 10.3-11.6 4.2-6.5 8.3-13 9-14.5 0.8-1.6 1.3-3 1.1-3.3-0.2-0.2-3.9 5.1-8.2 11.8zm-234.1-3c-3.3 2.8-4.3 3.2-8.6 2.9-4.3-0.3-5-0.1-7.3 2.7-1.9 2.4-2.5 4.3-2.5 8.1 0 4.4 0.5 5.4 3.5 8.5 3.3 3.3 3.9 3.5 9.3 3.2 3.1-0.2 6.5-0.6 7.5-1 1.5-0.6 1.7 0 1.7 5.3v6c-3.9-1.5-6-2-7.2-2-1.3 0-3.9 1.3-5.8 2.9-1.9 1.6-3.3 3.2-3 3.5 0.3 0.3 2.1-0.6 4-2 2.8-2 4.3-2.4 7-2l3.5 0.6c1 14.1 1.8 17.6 3.3 20.3 1.6 2.6 3.3 4 6 4.8 2 0.6 5.8 1 8.4 0.8l4.7-0.4c1.6 9.3 2.5 13.1 3.1 14.5 0.8 2 0.9 1.3 0.4-3-0.3-3-0.9-7.1-1.2-9l-0.8-3.5c-10.7-0.9-14.7-1.6-15.8-2.1-1-0.5-2.5-2.2-3.3-3.9-0.9-1.6-1.8-5.2-2-8-0.3-2.7-0.2-9.7 0.2-15.5 0.6-9.5 1-10.8 3.5-14l2.8-3.5c5.2 2.6 7.6 3.5 8.7 3.7 1.7 0.3 2 1 1.7 3.8-0.2 1.9-1 4.6-1.7 6-0.7 1.4-2 3.1-2.9 3.8-1.4 1.1-1.4 1.5 0.4 5.2l2 4c-4.2-1-6.5-1.7-7.7-2.1-1.3-0.5-2.8-0.9-3.5-0.9-0.9-0.1-0.8 0.4 0.2 1.5 0.8 0.9 4.7 2.2 8.5 3 3.9 0.7 11.9 1.6 17.8 1.9 6.8 0.4 12.2 1.2 14.9 2.4 2.3 0.9 5.2 2.9 6.5 4.5 1.3 1.5 3 5.1 3.8 8 0.9 2.8 2 7.9 2.6 11.2 0.6 3.3 1.7 7 2.5 8.3 0.9 1.3 2.4 2.2 3.9 2.2 1.4 0 2.5-0.4 2.5-1 0-0.5-1.1-1-2.5-1-1.5 0-2.6-0.7-2.9-1.7-0.3-1-1.2-5.6-2.1-10.3-1-4.7-2.8-10.6-4.1-13.2-1.3-2.7-3.6-5.6-5.1-6.6-1.5-1.1-4.4-2.4-6.3-3-1.9-0.7-8-1.5-13.5-1.8-5.5-0.3-10.9-0.7-12-0.9-1.1-0.2-2.8-2-3.7-3.9-1.6-3.2-1.6-3.8-0.3-4.8 0.8-0.7 2.1-3 3-5 0.8-2.1 1.5-5 1.5-6.5 0-2.2 0.7-3.2 3.5-4.5 2-1.1 4.3-3.3 5.3-5.3 1.3-2.7 1.5-4.2 0.7-6.2-0.5-1.5-2.2-3.4-3.6-4.3-2.5-1.4-3-1.3-6.9 0.5-3.4 1.6-4.4 1.8-5.8 0.7-0.9-0.7-3-2.1-4.7-3.2-1.6-1.1-4.2-2-5.7-2-1.6 0-4.2 1.3-6.4 3.3zm-177.6 13.4c-0.9 2.1-2.3 6.5-3.1 9.8-0.8 3.3-1.8 8.8-2.1 12.3l-0.6 6.2c6 1.8 10.9 2.1 15.5 1.8 4.4-0.3 9-1 10.3-1.7 1.3-0.7 2.2-2 2.1-3.3 0-1.3-0.6-4.1-1.4-6.3l-1.3-4c1 10 0.8 11.1-0.5 11.8-0.9 0.4-4.7 1-8.4 1.3-3.7 0.4-8.6 0.4-10.8 0l-4-0.8c1.2-11.5 2.6-18.2 3.8-22.4 1.3-4.2 2.3-7.8 2.2-8.1 0-0.2-0.8 1.3-1.7 3.4zm118.2 11.2c2.5 0.4 5.5 1.2 6.8 1.9 1.2 0.7 3.1 2.7 4.2 4.5 1.1 1.8 2 5 2 7.2 0 2.2-0.6 5-1.5 6.3-0.8 1.2-1.3 2.4-1 2.7 0.3 0.3 1.3-0.7 2.3-2.2 1-1.5 1.7-4.5 1.6-6.8 0-2.2-0.8-5.5-1.7-7.2-0.9-1.8-3.1-4.2-4.9-5.3-2.1-1.3-4.8-1.9-7.8-1.9l-4.5 0.2zm160.5 8c-1.7 1-4.1 3.5-5.3 5.5-1.9 3.1-2 3.9-0.9 6.3 0.7 1.5 2.5 3.3 4 4 1.9 0.9 4 1 7 0.3l4.2-0.9c-9 0.3-10.8-0.1-12.4-1.7-1.3-1.2-2.1-3-1.9-4.6 0.1-1.4 1.2-3.8 2.5-5.2 1.3-1.5 3.6-2.9 5.1-3.3 1.5-0.3 4.5-0.4 6.7-0.1 3.7 0.6 3.9 0.5 2-0.8-1.1-0.8-3.3-1.5-5-1.5-1.6 0-4.4 0.9-6 2zm-188.5 2.1c-1.9 1.1-4.5 3.5-5.7 5.2-1.3 1.9-2.3 4.7-2.3 6.7 0 2 0.9 4.9 2 6.5 1.1 1.7 3 3.6 4.3 4.3 1.2 0.6 4.5 1.2 7.2 1.2 3.1 0.1 5.8-0.5 7-1.5 2-1.5 2-1.6-0.2-1-1.3 0.3-3.3 0.8-4.5 1.1-1.3 0.4-3.6 0.4-5.3 0.1-1.6-0.3-4.2-1.7-5.7-3.1-2.3-2.1-2.8-3.4-2.8-7.3 0-2.7 0.7-5.7 1.6-7 0.8-1.3 2.9-2.9 4.5-3.8 1.6-0.8 4.9-1.5 7.4-1.5 2.7 0 5.1 0.6 6 1.5 1.4 1.4 1.5 1.4 1.5 0 0-0.8-1.4-1.9-3.2-2.5-1.8-0.5-4.4-1-5.8-0.9-1.4 0-4.1 0.9-6 2zm14 6.9c0 0.6 0.7 2.6 1.5 4.5 0.9 2 2.8 4.2 4.5 5 1.7 0.9 5.2 1.6 7.8 1.6 3.3 0 5.5-0.6 7.2-2 1.4-1.1 2.3-2 2-2.1-0.3 0-1.8 0.7-3.5 1.5-1.6 0.8-4.2 1.5-5.7 1.5-1.5 0-4.4-0.6-6.3-1.5-1.9-0.8-3.9-2.4-4.5-3.5-0.5-1.1-0.9-2.9-0.7-4 0.1-1.1-0.3-2-1-2-0.7 0-1.3 0.5-1.3 1zm253.7 6.8c0.5 2.8 0.2 4.4-1.3 6.6-1.7 2.6-2.3 2.9-5.4 2.3-2.4-0.5-3.2-0.4-2.5 0.4 0.6 0.6 2.4 1.1 4 1.1q3 0 4.8-2.3c1-1.4 1.8-4.1 1.9-6.6 0-2.3-0.5-4.4-1.1-4.7-0.7-0.4-0.9 0.6-0.4 3.2zm-439.2-1.4c-1.1 0.8-3.3 1.6-4.9 1.8-1.6 0.2-3.4 1.1-4 2.1-0.8 1.2-0.8 2.8 0.1 6 1 3.7 0.9 4.6-0.7 7.2-1.1 1.7-1.9 3.7-2 4.5 0 0.9 0.8 2.3 1.7 3.3 1.4 1.3 2.6 1.5 5.1 1 2.7-0.6 3.3-0.5 3.2 1 0 1 0.5 2 1 2.2 0.6 0.3 1 0 1.1-0.7 0-0.7-1.2-2.5-2.5-4-1.4-1.5-2.8-4.4-3.2-6.5-0.3-2.1-0.2-4 0.3-4.4 0.4-0.3 2.5-0.9 4.6-1.2 3.2-0.6 3.9-0.3 5 1.6 0.7 1.2 1.3 5.6 1.3 9.7 0.1 4.2 0.5 8.3 0.8 9.3 0.5 1.5 0 1.7-3.6 1.8-2.4 0-4.8 0.3-5.5 0.7-0.6 0.4-1.9 2.4-2.7 4.5-0.9 2.1-1.6 5.8-1.6 8.2 0 3.7-0.3 4.5-1.7 4.5-1.4 0-1.5 0.2-0.5 1.3 0.7 0.7 1.2 2.3 1.2 3.5 0 1.2-0.7 2.5-1.5 2.7-0.8 0.3-1.5 1.1-1.5 1.8-0.1 0.9 0.4 0.8 1.5-0.3 0.9-0.8 1.6-1.2 1.6-1 0 0.3 0.1 4.4 0.4 9l0.4 8.5c-11.9 2-15.8 3.1-16.4 3.6-0.7 0.8-0.2 0.9 1.5 0.5 1.4-0.3 5.3-0.9 8.8-1.3 6-0.7 6.2-0.7 6.2 1.5 0 1.2 0.4 3 0.8 3.9 0.7 1.5-0.2 1.6-8.8 1-6-0.4-8.7-0.3-7.5 0.2 1.1 0.5 5.3 1.1 9.2 1.3 7.1 0.3 7.2 0.4 7.5 3.2l0.3 2.8c-9.3-0.9-15.6-1.5-20-1.9-6.1-0.5-7.8-0.4-7.2 0.5 0.4 0.7 2.9 1.2 5.5 1.2 2.6 0 8.7 0.6 13.5 1.3 6.6 0.9 8.7 1.6 8.7 2.7 0 1.3-0.9 1.4-4.7 0.8-2.6-0.3-8-0.7-12-0.7-5.1 0-8.8 0.5-12.3 1.9-2.7 1.1-6.8 3.2-9 4.5-2.2 1.4-3.9 2.7-3.7 3 0.1 0.2 3.8-1.4 8.2-3.6 4.4-2.1 9.6-4.2 11.5-4.6 1.9-0.3 7.6 0 12.5 0.7 5 0.7 9.1 1.3 9.3 1.4 0.2 0.1 1.2 8.2 2.2 18.1 1.1 9.9 2.2 19.7 2.5 21.8 0.4 3 0.2 3.9-1.2 4.3-1 0.4-4.7 1.8-8.3 3.2l-6.5 2.5c-6.6-4.1-11.9-6.4-16-7.8-4.1-1.3-11.9-2.9-17.2-3.5-5.4-0.6-9.9-1.1-10-1.3 0-0.1 0.8-2.9 1.9-6.2 1.1-3.3 4.2-9.2 6.9-13.2 2.7-4 4.5-7.3 3.9-7.3-0.5 0-3 2.9-5.4 6.3-2.4 3.4-5.3 8.6-6.5 11.5-1.1 2.9-2.1 6.1-2.1 7.2 0 1.8-0.6 2-5.5 2-3 0-5.8 0-6.2 0-0.4 0-0.6-2.6-0.4-5.7 0.2-3.2 1.2-8.5 2.3-11.8 1.1-3.3 3.3-8 4.8-10.5 1.6-2.4 5-6.5 7.7-9 2.6-2.5 6.5-5.5 8.6-6.7 2-1.3 3.5-2.6 3.2-3-0.3-0.4-3.7 1.5-7.7 4.2-4.5 3.2-8.8 7.3-11.5 11-2.4 3.3-5.3 8.4-6.3 11.3-1.1 2.9-2.4 8.1-2.8 11.5-0.5 3.4-0.7 6.9-0.5 7.7 0.4 1.1-0.8 1.8-4.4 2.4-2.6 0.5-8.4 2-12.8 3.3-4.4 1.4-10.7 4-14 5.7-3.4 1.8-9.2 6.3-13.6 10.6-5.7 5.7-8.4 9.4-11.1 15-2 4.2-4.3 10.8-5.2 14.8-0.9 4-1.6 10.8-1.6 15.2 0 4.4 0.7 11.1 1.4 14.8 0.8 3.7 2.4 9.2 3.6 12.2 1.2 3.1 4.3 8.7 6.8 12.5 2.5 3.9 7.6 10 11.2 13.5 6 5.9 6.6 6.8 5.8 9-0.5 1.4-0.8 6.1-0.6 10.5 0.3 6.5 0.9 9.2 3.3 14 1.7 3.2 5 8 7.5 10.5 2.5 2.5 6.3 5.5 8.5 6.5 2.2 1 6.1 2.1 8.7 2.5 4 0.5 4.8 0.9 5.2 3 0.3 1.4 1.8 4.6 3.4 7 1.5 2.5 5.1 6 7.8 7.8 2.7 1.7 5.5 3.6 6.2 4.2 0.7 0.6 2.1 1 3.2 1 1.1 0 4 0.5 6.5 1 2.5 0.6 4.5 1.2 4.5 1.3 0 0.1-0.9 2.8-2 6-1.1 3.3-2 8.2-1.9 11.5 0 3.2 0.6 7.1 1.3 8.7 1.2 2.8 1.3 2.3 0.8-4.5-0.4-5.8 0-9.1 1.7-14.7 1.8-6.2 2.4-7.3 4.4-7.3 1.2 0 3.7 0.2 5.5 0.5l3.2 0.5c-4.1 9-5.5 13.8-5.6 16.5l-0.3 5c2.3-10 4-14.8 5.3-17l2.4-4c25.1-1 30.2-1.7 34.7-3.2 3.3-1.2 6.2-1.9 6.5-1.7 0.3 0.3 0 2.2-0.7 4.2-0.7 2.1-2.7 6.1-4.5 9-1.8 2.8-5.8 7-8.8 9.3-3 2.3-7.5 5.2-10 6.4-2.5 1.3-6.5 2.9-9 3.6-2.5 0.6-4 1.4-3.5 1.6 0.6 0.2 3.8-0.5 7.3-1.6 3.4-1.1 8.6-3.4 11.5-5.1 2.9-1.7 5.3-2.8 5.5-2.5 0.1 0.3-0.9 2.2-2.2 4.3-1.3 2.1-4 5.3-6 7.2-2 2-3.6 4.1-3.6 4.8 0 0.7 2.6-1.6 5.8-5.1 3.1-3.4 6.8-8.4 8.2-11 2.1-3.9 3.1-4.8 6-5.2q3.5-0.6 5.8 1c1.2 0.8 2.7 2.7 3.2 4 0.6 1.4 1 4 1 5.8 0 1.8-0.6 5-1.2 7.2-0.7 2.1-3 5.8-5 8.2-2.1 2.4-3.3 4.3-2.8 4.3 0.6 0 2.6-1.9 4.6-4.2 1.9-2.3 4.2-6.5 5-9.3 0.8-2.7 1.4-6 1.4-7.2 0-1.2-0.4-3.4-1-4.8-0.5-1.3-1.9-3.4-3-4.5q-2-2-6-2h-4c5.4-10 7-13.9 7-15 0-1.1 0.5-2 1-2 0.6 0 1.2 0.4 1.4 0.8 0.2 0.4 1.9 1.1 3.7 1.5 2.1 0.5 4.6 0.4 6.4-0.3 1.7-0.6 4.3-2.3 5.9-3.8 1.6-1.5 3.5-4.1 4.2-5.9 0.8-1.8 1.4-4.6 1.4-6.3 0-1.6-0.7-4.5-1.5-6.5-1.1-2.6-1.3-4.5-0.5-7.7 0.5-2.3 1.2-6.1 1.5-8.3 0.3-2.3 0.2-3.5-0.3-3-0.5 0.6-1.5 4-2.1 7.5-0.7 3.6-2.3 9-3.7 12-1.4 3.1-3.5 6.6-4.7 7.9-1.2 1.3-4.2 3.7-6.7 5.3-2.5 1.6-4.8 2.9-5.2 2.9-0.4-0.1-0.8-1.9-0.8-4.1 0-2.5-0.4-4-1.2-4-0.9 0-1.1 1.1-0.6 4.3l0.7 4.2c-11.2 3.2-17.8 4-26.9 4.3l-13.5 0.4c4.7-4.9 8.3-7.7 11-9.4 2.8-1.7 6-3.2 7.3-3.2 1.2 0 2.2-0.3 2.3-0.6 0-0.2-0.7-1.1-1.6-2-0.9-0.8-1.5-1-1.5-0.5 0 0.6-2.5 2.4-5.6 4-3.1 1.7-7.4 5-9.5 7.3-3.5 3.8-4.4 4.2-8.4 4.2-2.5 0-4.5-0.3-4.5-0.7 0.1-0.4 1.6-3.9 3.5-7.8 1.8-3.8 4.9-9 6.7-11.6 1.8-2.5 4.9-6.3 6.8-8.5 2-2.1 6.5-6.4 10-9.4 3.7-3.1 10.3-7.3 15-9.6 4.7-2.2 11.5-5.3 15.2-6.9l6.7-3c7.1 5.9 9.6 7.5 10.1 7.5 0.6 0 0.9-0.3 0.8-0.7-0.1-0.4 0.6-3.3 1.5-6.5 1-3.4 3.1-7.3 5-9.3 1.8-2 4.8-4 6.7-4.5 1.9-0.5 6.6-1 10.3-1 6.1 0 7 0.3 9.7 3 2.5 2.5 3 3.8 3 7.8 0 2.7-0.8 6.2-1.8 8.2-1 2-3.4 4.6-5.3 5.8-1.8 1.3-5 2.6-6.9 2.9-2.2 0.4-4.6 0-6.7-1-1.8-0.9-3.9-2.9-4.6-4.4-0.8-1.5-1.7-4.2-2-6-0.4-1.8-0.2-4.3 0.3-5.5 0.6-1.2 2.3-2.8 3.8-3.5 1.5-0.7 2.4-1.5 2-1.8-0.4-0.2-2 0.1-3.5 0.8-1.5 0.7-3.3 2.5-4 4-1.1 2.3-1 3.7 0.2 8.2 1 3.8 2.5 6.3 4.5 8 1.7 1.4 4.3 2.8 5.8 3.2 1.5 0.3 4.5 0 6.7-0.7 2.2-0.6 5.9-3.1 8.2-5.3 2.7-2.7 4.5-5.7 5.3-8.7 1-3.7 0.9-5.2-0.4-8.7-1.5-4.2-1.5-4.3 0.7-5.1 1.2-0.5 3.8-1.6 5.7-2.4 1.9-0.8 6.6-3.8 10.3-6.6 3.7-2.8 6.9-5.2 7.2-5.2 0.3 0 2.2 2 4.3 4.3 2.2 2.3 5.5 6 7.5 8.2 2 2.2 3.7 3.6 3.7 3 0-0.5-3.1-4.4-7-8.7-3.8-4.3-7-8.1-6.9-8.5 0-0.4 2.6-3.5 5.7-6.8 3.2-3.3 8.6-10.2 12.1-15.5 3.5-5.2 8-12.8 10.1-17 2.1-4.1 5-10.6 6.5-14.5 1.5-3.8 3.9-11.2 5.2-16.5 1.3-5.2 2.6-13.7 3-19 0.4-5.8 0.1-12.2-0.6-16.5-0.7-3.8-2.2-9.2-3.4-11.9-1.2-2.6-4.3-6.8-6.9-9.2-3.2-2.9-6.1-4.6-8.8-5.1-2.2-0.4-4.2-1.4-4.5-2.3-0.2-0.8-2.5-4.6-5-8.5l-4.7-7c9.2-8.5 15-12.6 18.8-14.6 3.8-2.1 10.3-4.7 14.4-5.9 5.1-1.4 11.9-2.3 21.1-2.8 11.4-0.6 13.9-0.4 15.3 0.8 1.2 1.1 1.7 1.2 1.7 0.3-0.1-0.8 1.4-1.3 4.2-1.2 2.3 0 7.1-0.9 10.7-2 3.7-1.1 8.7-3.6 11.5-5.8 2.9-2.2 5.6-5.4 6.7-7.8 1-2.2 1.8-5.5 1.8-7.5 0-1.9-1-5.2-2.2-7.4-1.4-2.3-3.9-4.7-6.3-6-2.5-1.3-5.8-2.1-9-2-2.7 0-6.6 0.7-8.5 1.7-1.9 0.9-5 3.2-6.8 5-1.9 1.8-4.1 4.6-5 6.2-1.1 2.1-1.6 5.7-1.6 11.5-0.1 4.7 0.3 9.4 0.7 10.5 0.7 2 0.3 2-8 1.7-5-0.2-12.7 0.4-18 1.3-5.1 0.8-12.3 2.8-16 4.3-3.7 1.5-9.3 4.3-12.3 6.3-3 1.9-7.5 5.5-10 7.8-2.8 2.7-4.9 4-5.6 3.5-0.6-0.5-3.5-2.8-6.5-5.2-3-2.4-8-5.7-11.1-7.3-3.2-1.6-6.3-2.8-7-2.8-0.7 0 2.1 1.8 6.2 3.9 4.1 2.2 10 6.1 12.9 8.8l5.5 4.7-11.4 15.5c-12-8-16.9-10.9-18.7-11.6-1.8-0.8-6-1.4-9.3-1.4-3.6 0-5.8 0.4-5.5 1 0.3 0.6 3 1 6 1 3 0 6.8 0.5 8.3 1.1 1.5 0.6 4.6 2.2 7 3.5 2.3 1.3 4.1 2.7 4 3-0.2 0.3-3-0.4-6.3-1.5-3.3-1.2-8.2-2-11-2-2.7 0-5.9 0.5-7 0.9-1.5 0.7-0.7 0.9 3 0.9 3.8 0.1 5.5 0.6 7 2.2 1.1 1.2 2.7 2.5 3.5 3 0.9 0.5 3.3 0.2 6-0.7 4.2-1.4 4.8-1.3 8.2 0.3l3.7 1.8c-2.5 4.7-5.3 8.2-7.8 10.8-2.9 3-5.4 4.8-6.8 4.8-1.3 0-3.2-1-4.3-2.1-1.1-1.1-2-2.5-2-3.2 0.1-0.7 0.8-2.1 1.8-3 0.9-1 1.3-1.8 0.7-1.8-0.5 0-1.5 0.5-2.1 1.2-0.6 0.8-1.4 2.1-1.7 3.1-0.5 1.2 0.3 2.7 2.3 4.7 1.7 1.7 3.9 3 5 3 1.1 0 4.1-1.9 6.6-4.2 2.6-2.3 5.7-6.2 7-8.5l2.4-4.3 6 4.5c-3.8 3.9-5 5.5-5 6 0 0.6 1.3-0.3 3-2l3-3c4 3.9 6.3 6.7 7.8 8.8 1.5 2.1 2.9 3.5 3.2 3.3 0.3-0.3-0.7-2.3-2.2-4.5-1.5-2.3-5.4-6.5-8.5-9.5l-5.8-5.4 11-14.4c2.8 3.7 4.9 7 6.6 9.7 1.6 2.8 2.9 5.4 2.9 5.8 0 0.4-0.8 0.7-1.7 0.7-1 0-2.5 0.7-3.3 1.5-1.3 1.4-1.1 1.5 2 1 3.4-0.7 3.6-0.5 4.3 2.7 0.4 1.8 0.7 5.1 0.8 7.3 0 2.2-0.9 7.1-2.1 10.8l-2 6.7c-4.2-3.5-6.8-4.9-8.5-5.3-2-0.5-4.3-0.3-7 0.8-2.2 0.8-3.8 1.7-3.5 2 0.3 0.3 2.1 0 4-0.7 2.3-0.7 4.7-0.8 7-0.1 2.7 0.6 3.9 1.8 5.3 4.6 1.7 3.7 1.7 3.8-0.5 6.3l-2.3 2.5c3.5-0.1 4.5 0.5 4.5 1.2 0 0.7-0.9 2.7-2 4.5-1.1 1.8-3.1 3.7-4.5 4.2-1.4 0.6-4.6 0.8-7.2 0.6-3.5-0.3-5.5-1.2-7.6-3.3-1.6-1.7-2.7-3.8-2.7-5.5 0-2.5 0.3-2.7 2.7-2 2.5 0.7 2.6 0.6 1.8-1.8-0.5-1.3-0.9-3.8-0.8-5.5l0.1-3c-5.5 6.7-5.8 7.8-5.8 14 0.1 4.9 0.7 8.4 2 11.3 1.2 2.5 3.2 4.8 5 5.7 1.7 0.9 4.3 1.5 5.8 1.4 2.5-0.1 2.4-0.1-0.8-0.9-1.9-0.5-4.7-2.1-6.2-3.7-1.6-1.6-3.1-4.4-3.5-6.8l-0.7-4c7.1 5.5 8.7 6 13 6 4.5 0 5.7-0.4 8.4-3 2-1.9 3.4-4.7 4.1-8 0.6-2.7 0.9-6.1 0.6-7.5-0.3-1.5 0.5-4.6 2.1-8 2.1-4.5 2.6-7 2.6-14.7 0.1-8.6 0.3-9.3 2.1-9.3 1.1 0 4 1.5 6.4 3.3 2.9 2.2 5.3 5.2 7.2 9.2 1.6 3.3 3.4 9 4 12.5 0.6 3.7 0.9 10.7 0.5 16-0.3 5.3-1.4 13.1-2.5 17.5-1.1 4.4-2.9 11-4.1 14.5-1.3 3.6-4.5 11-7.2 16.5-2.8 5.5-7.4 13.6-10.3 18-2.9 4.4-7.8 10.9-10.9 14.3-3.1 3.4-5.9 6.2-6.3 6.3-0.4 0-1.3-1.5-2-3.3l-1.2-3.3c0.8 7.8 0.5 8.9-1.3 10.6-1.3 1.1-4.5 3.8-7.3 6-2.7 2.1-7.3 4.8-10.2 5.9-5 1.9-5.5 1.9-9 0.4-2.8-1.2-5.5-1.5-10.3-1.1-3.6 0.3-7.3 0.9-8.2 1.2-1.3 0.4-1.8 0-1.8-1.5 0-1.1-1.1-3.3-2.5-5-1.4-1.6-3.4-3.2-4.5-3.5-1.1-0.2-2.9 0-4 0.5-1.1 0.6-3 2.7-4.2 4.8-1.6 2.7-2.3 6-2.7 12.2l-0.6 8.5c-5.6-8.5-8.2-13.7-9.3-17-1.7-4.8-2.1-5.4-2.2-3 0 1.7 1.6 6.4 3.5 10.5 2 4.2 3.4 7.6 3.3 7.6-0.2 0-5 1.9-10.8 4.1-5.8 2.3-14.3 4.9-19 5.9-6.8 1.4-11.5 1.6-23.5 1.2-8.2-0.4-19.3-1.3-24.5-2.1-6.3-1-13-3-20-6-5.8-2.4-12.1-5.2-14-6.1-1.9-1-6.3-3.4-9.7-5.4-3.4-2-6.2-4.3-6.2-5.2 0-0.8 1.7-3.4 3.7-5.9 2-2.4 5.7-5.8 8.1-7.5 2.3-1.7 3.8-3.2 3.2-3.3-0.6-0.1-3.3 1.4-6.1 3.5-2.8 2.1-6.4 5.7-8 8l-3 4.2c-7.2-5.8-11.5-10.4-14.2-14-2.7-3.5-6.2-9.2-7.8-12.5-1.6-3.3-3.6-9.1-4.5-13-0.9-3.8-1.6-11.2-1.6-16.5-0.1-5.2 0.6-12.4 1.5-16 0.8-3.5 2.4-8.7 3.6-11.5 1.2-2.7 4.1-7.7 6.4-11 2.4-3.3 6.7-7.9 9.7-10.3 3-2.4 8-5.7 11.2-7.3 3.1-1.6 9-3.7 13-4.8 4-1 8.8-2.1 10.7-2.4 2.9-0.5 3.7-0.2 4.7 1.6l1.2 2.2c0.1-4.2 0.6-4.5 5.1-4.5 2.8 0 5.4 0 5.8 0 0.4-0.1 1 1 1.4 2.2 0.6 2.3 0.6 2.3 0.7-0.2l0.1-2.5c14.4 1.1 21.7 2.4 25.5 3.6 3.9 1.2 8.7 3 10.8 4 2 1.1 3.7 2.3 3.7 2.7 0.1 0.4-2 1.4-4.6 2.2-2.6 0.9-4.9 2.1-5 2.8-0.3 0.9 0.8 0.9 4.4-0.3 2.6-0.8 6-1.8 7.5-2.2 2.2-0.6 3.3-0.2 5.8 2.2 1.7 1.7 4.3 5.1 5.9 7.5 1.6 2.5 3.9 7.2 5 10.5 1.1 3.3 2 8.5 2 11.5 0 3.5 0.7 6.8 1.9 9 1 2 3.3 4.3 5 5.3 1.7 1 3.7 1.6 4.4 1.4 0.7-0.1-0.5-1.2-2.5-2.5-2.1-1.2-4.5-3.6-5.5-5.4-0.9-1.8-1.7-5.5-1.7-8.3-0.1-3.2 0.6-6 1.7-7.8 1-1.5 3.1-3 5-3.5 1.8-0.4 4.6-0.5 6.2-0.3 1.7 0.3 4.5 2 6.3 3.8 2 2.1 3.5 4.8 3.8 7.1 0.4 2.1 0.2 5.4-0.5 7.5-0.6 2.1-2.4 5.3-4.1 7.2-2.2 2.7-2.7 3.7-1.7 4.3 0.7 0.4 2.9 2.7 4.8 5 1.9 2.4 4 4.3 4.7 4.3 0.7 0-0.6-2.2-2.8-4.8-2.2-2.6-4-5.1-4-5.5 0-0.4 1.3-2.6 2.8-5 1.7-2.7 2.9-6 3.2-9.4 0.3-2.9 0.9-5 1.3-4.8 0.4 0.2 1.2 0.2 1.7-0.1 0.6-0.2 0.1-1.6-1-3.2-1.2-1.5-2.4-4.8-2.7-7.3-0.6-3.8-0.3-5 2-8.2 1.5-2.1 2.4-3.8 2-3.8-0.4 0-1.5 0.7-2.3 1.6-0.8 0.9-2.8 2.3-4.5 3.2-1.8 0.9-4.2 1.2-6.2 0.8-1.9-0.3-4.3-1.8-5.8-3.6-1.8-2.2-2.5-4.1-2.5-7.5 0-3.5 0.7-5.2 3-8 2.1-2.3 4.2-3.7 6.8-4.1 2-0.4 4.6-0.6 5.7-0.6 1.9 0.2 2-0.2 1.3-4.5-0.4-2.6-1.2-11.1-1.8-18.8-0.6-7.7-1.2-15.2-1.5-16.7-0.5-2.7-0.3-2.8 4.8-3.4 2.9-0.3 7-1.2 9.2-1.9 3-1.1 3.3-1.3 1-0.9-1.6 0.3-5.8 0.8-9.2 1.2l-6.3 0.7c0-5.6 0.5-6.5 1.8-6.5 0.9 0 2.4-0.5 3.2-1.1 1.2-0.8 0.7-0.9-1.7-0.4-3.1 0.5-3.3 0.3-3.8-2.7-0.2-1.9 0.1-3.8 0.8-4.6 0.7-0.7 0.8-1.2 0.2-1.2-0.5 0-1.3-3.2-1.7-7.2-0.3-4-1.8-12-3.2-17.8-1.4-5.7-2.6-11.1-2.6-12 0-0.8 1.2 0.5 2.8 2.8 1.5 2.3 3.1 4.3 3.5 4.2 0.4 0 0.7-1.2 0.7-2.7 0-1.5-1.1-5-2.5-7.8-1.4-2.7-3.3-5.9-4.2-7-1-1.2-2.8-2.6-4-3.3-1.3-0.6-2.3-1.5-2.3-1.9 0-0.4 1.9-1.5 4.2-2.4 2.4-1 5.6-3.1 7.1-4.8 2-2.3 2.5-3.6 2-5.1-0.4-1.2-2.1-2.4-3.8-2.8-2.4-0.6-3-1.3-3.2-4-0.2-2.5-0.9-3.4-3.3-4.4-1.6-0.7-3-1.7-3-2.3 0.1-0.5-0.7-1.7-1.7-2.6-1-1-2.9-2-4.3-2.3-1.5-0.4-3.3-0.1-4.5 0.8zm188 40.5c2.2-1 5.7-1.8 7.8-1.8 2-0.1 5.2 0.6 7 1.3 1.8 0.8 4.3 2.6 5.7 4.1 2.1 2.3 2.5 3.7 2.5 9 0 5.6-0.3 6.8-3.1 10.2-1.7 2.1-5.7 5.2-8.9 6.8-4.7 2.4-7.6 3.1-22.2 4l-1.1-5.2c-0.7-2.9-1.2-6-1.2-7 0-1 0.7-4.1 1.5-7 0.8-2.9 3-6.9 4.8-8.9 1.8-2 5-4.5 7.2-5.5zm-184 41.8c0.5-0.4 2.1-0.7 3.7-0.7 2.2 0 3 0.6 4.8 6h-4.5c-4 0-4.5-0.2-4.6-2.3-0.1-1.3 0.2-2.6 0.6-3zm-0.5 9.3c0-2.9 0.2-3 4.5-3 3.1 0 4.7 0.5 5 1.5 0.3 0.9 0.5 2.2 0.5 3 0 1.2-1.2 1.5-5 1.5-4.9 0-5 0-5-3zm5.3 4.8c3.8-0.2 5.4 0.1 5.9 1.2 0.4 0.9 0.7 1.9 0.8 2.3 0 0.4-2.7 0.7-6 0.7-5.3 0-6-0.2-6-2 0-1.7 0.8-2 5.3-2.2zm-5.3 6.2h12.5l3.9 18.3c2.2 10 4.1 18.8 4.3 19.5 0.2 0.7-0.6 1.2-1.7 1.2-1.1 0-3.8 0.9-6 2-2.2 1.1-4.9 3.5-5.9 5.3-1.2 1.8-2 5.1-2 7.5-0.1 3.2 0.6 5 2.7 7.4 1.5 1.7 4.1 3.8 5.7 4.5 2 0.8 4.1 1 9-0.4v11.5l-4-3.4c-3.3-2.8-4.8-3.4-8.7-3.4-3.8 0-5.5 0.6-11.8 6l-0.6-3.2c-0.3-1.8-1.8-5.7-3.2-8.7-1.5-2.9-4.6-7.2-11.2-13.6l17.1-6-0.1-22.2zm31.3 153.5c1.2-0.8 2.6-1.5 3-1.5 0.4 0 1.6 0.4 2.7 1 1.1 0.5 2.7 2.5 3.5 4.2 1.5 3.3 1.5 3.3-3 8-3.4 3.7-4.7 6.1-7 16l-2.2-2.6c-1.7-2-2.3-3.9-2.3-7.9 0-2.8 0.7-7.6 1.5-10.5 0.9-3.1 2.5-5.8 3.8-6.7zm-141.6 12c0.5-1.3 1.3-1.1 4.7 1 2.3 1.4 8.1 4.6 12.9 7 4.8 2.5 11.1 5.4 14 6.5 2.9 1.1 5.9 2.4 6.7 2.9 1.3 0.7 0.8 1.8-2.7 6.2-2.4 3-4.5 5.8-4.6 6.4-0.2 0.5-2 0.1-4-1-2.1-1.1-3.7-2.6-3.7-3.3 0-0.6-0.4-1.2-1-1.2-0.5 0-1 0.9-1 2 0 1.4 1.4 2.6 4.5 4 3.8 1.7 4.5 2.4 4.1 4.2-0.3 1.3-0.5 3.3-0.5 4.5 0 1.9-0.6 2.3-3.3 2.3-1.8 0-5.5-1.1-8.3-2.4-2.7-1.4-6.7-4.4-8.9-6.8-2.2-2.4-5.2-7-6.7-10.3-2.3-4.9-2.8-7.4-2.9-13.3 0-3.9 0.3-7.9 0.7-8.7zm38.1 23.3c3.3-3.4 3.7-3.5 6.1-2.3 1.5 0.7 5.4 4.1 8.7 7.6 4.3 4.5 6.8 8.1 8.3 12.1 1.2 3.2 2.4 8.6 3.5 18.3l-4-5c-2.2-2.8-7.1-7.9-10.8-11.5-6-5.7-6.7-6.8-5.7-8.5 0.8-1.5 0.7-2.5-0.4-4-1.4-2-1.5-1.9-1.3 0.5 0.1 1.4 0.1 3.5-0.2 7l-5-2.5c-2.7-1.4-5-2.7-5-3 0-0.3 0.6-1.5 1.2-2.8 0.6-1.2 2.7-3.9 4.6-5.9zm10.7-1.7c-2.9-2.2-2.9-2.2-0.5-1.7 1.4 0.2 6.6 1 11.5 1.7 5 0.7 14.4 1.3 21 1.3 6.6 0 14-0.2 20.5-1.4l-7.2 5.8c-4 3.2-9.3 8.3-11.8 11.2-2.6 3-6 7.5-7.7 10-1.7 2.5-4 6.6-5.2 9.2-1.1 2.7-2.4 4.8-2.8 4.8-0.4 0-0.4-2.1-0.1-4.7 0.5-3.2 0.2-6.8-0.8-10.8-0.9-3.3-2.6-8-3.9-10.5-1.2-2.5-4-6.3-6.1-8.6-2.1-2.2-5.2-5-6.9-6.3zm-17.5 16.4c0-1.9 0.3-3.5 0.5-3.5 0.3 0 2.5 1 9 4.3l-3 1.3c-1.6 0.7-3.7 1.3-4.7 1.3-1.3 0.1-1.8-0.7-1.8-3.4zm9.5 2.4c0.3-0.5 1.4-0.9 2.3-0.9 1 0.1 5.2 3.7 9.5 8 4.3 4.4 7.6 8.4 7.5 9-0.1 0.6-2.5 2.3-10.3 6.8l-4.5-2.7c-2.4-1.5-6-4.5-7.8-6.7-1.8-2.1-4-5.4-6.2-10.4l4.4-1.1c2.4-0.7 4.7-1.6 5.1-2zm15.5 20.8c2.5-1.5 4.7-2.7 4.8-2.7 0.1 0 0.9 1.3 1.7 3 0.9 1.6 1.5 3.4 1.5 4 0 0.5-0.7 1-1.7 1-1 0-3.8-0.6-10.8-2.7zm426.5-326.4c1.2 1.7 1.4 3.2 0.8 6.1-0.4 2.2-1 4-1.3 4.2-0.2 0.2-2.1-0.7-4.2-2.1-2.6-1.7-3.8-3.3-4.1-5.2-0.2-2-0.5-2.4-1.1-1.3-0.4 0.9-0.5 2.3-0.2 3.3 0.4 1 2.8 3.1 5.4 4.7 2.6 1.7 5.1 2.7 5.5 2.3 0.5-0.4 1.1-2.8 1.4-5.3 0.4-2.5 0.1-5.4-0.5-6.7-0.6-1.2-1.6-2.3-2.2-2.3-0.6 0-0.3 1.1 0.5 2.3zm110.9 2.5c-2.8 0.9-6.8 3.1-9 4.8-2.1 1.7-5.3 5.3-7.1 8-1.9 2.8-3.7 7.3-4.3 10.2-0.8 4.3-1.3 5.2-3 5.2-1.1 0-2 0.6-2 1.3 0 0.9 2 1.1 7.8 0.7l7.7-0.5c-4.3 11.7-7.1 19.1-9 24-1.9 5-4.2 12.4-5 16.5-1.1 4.9-1.5 10.9-1.3 17 0.3 8.2 0.8 10.4 3.5 16 1.9 4 4.9 8.1 7.5 10.4 2.4 2.1 7.2 5.3 10.6 7 5.8 3 6.3 3.4 7.2 7.6 0.5 2.5 1.3 7 1.7 10l0.8 5.4c-4.6-1.1-8.7-1.7-12-2-4.9-0.5-6.9-0.2-11.3 1.8-3.1 1.3-7.1 4.2-9.3 6.6-2.5 2.8-4.4 6.2-5.5 10-1.1 4-1.4 7.4-0.9 11.2 0.3 3.1 1.9 8.2 3.4 11.5 1.5 3.3 4.3 7.8 6.2 10 1.9 2.1 6.5 6.3 10.2 9.2 3.7 2.9 7 5.3 7.2 5.3 0.3 0 0.5-5.6 0.5-12.5v-12.5c5.1 5.7 8 8 9.8 8.7 1.8 0.7 3.8 1.1 4.5 0.8q1.2-0.5 1.9 3.8c0.4 2.3 0.4 4.3 0 4.5-0.3 0.1-5.4 3.3-11.2 7.1-5.7 3.8-12.8 9.4-15.7 12.5-3.7 4-5.4 6.8-5.9 9.4-0.3 2.1-0.4 5.8-0.1 8.2 0.4 2.5 1 5.6 1.4 7 0.8 2.2 0.7 2.4-2.4 2-1.8-0.3-3.4 0-3.6 0.5-0.2 0.6-4.1 2.1-8.7 3.4-5 1.4-13.8 2.8-21.5 3.3-7.1 0.6-19.4 0.8-27.2 0.4-7.8-0.3-15.4-1-16.8-1.6-1.3-0.5-2.5-0.6-2.5-0.2 0 0.4 1.6 4.3 3.4 8.7 1.9 4.4 4.3 11.9 5.5 16.5 1.1 4.7 2.3 11 2.7 14 0.3 3.1 0.8 6.6 1 7.8l0.4 2.2c9.7-3.7 17-5.5 22.5-6.4 5.5-0.9 14.3-2.3 19.5-3.1 5.3-0.8 10.2-1.7 11-1.9 1.2-0.3 0.9 1.2-1.3 6.8-1.5 3.9-3.3 7.5-4 7.8-0.6 0.4-0.8 1.1-0.4 1.5 0.5 0.5 1.6 0.3 2.5-0.4 1-0.7 2.5-1.5 3.5-1.8 1-0.2 1.7-0.9 1.7-1.5 0-0.5 1.8-1.9 4-3 2.2-1.1 3.8-2.2 3.5-2.5-0.2-0.2-2.6 0.7-5.2 2.1-2.6 1.3-4.9 2.3-5 2.2-0.1-0.1 0.9-2.8 2.2-6 1.9-4.3 3.1-5.8 4.5-5.8 1.1 0 2.7 1.2 3.5 2.5 0.9 1.4 1.9 2.3 2.3 2.1 0.4-0.3 0.1-1.2-0.8-2.1-0.8-0.8-1.2-1.7-1-1.9 0.3-0.2 2.6-0.5 5.2-0.7 2.6-0.2 5-0.7 5.4-1.1 0.4-0.4-2.9-0.8-7.4-0.8-4.5 0-8.1-0.3-8.1-0.7 0-0.4 0.4-2.6 0.9-4.8 0.5-2.2 2.1-10.5 3.5-18.5 1.4-8.1 3.1-14.8 3.8-15.2 0.7-0.4 2.1-0.6 3.1-0.5 1.2 0.2 5 5.7 11.2 16.2 5.1 8.8 9.6 17.2 9.9 18.5 0.4 1.4 0.2 2.8-0.3 3-0.5 0.3-5.6 2-11.3 3.9-5.7 1.8-10.1 3.5-9.9 3.8 0.3 0.3 5.2-0.9 10.8-2.6 5.6-1.7 11-3 12-3 1.5 0 1.7-0.6 1-4.8-0.4-2.6-2.7-12.9-5.2-22.8-2.4-9.9-4.1-18.2-3.7-18.6 0.3-0.3 2.9-1.3 5.6-2.2 2.8-0.9 7.5-2 10.5-2.4l5.5-0.8-0.7-19c9.9-4.9 15.6-8.5 19.1-11.1 5-3.8 7-6.1 9.2-10.9 1.6-3.3 3.1-8 3.5-10.5 0.3-2.4 0.1-5.7-0.5-7.2-1-2.7-1.1-2.7-4.6-1.3-1.9 0.9-6.5 1.6-10.2 1.6-5.1 0-7.9-0.6-11.8-2.5-2.7-1.3-5.6-3.2-6.5-4.1-0.8-1-1.9-5.4-2.5-10.1-0.5-4.6-0.7-8.4-0.5-8.4 0.3 0 5.9 2 12.5 4.4 6.6 2.4 13.6 4.7 15.5 5.1 2.5 0.5 3.8 0.3 4.3-0.6 0.4-0.8 0.7-4.8 0.7-9.1 0-4.3 0.5-8.9 1-10.3 0.7-1.7 1.8-2.5 3.5-2.5 1.7 0 3.2 1 4.4 2.8 1 1.5 2.5 4.5 3.2 6.7 0.8 2.2 1.4 8.1 1.4 13 0 8.4-0.2 9.4-3 13.5l-3 4.4 0.5 41.6c-6.5 0.6-8.7 0.5-9 0.3-0.2-0.2-0.7-4.2-1-8.8-0.2-4.7-0.9-8.5-1.5-8.5-0.6 0-0.7 3.5-0.3 9.8 0.5 8.8 0.4 9.9-1.3 11-1 0.7-3 3.2-4.4 5.5-1.3 2.3-2.8 6.7-3.1 9.7-0.6 4.8-0.3 6.4 2 11.3 1.5 3.3 3.9 6.6 5.6 7.7l3 2v28.5c-2.9-6.2-5-8.7-6.8-9.7-1.7-1-4.8-1.8-6.9-1.9-2.1-0.1-5.3 0.4-7.3 1-1.9 0.5-4.9 2.6-6.7 4.6-2.8 3-3.3 4.3-3.3 8.8 0 3.6 0.6 6 1.8 7.7 1.1 1.4 3.9 3.4 6.3 4.4 3 1.2 5.7 1.6 8.4 1.2 2.2-0.3 5.6-1.6 7.5-2.8 2-1.3 4.3-3.9 5.3-5.8 1.7-3.3 1.7-1.2 1.8 56.5 0 33 0.3 68.5 0.7 78.7 0.7 18.2 0.7 18.7-1.3 19.4-1.1 0.3-4.2 1.6-6.9 2.8-2.7 1.2-7 4.2-9.5 6.6-2.5 2.5-5.9 7.2-7.6 10.5-2.6 5.4-2.9 7-2.9 15 0 7.6 0.4 9.9 2.7 14.5 1.5 3.3 4.8 7.6 7.9 10.5 3.7 3.4 7.2 5.6 10.9 6.8 3 1 6.7 1.8 8.2 1.8l2.7-0.1c0 71 0.4 96.3 0.8 102.2 0.4 5.9 1 10.5 1.2 10.4 0.3-0.2 0.9-5.7 1.3-12.2 0.4-6.5 1.5-14.8 2.3-18.4 0.9-3.5 2.8-8.6 4.3-11.3 1.4-2.7 4.7-6.9 7.1-9.3 2.5-2.5 7-5.7 10-7.2 4.8-2.3 6.8-2.7 14.5-2.7 7.7 0 9.9 0.4 14.5 2.7 3.1 1.4 7.3 4.3 9.4 6.5 2.2 2.1 5 6.1 6.3 8.8 1.2 2.8 2.6 7.7 3 11 0.5 4.7 0.2 7.6-1.5 13.3-1.5 5-3.6 9.2-6.9 13.4-2.8 3.8-7.4 8-11.3 10.6-3.5 2.4-10.1 5.5-14.5 6.9-6.8 2.2-10 2.7-22.5 2.9-7.9 0.1-12.9 0-11-0.3 2-0.2 4.6-1.2 5.8-2.1 1.3-0.9 2.5-1.4 2.8-1.2 0.3 0.3 2-0.8 3.9-2.5 1.9-1.6 3.3-3.2 3-3.5-0.2-0.2-1.2 0.2-2.1 1-0.9 0.9-2.8 1.5-4.3 1.5-1.7 0-2.9 0.8-3.6 2.3-0.6 1.6-1.5 2.2-2.7 1.8-1-0.3-2-0.1-2.3 0.4-0.2 0.6-1.2 0.9-2.2 0.8-1-0.1-2.1-0.7-2.5-1.3-0.4-0.6-0.7-0.5-0.7 0.3 0 0.7-1.3 1.2-2.8 1.2-1.5 0-4.8-1.3-7.3-3-2.4-1.7-4.8-3-5.2-3-0.4 0-0.5 0.7-0.3 1.5 0.3 0.9 1.2 1.5 2 1.5 0.9 0 1.3 0.5 1 1-0.2 0.6 0.3 1.1 1.3 1.1 1 0 2.4 0.5 3.2 1 1.1 0.8-0.2 0.9-5 0.4-3.5-0.3-7.8-0.8-9.5-1l-3-0.4c4.7 1.5 8.6 2.4 11.8 2.9 4.1 0.8 5.9 1.5 6.1 2.8 0.4 1.7 0.4 1.7 0.5 0 0.1-1.1 0.7-1.6 1.6-1.3 0.9 0.3 1.8 0.5 2 0.5 0.3 0 0.3 0.5 0 1-0.2 0.6 0 1 0.5 1 0.6 0 1-0.4 1-1 0-0.5 0.9-1 2-1 1.1 0 2.1 0.6 2.1 1.3 0 0.9 0.2 0.9 0.7 0.1 0.5-0.7 4.4-1.2 9.7-1.3 5-0.1 10.6-0.4 12.5-0.7 2-0.2 6.9-1.4 11-2.5 4.2-1.1 10-3.3 13-4.9 3.1-1.7 7.6-4.7 10-6.8 2.5-2.1 6.5-6.7 8.8-10.2 3.2-4.7 4.7-8.5 5.9-14 1.3-6.2 1.4-8.4 0.4-13.5-0.7-3.3-2.1-7.6-3.2-9.7-1-2.1-3.8-5.6-6.1-7.9-2.3-2.2-6.3-5.1-8.8-6.4-2.4-1.2-6.9-2.7-10-3.4-4-0.9-7-0.9-11.5-0.1-3.3 0.6-8.2 2.1-11 3.5-2.7 1.3-7 4.3-9.5 6.8-2.4 2.4-5.9 7.1-7.6 10.3-1.7 3.3-3.6 8.4-4.2 11.4-0.6 3.1-1.3 6.4-1.6 7.5-0.3 1.1-0.3-9.9 0-24.5 0.2-14.5 0.4-35 0.4-45.5v-19c7.4-1.1 11.8-2.8 14.5-4.3 2.8-1.6 7.1-5.1 9.5-7.8 2.4-2.7 5.4-6.9 6.5-9.4 1.6-3.5 2-6.5 2-14 0-7.4-0.4-10.4-2-14-1.1-2.4-4.1-6.6-6.5-9.3-2.4-2.7-6.6-6-9.2-7.3-2.6-1.3-5.3-2.4-6-2.4-1 0.1-1.4-7.8-2-33.7-0.4-18.6-0.8-51.5-0.9-73.3 0-21.7-0.4-45.5-0.8-53-0.6-12.1-0.7-12.6-0.9-5-0.2 4.7-0.2 31-0.2 58.5 0 27.5 0.4 62.5 0.8 77.8l0.7 27.8-10-0.1c-1.1-102.6-1.5-145.1-1.5-160.5v-28c9 0.7 9.5 1 9.2 2.9-0.2 1.2 0.3 3.4 1 5 0.7 1.5 2.2 3 3.3 3.3 1.1 0.3 3.4 0.6 5 0.6 1.7 0 4.4-0.7 6-1.5 1.7-0.8 3.8-2.7 4.8-4.1 1-1.5 1.7-3.8 1.7-5.2 0-1.5-1-3.2-2.7-4.5-1.5-1.1-3.3-2-4-2-0.7 0-1.1-0.3-1-0.7 0.2-0.4 1.4-3 2.7-5.8 1.7-3.7 2.2-6.2 1.9-10-0.2-3.4-1.4-6.7-3.4-10-2.2-3.8-4.3-5.6-8.5-7.7l-5.5-2.8c-1-12.8-1.3-21.9-1.4-28.5-0.1-11.1 0.1-12.2 2.3-15.5 1.4-1.9 2.7-4.6 3.1-6 0.6-2.1 1.2-2.4 4.1-2.2 2.6 0.2 3.7-0.2 4.4-1.8 0.6-1.1 1.4-4.6 1.8-7.8 0.6-4.6 1.5-6.8 4.5-10.5 2.1-2.5 3.3-4.7 2.7-4.7-0.5 0-2.5 2.1-4.5 4.5l-3.5 4.5c-1.5-7.7-3.3-13.4-4.9-17.7-2-5.4-4.4-9.4-7.7-13.1-3.9-4.3-5.9-5.6-10.4-6.9-3-0.8-6-1.7-6.7-1.9-0.9-0.2-1.3-2.8-1.3-8.1v-7.8c3.5 5.3 6.1 7.7 8 8.7 2 1 5.6 1.8 8 1.8 2.7 0 6.4-0.9 9-2.2 2.4-1.2 5.3-3.6 6.2-5.3 1-1.6 1.8-4.4 1.8-6.2 0-2.7-0.6-3.6-3.5-5.3-1.9-1.1-3.5-2.5-3.5-3.2 0-0.7 0.5-2.6 1.1-4.3 0.7-2 0.7-3.8 0-5.7-0.8-2.1-2.2-3.1-5.8-4.1-4.5-1.3-4.8-1.6-6.5-6.7-1-3-2.8-6.5-4-7.8-1.3-1.3-3.5-3-5-3.7-1.5-0.8-3.5-1.4-4.5-1.4-1 0-3.8 1.2-6.3 2.7-3.2 2-5.8 2.7-9.4 2.7-4.5 0-5.1 0.3-6.3 2.8-0.7 1.5-1 4.2-0.7 6 0.2 1.8 1.6 4.6 3 6.2 2.5 2.9 2.6 3.2 1.4 8-0.7 2.8-2.6 8.2-4.1 12-1.6 3.9-3.2 8.7-3.6 10.7l-0.8 3.7c-4.4-2.6-8-5.4-10.8-7.9-2.9-2.6-5.8-6.2-6.6-8-1-2.5-1.2-5.6-0.8-11 0.3-4.1 1.7-10.7 3.2-14.7 1.4-4 2.3-7.7 2-8.3-0.2-0.5-3-1.5-6.1-2.2-3.1-0.7-5.8-1.6-6-2-0.2-0.4 1.4-5.7 3.6-11.8 2.2-6 4-11.4 4-12 0-0.5-2.4-0.8-5.9-0.7-5.5 0.2-6 0.1-6.1-1.8 0-1.1 0.7-4 1.5-6.5 0.8-2.4 3.2-6.4 5.3-8.8 2.1-2.5 5.5-5.5 7.7-6.8 2.4-1.4 6.5-2.7 10-3 3.6-0.4 7.9-0.2 10.5 0.5 2.5 0.7 6.1 2.5 8 4 2 1.5 4.7 5 6 7.7 2 3.9 2.5 6.4 2.4 11.9 0 5.1-0.6 8.2-2.1 11-1.1 2.2-3.1 5-4.4 6.2-1.3 1.2-3.9 3.1-5.9 4.2-1.9 1.2-2.9 2.1-2.2 2.1 0.7 0 2.5-0.6 4-1.3 1.5-0.8 4.4-3.2 6.3-5.3 2-2.1 4.2-5.7 4.9-7.9 0.7-2.2 1.4-6 1.4-8.5 0.1-2.4-0.4-6.5-1.1-9-0.7-2.4-3-6.4-5-8.8-2.1-2.5-5.4-5.3-7.5-6.3-2.1-1-6.3-2.1-9.5-2.4-4.1-0.4-7.2 0-10.9 1.3zm-17.4 55.7c0-0.8 0.8-1.5 1.8-1.5 1 0 4.1 0.7 7 1.5 3.9 1.1 5.1 1.9 4.7 3-0.2 0.9-1 1.6-1.7 1.6-0.7 0-3.6-0.7-6.5-1.5-3.3-1-5.3-2.1-5.3-3.1zm-3.5 9.8c1-3.4 2.2-6.3 2.7-6.3 0.4 0 3.2 0.6 6.1 1.2 2.9 0.7 5.4 1.2 5.5 1.3 0.2 0-0.6 3.2-1.7 7-1.2 4-2.1 9.9-2.1 13.5 0 5.6 0.5 7.3 3 11.3 1.7 2.6 5.4 6.6 8.3 8.8 2.9 2.3 6.7 4.6 8.4 5.3 2.2 0.8 3 1.6 2.5 2.6-0.5 1.2-0.2 1.4 1.4 0.8 1.1-0.5 4-0.2 6.9 0.7 2.8 0.8 9.5 2.2 15 3.1 5.5 0.8 11.4 2.3 13 3.3 1.7 0.9 4.9 4.4 7.1 7.7 2.2 3.3 5 9.1 6.3 12.9 1.3 3.9 2.8 11 3.5 15.8 1 7.5 0.9 8.9-0.4 10.3-0.9 1.1-2.3 1.4-4 1.1-2.3-0.5-2.5-1-2.5-6.4-0.1-3.1-0.8-8-1.8-10.8-0.9-2.7-2.6-6.4-3.7-8.2-1.6-2.7-2.6-3.3-5.5-3.3-2.8 0-3.7 0.6-5 3-0.9 2-1.5 6-1.5 11.5 0 4.7-0.3 8.5-0.7 8.5-0.4 0-7.5-2.2-30.8-9.9l-1.2-9.8c-0.7-5.4-1.9-11.7-2.5-14.1-1.2-4.1-1.7-4.6-8.7-8-5.1-2.5-8.7-5.2-11.8-8.7-2.4-2.7-5.1-7.2-6.1-10-1.2-3.6-1.6-8.1-1.6-16.5 0.1-7.8 0.7-13.5 1.9-17.7zm41.6 11.7c0.1-2.4 0.5-3 1.8-2.6 0.9 0.3 4.5 1.3 8 2.3 3.6 1 6.6 2.3 6.9 2.8 0.2 0.6-0.5 4.3-1.7 8.3-1.9 6.7-2.5 7.6-7.8 11.9-3.2 2.5-7 5.2-8.5 6-2 1-3.3 1.1-4.8 0.3-1.1-0.5-2-1.7-2-2.7 0-1 1.8-6.6 4-12.5 2.2-5.9 4.1-12.1 4.1-13.8zm9.9 22.6c1.3-1.4 2.5-2.4 2.6-2.3 0.1 0.1 0.5 3.6 1.4 15.2l-5.2-0.8c-2.9-0.4-6.5-1.3-11-3.2l4.9-3.1c2.7-1.8 5.9-4.3 7.3-5.8zm-49 45.8c2.7-1.4 6.2-2.4 9-2.4 2.5 0 5.1 0.6 5.8 1.3 1 1 1.3 1 1.3 0 0-0.9 1-1.1 3.7-0.6 2.1 0.4 4.1 1.1 4.5 1.8 0.4 0.6 0.7 1.6 0.7 2.3 0 0.9-0.9 1-3.2 0.6-2.4-0.5-3-0.4-2.5 0.5 0.4 0.6 1.6 1.1 2.7 1.1 1 0 2.2 0.6 2.7 1.3 0.4 0.7 1 4.1 1.3 7.5 0.3 3.4 0.3 6.3 0 6.3-0.2 0-1-0.5-1.6-1.3-0.6-0.7-3.5-3.1-6.5-5.4-2.9-2.3-6.4-4.4-7.6-4.7-1.4-0.4-2.8-0.1-3.8 0.8-0.8 0.9-1.4 3.3-1.4 5.8 0 2.4 1.2 6.9 2.6 10.2 2.3 5.2 2.7 7.9 3.3 19.8 0.3 7.6 0.3 13.8 0 13.8-0.2 0-3.3-2.4-6.8-5.3-3.5-2.9-8.2-8-10.3-11.3-2.2-3.3-4.6-8.2-5.4-11-0.8-2.7-1.5-6.8-1.5-9 0.1-2.2 0.5-5.6 1.1-7.7 0.5-2.1 2.4-5.6 4.2-7.9 1.8-2.3 5.3-5.2 7.7-6.5zm30.8 47.8c-0.4-5-0.3-5.2 1.7-4.5 1.1 0.4 4.3 1.2 12 2.9l-6.5 3.7c-3.5 2-6.5 3.5-6.6 3.4 0-0.1-0.3-2.5-0.6-5.5zm-9.8 28.9c4.2-2.2 8.1-4 8.8-4 0.9 0 1.5 2 1.9 6.2 0.2 3.4 0.7 7.1 1 8.2 0.4 1.8-0.1 2.1-4.4 2.2-2.6 0.1-7.5 1.1-10.8 2.2-3.3 1.1-6.3 1.8-6.7 1.6-0.4-0.3-0.8-2.4-0.8-4.7 0-2.8 0.6-4.8 1.8-6 0.9-0.9 5.1-3.5 9.2-5.7zm-35.5 29.2c2.7-1 5-1.8 5.2-1.7 0.2 0.1-0.6 5.5-1.7 12.1-1.1 6.5-2.3 12.7-2.6 13.8-0.5 1.7-0.7 1.8-1.5 0.5-0.6-0.9-0.7 0.3-0.3 3.5 0.5 3.6 0.3 5.5-0.7 6.6-0.7 0.8-4 1.8-7.4 2.2-3.3 0.4-12.6 1.2-20.7 1.8-8.1 0.5-15.3 1.1-15.9 1.2-0.6 0.1-2-3.4-3.3-8.3-1.2-4.6-3.6-11.6-5.4-15.5-1.7-3.8-3.4-6.6-3.7-6.2-0.2 0.4 0.7 3.1 2.2 6 1.4 2.9 3.8 10 7.8 26.2l11-0.4-6 1.4c-3.3 0.8-7.5 2.1-13 4.4l-0.7-7.2c-0.4-3.9-1.6-10.8-2.8-15.2-1.2-4.4-3.7-11.3-5.6-15.5-3.4-7.3-3.5-7.4-1.2-6.7 1.3 0.5 10.7 1.1 20.8 1.4 13.9 0.4 21.3 0.2 29.5-1 6.1-0.8 13.3-2.4 16-3.4zm91.8 9.7c3-1.5 6.3-2.4 7.7-2.1 1.4 0.2 3.1 0.9 3.8 1.5 0.8 0.6 1.3 2.3 1.3 3.6 0 1.4-1 3.5-2.3 4.7-1.2 1.1-3.3 2.6-4.5 3.2-1.2 0.6-3.4 1.1-4.8 1.1-1.3 0-3.4-0.4-4.5-1-1.4-0.7-2-2-2-4.7 0-3.5 0.3-3.9 5.3-6.3zm-38.8 19.5c2.4-0.8 5.5-1.2 7.5-0.8 2 0.3 4.4 1 5.5 1.5 1.1 0.5 2.8 2.2 3.8 3.9 1 1.6 1.7 4.1 1.7 5.4 0 1.4-0.6 4.1-1.5 6-1.1 2.7-2.7 4.1-6.2 5.7-3.5 1.6-5.9 2-9.3 1.5-2.4-0.3-5.5-1.3-6.9-2.3-1.3-1-2.8-3.2-3.3-4.9-0.5-1.6-0.7-4.4-0.4-6.2 0.4-1.8 1.7-4.4 2.9-5.8 1.2-1.4 4-3.2 6.2-4zm-111.2-277.3c-1.1 1.9-4.7 5.8-7.9 8.8-3.3 3.1-8.5 6.7-11.9 8.2-3.3 1.4-9.4 3.4-13.7 4.2-4.3 0.9-9.3 1.6-11.3 1.6-1.9 0-3.7 0.5-4 1-0.2 0.6 0.6 1.1 1.8 1.1 1.2 0 6.3-0.7 11.2-1.6 6.2-1 11.5-2.7 17-5.4 4.4-2.2 10-5.9 12.4-8.2 2.4-2.4 5.6-6 7-8.1 1.5-2.1 2.4-4 2.1-4.3-0.3-0.3-1.5 0.9-2.7 2.7zm-351.9 23.3l-0.8 14c-0.9-13.1-0.8-18.4-0.4-20.2 0.5-1.8 0.5-3.4 0.1-3.7-0.4-0.2-1.1 1.2-1.5 3.3-0.4 2-0.8 5-0.9 6.6-0.1 1.7-0.5 0.1-0.9-3.5l-0.6-6.5-0.5 17-2.5-9c-1.2 4.9-0.7 10.4 0.6 17.5 1.2 6.4 1.9 11.7 1.6 11.8-0.3 0.1-1.5-0.2-2.6-0.8-1.1-0.5-2.2-0.7-2.5-0.5-0.2 0.3 1 1.3 2.8 2.1 2.7 1.3 3.4 1.4 4 0.3 0.4-0.9 0.7-0.3 0.7 1.4 0 1.9 0.9 3.3 2.8 4.5 1.5 1 4.6 1.7 7.2 1.7 2.5 0 6.3-0.9 8.5-2 2.2-1.1 5.1-3.5 6.3-5.5l2.3-3.5c0 7.8-0.8 12.7-1.6 16-0.9 3.3-2.5 7.3-3.5 8.8-1.1 1.5-2 3.1-2 3.5 0 0.4 0.9-0.2 2.1-1.3 1.1-1.1 3-4.4 4.2-7.5 1.9-4.8 2.1-7.1 1.9-20.5-0.1-8.2-0.6-17.2-1-20-0.9-4.8-0.9-4.7-1.2 3.5-0.2 8.3-0.2 8.4-1 3.5-0.5-2.7-1.1-7.7-1.4-11-0.3-3.3-0.6-6.4-0.7-7-0.1-0.5-0.5 1.5-0.9 4.5-0.4 3.1-0.9 11.8-1 19.5l-0.3 14c-1.1-24.8-1.4-34.2-1.5-37 0-2.7-0.4-4.6-0.9-4.1-0.4 0.4-0.8 2.7-0.8 5 0 2.3-0.2 9.8-0.4 16.6l-0.3 12.5c-1.4-22.4-2.2-30.8-2.6-33-0.7-3-1-0.1-1.2 12-0.1 11.3-0.4 14.9-1 12-0.4-2.2-1.1-9.5-1.4-16.2-0.3-7.3-0.9-12.3-1.5-12.3-0.6 0-1.1 3.3-1.2 7.8 0 4.3-0.4 11.6-0.8 16.2l-0.7 8.5c-0.4-17-0.7-24.2-1-27-0.3-2.7-0.7-5.2-0.9-5.5-0.2-0.2-0.7 5.8-1.1 13.5zm262.4-2c0.4 6.6 0.7 32.8 0.7 58.2 0 25.4 0.3 45.6 0.7 45 0.4-0.6 1.1 1.1 1.7 3.8 0.5 2.8 1.3 8 1.8 11.5 0.5 5 0.4 6.4-0.5 5.8-0.6-0.4-1.2-0.3-1.2 0.2 0 0.6 0.6 1.2 1.3 1.4 1 0.2 1 2 0 8.7-0.7 4.7-1.7 8.6-2.3 8.7-0.5 0.1-0.7 1-0.4 2 0.4 1-0.1 2.5-1 3.5-0.8 1-1.3 1.9-1 2 0.3 0.1-0.1 1.5-0.8 3-0.7 1.6-1.5 2.8-1.8 2.8-0.2 0-0.5 0.5-0.6 1.2-0.1 0.7-0.4 2.1-0.8 3.2-0.6 1.7-0.3 1.6 1.3-0.5 1.1-1.3 3-5 4.1-8.2 1.5-4.2 2.5-5.6 3.5-5.3 0.9 0.3 1.5-0.1 1.5-1 0-0.9-0.4-1.2-1.2-0.7-0.8 0.6-1 0-0.4-2.3 0.4-1.6 1.1-4.8 1.5-7.1 0.3-2.3 1-4 1.4-3.8 0.4 0.3 1 0 1.2-0.6 0.3-0.5-0.1-1.2-1-1.5-0.8-0.2-1.5-1.1-1.5-2 0-0.8 0.8-1.4 1.8-1.4 1.6 0 1.6-0.1-0.1-1.3-1.5-1-1.8-2.3-1.5-6.5 0.2-2.9 0.1-5.3-0.2-5.2-0.2 0-1.3-4-2.3-8.8-1.6-7.9-1.7-12.3-1.1-46.3 0.5-24.6 0.3-42.5-0.4-52.2-0.6-8.1-1.6-15.5-2.1-16.5q-1-1.7-0.3 10.2zm111.2 9.7c-0.7 0.7-1.3 1.7-1.2 2.3 0.1 0.6 0.7 1.6 1.5 2.3 1 1 1.7 0.9 3.7-0.6 2.3-1.7 2.4-2.1 1-3.6-0.8-0.9-1.9-1.6-2.5-1.6-0.6 0-1.7 0.6-2.5 1.2zm-434.1 3.1c-2 1.8-4.1 4.3-4.7 5.5-0.7 1.2-1.2 2.7-1.2 3.2 0 0.6 1.1 1 2.3 1 1.5 0 1.8-0.2 1-0.7-0.7-0.4-1.1-1.5-0.8-2.5 0.3-1 1.4-2 2.5-2.3 1.1-0.2 2-0.9 2-1.5 0-0.5 1.6-1.6 3.5-2.5 2-0.8 3.5-1.9 3.5-2.5 0-0.5-1-0.9-2.2-0.9-1.2 0-3.9 1.5-5.9 3.2zm306.1 0.2c0 1.1 1.7 10.4 3.7 20.5 2 10.2 4 20.3 4.5 22.5 0.5 2.2 1.1 3.8 1.4 3.5 0.2-0.2-0.5-5.6-1.5-12-1.1-6.3-3.1-16.9-4.5-23.5-1.4-6.6-2.8-12.2-3.1-12.5-0.3-0.2-0.5 0.4-0.5 1.5zm-322.1 7.3c-1 3.2-0.9 4.2 0.5 6.5 1.5 2.5 2.2 2.7 6.5 2.5 4.6-0.2 4.8-0.4 4.7-3 0-1.5-0.4-2.7-0.8-2.8-0.4 0-0.8 0.9-0.8 2 0 1.3-0.8 2.3-2.2 2.6-1.2 0.4-3.3 0-4.7-0.7-2.1-1.2-2.3-1.8-1.8-6.1 0.3-2.6 0.4-4.8 0.2-4.8-0.2 0-0.9 1.7-1.6 3.8zm305.3 23.2c-0.1 13.3-0.5 21-1.2 21-0.5 0-6.2-2-12.7-4.5-6.5-2.6-14.8-6.4-18.5-8.5-3.7-2.2-7-4-7.3-4-0.2 0-0.2 0.5 0 1 0.3 0.6 4.7 3.2 9.8 5.9 5.1 2.7 13.3 6.5 18.2 8.5 5 2 10.1 3.6 11.3 3.6h2.2c0.2-34.7-0.1-43.1-0.7-43.5-0.7-0.4-1.1 6.7-1.1 20.5zm291.9-10.7c0 1 1.4 4.6 3.1 8 1.7 3.4 4.9 8.9 7.1 12.2 2.2 3.3 7.4 9.5 11.6 13.8 4.2 4.3 8.1 7.8 8.6 7.8 0.6 0-2.6-3.7-7.1-8.3-4.4-4.5-10.3-11.6-12.9-15.8-2.7-4.1-6.1-10.2-7.6-13.5-1.5-3.3-2.8-5.2-2.8-4.2zm-119.4 18.5c-0.3 2.1-0.9 6.2-1.2 9.2-0.4 3.1-0.3 8.9 0.1 13l0.9 7.5c1-20.1 1.6-27.6 1.9-29.7 0.3-2.1 0.2-3.8-0.3-3.8-0.5 0-1.1 1.7-1.4 3.8zm-252.2-1c2.1 1.1 6 1.7 12 1.9l9 0.2c-10.8-1.2-15.8-2.1-18-2.7-2.2-0.6-4.4-1.1-5-1.1-0.5 0 0.4 0.8 2 1.7zm-3.5 5.6c0.3 0.3 5.3 2.4 11 4.7 5.8 2.3 12.6 5 15 6 2.5 0.9 6.9 2.5 9.8 3.3 3.1 1 5.2 1.2 5.2 0.6 0-0.5-1.9-1.5-4.2-2.1-2.3-0.6-11.1-3.7-19.5-7-8.4-3.2-15.8-5.9-16.5-5.9-0.7 0-1 0.2-0.8 0.4zm214.6 5.7c-2 1.5-2.7 2.9-2.6 5 0 1.6 0.7 3.6 1.5 4.4 0.9 0.9 3.1 1.5 5 1.5 2.2 0 4.3-0.7 5.5-2 1.1-1.1 2.1-2.5 2.2-3.2 0-0.7 0-1.9-0.1-2.8-0.1-0.8-1-2.3-1.9-3.2-0.9-1-2.8-1.8-4.2-1.8-1.5 0-3.9 1-5.4 2.1zm0 1.7c1.2-1.2 2.9-1.8 5.3-1.6 1.9 0.2 3.9 1.1 4.5 2 0.9 1.3 0.8 2.4-0.4 4.3-0.8 1.4-2.6 2.8-4 3.1-1.4 0.3-3.4-0.2-4.7-1-1.2-0.9-2.3-2.3-2.4-3.2-0.1-0.9 0.6-2.5 1.7-3.6zm-104.9 2.7c0.3 2.8 1.6 10.4 3 17 1.3 6.6 2.8 13.4 3.4 15l0.9 3c-0.5-4.6-1.9-12.7-3.4-21-1.5-8.2-3.1-15.9-3.6-17q-0.9-2-0.3 3zm-95.7 11.7c-3.5 0.5-6.6 1.1-6.9 1.4-0.2 0.2 2.1 0.5 5 0.5h5.4c-6.2 5.4-7.4 7-6.7 7 0.7 0 3-1.5 5.1-3.3 2.2-1.8 4.3-4 4.9-5 0.5-1 0.7-1.7 0.3-1.6-0.3 0-3.5 0.5-7.1 1zm396.6 0.7c0.2 0.6 3.7 2.7 7.7 4.7 4 1.9 7.9 3.4 8.7 3.4 0.9 0-2.3-1.9-7-4.2-4.6-2.3-8.8-4.3-9.2-4.6-0.3-0.2-0.5 0.1-0.2 0.7zm-149.6 6c-3.5 2.1-10.5 6.4-15.5 9.6-4.9 3.2-11.3 7.5-14.2 9.7l-5.3 3.8c-3.8-3.8-7.1-5.9-9.7-7.1-3.5-1.6-6.8-2.1-12.3-2.2-4.1 0-9.9 0.7-13 1.6-3 0.9-7.4 3.1-9.9 4.9-2.4 1.8-5.3 4.6-6.5 6.2-1.5 2.1-2.1 4.7-2.4 10-0.3 5.5 0 8.2 1.6 11.6 1 2.5 3.2 6.1 4.8 7.9 1.6 1.9 4.9 4.5 7.2 5.8 2.3 1.3 5 2.2 6 2 1.1-0.1 0.1-1-2.8-2.3-2.4-1.1-6.2-4-8.4-6.4-2.1-2.5-4.5-6-5.3-8-0.8-1.9-1.4-5.9-1.5-9 0-3.3 0.7-7 1.9-9.4 1-2.2 3.6-5.2 5.8-6.8 2.2-1.5 6.1-3.4 8.5-4.2 2.5-0.8 6.6-1.7 9-2 2.5-0.4 7.5-0.1 11 0.6 3.6 0.7 7.9 2.2 9.5 3.3 1.6 1.1 3.4 2.9 4 3.9 0.9 1.5 0.2 2.6-5 7.4-3.3 3.1-8.7 7.4-12 9.5-3.3 2.1-8.6 4.8-11.8 6-3.7 1.5-5.7 2.7-5.5 3.7 0.2 0.7 2.4 2.5 4.8 3.8 3.7 2 5.6 2.3 10 2 3.1-0.3 7.7-1.5 10.4-2.9 2.7-1.3 6.5-4.2 8.5-6.4 2-2.3 4.8-5.7 6.3-7.5 1.7-2.3 6.6-5.6 14.8-10 6.8-3.5 14.3-8.3 16.8-10.5 2.5-2.2 5.7-6.6 7.4-10 1.6-3.3 2.9-7.4 2.9-9.2 0-2.4-0.5-3.3-1.8-3.3-1 0-4.7 1.8-8.3 3.9zm-3 3.9c5.3-3.2 9.9-5.8 10.3-5.8 0.4 0 0.7 1.1 0.7 2.3 0 1.2-1 4.5-2.3 7.2-1.3 2.8-3.9 6.6-5.8 8.5-2 2-6.5 5.1-10 7-3.5 1.9-9.7 5.4-13.9 7.8-4.1 2.3-7.5 4.2-7.5 4-0.1-0.1-0.6-2.5-1.2-5.3-0.9-4.5-0.8-5.1 1.1-6.7 1.2-1 6-4.3 10.6-7.5 4.7-3.1 12.8-8.3 18-11.5zm-32.5 22.2l1.2 2.8c0.7 1.5 1.3 4.1 1.3 5.7 0 1.8-1.2 4.6-2.7 6.6-1.5 2-4.1 4.8-5.8 6.2-1.6 1.4-5 3.5-7.5 4.6-2.6 1.2-6.6 2.1-9.5 2.1-3.3 0-6.1-0.7-12-4.2l6.5-2.4c3.6-1.3 8.8-3.9 11.5-5.8 2.8-1.9 7.7-6.2 11-9.6zm154.2-27.6c-2.2 1.2-5.3 4.2-7 6.6-2.7 3.7-3.2 5.3-3.4 11.5-0.3 5.9 0.1 7.8 2 11.1 1.2 2.1 3.8 4.8 5.8 5.9 2.1 1.2 5.2 1.9 8 1.9 2.4-0.1 5.7-0.6 7.2-1.2 1.5-0.6 4.6-2.8 6.9-4.8 2.2-2.1 4.9-5.5 6-7.5 1-2.1 1.9-4.9 1.9-6.3 0-1.3-0.7-4.2-1.6-6.2-0.9-2.1-2.2-4.6-3.1-5.5-0.8-1-1.9-1.8-2.4-1.8-0.5 0 0.2 1.4 1.6 3 1.3 1.7 2.7 4.7 3.1 6.8 0.3 2 0.3 5.2 0 7-0.4 1.8-1.9 4.3-3.4 5.5-1.5 1.3-3.9 2.7-5.2 3.2-2.3 0.7-2.3 0.9-0.7 1.4 1.7 0.6 1.6 0.8-1 2.5-1.5 1.1-4.6 2.2-6.8 2.4-2.7 0.3-5.6-0.2-8.5-1.5-3.4-1.4-5-2.9-6.5-5.8-1.1-2.4-1.9-6.1-1.9-9.5 0-4.1 0.7-6.6 2.7-10.1 1.5-2.6 4.2-5.6 5.9-6.7 1.9-1.2 5-2.1 7.3-2.1 2.3-0.1 5.1 0.4 6.3 0.9 1.2 0.6 2.4 0.8 2.7 0.5 0.2-0.2-0.9-1.1-2.5-2-1.7-0.8-4.5-1.5-6.3-1.5-1.8 0.1-5 1.1-7.1 2.3zm-724.1 11.6c-2.2 1-5.2 3.1-6.5 4.6-2 2.1-2.5 3.8-2.5 7.6 0 3.3 0.5 5.4 1.7 6.6 1.1 1.2 1.8 1.4 1.8 0.6 0-0.7-0.5-1.5-1-1.8-0.6-0.2-1-2.3-1-4.5 0-2.2 0.4-5 1-6.2 0.5-1.3 2.7-3.3 4.7-4.5 2.6-1.5 5.4-2.2 9.3-2.2 3.5 0 6.4 0.6 8.1 1.7 1.5 0.9 3.4 2.6 4.3 3.7 0.8 1.1 1.5 3.7 1.5 5.8 0 2-0.6 5.1-1.4 6.7-0.9 1.7-2.9 3.7-4.5 4.5-1.7 0.9-5.3 1.5-8 1.5-2.8 0-6.4-0.6-8-1.5-1.7-0.8-3.4-1.2-3.8-1-0.4 0.3 1.3 1.4 3.8 2.5 2.4 1.1 6.3 2 8.5 2 2.2 0 5.5-0.8 7.5-1.8 1.9-1 4.5-3.4 5.7-5.3 1.4-1.9 2.3-4.8 2.3-6.9 0-1.9-1-4.9-2-6.7-1.2-1.8-3.9-4.1-6.3-5.2-2.3-1.1-5.8-2-7.7-2-2 0-5.3 0.8-7.5 1.8zm720.4 14.6c0 0.6 0.8 1.8 1.8 2.7 1 0.9 3.1 2.2 4.8 2.8 1.8 0.7 4.5 0.9 7 0.4 3.9-0.8 3.9-0.8-2.2-1.3-4.7-0.4-6.8-1.1-8.8-3.1-1.4-1.3-2.6-2-2.6-1.5zm-124 10c-0.3 0.3-3.4 1-6.9 1.6-3.6 0.6-7.2 1.5-8 2-1 0.6 0.1 0.7 3 0.3 3.8-0.5 4.8-0.2 6.5 1.6 1.7 2 1.9 3.6 1.9 13.4-0.1 9.5-0.5 12.2-2.7 18.1-1.5 3.9-2.4 7.1-2.2 7.3 0.3 0.1 1.1-1 1.9-2.5 0.7-1.5 2.3-6.1 3.5-10.3 1.1-4.1 2.1-10.3 2.1-13.7 0-3.5-0.7-8.1-1.5-10.3-0.9-2.2-2.1-4-2.8-4-0.7-0.1 1.2-0.9 4.3-1.9 3-1 4.5-1.9 3.4-2-1.2 0-2.3 0.1-2.5 0.4zm-20 10.4c-0.3 4.1-1.2 7-3.2 9.9-1.8 2.7-4.8 5.4-8.5 7.4-3.2 1.8-5.2 3.4-4.5 3.5 0.7 0.2 2.9-0.5 5-1.5 2.1-1.1 5.5-3.9 7.5-6.3 2.1-2.4 4.3-5.9 4.8-7.9 0.5-1.9 1-4.9 1.1-6.7 0-1.7-0.4-3.4-0.9-3.7-0.5-0.3-1.1 2.1-1.3 5.3zm-440.3 14.1c0.5 4.2 0.2 6.6-1.3 10-1.1 2.5-3.3 5.5-4.9 6.6-1.6 1.2-4.5 2.7-6.4 3.3-2 0.6-5.6 1.2-8 1.2-2.5 0-6-0.5-7.8-1.1-2.5-0.7-3.8-2.2-5.7-6-2.3-4.4-3.3-5.4-9.8-8.5-5.5-2.7-8.5-3.5-12.5-3.5-2.9 0-7.6 0.9-10.5 2-3.4 1.2-6.8 3.6-9.9 6.7-3.2 3.4-5.1 6.5-6.2 10.3-0.9 3.1-1.7 6.4-1.7 7.5 0 1.1 0.7 4.3 1.5 7 0.9 2.8 3 6.5 4.8 8.3 1.8 1.8 5.6 4.2 8.5 5.3 2.9 1 6.9 1.9 9 1.9 2.1 0 6-0.6 8.8-1.4 2.7-0.8 6.8-2.8 9-4.3 2.2-1.6 5.4-5.1 7.2-7.8 2.1-3.1 3.7-7.2 4.3-10.7 0.9-5.5 1-5.7 3.2-4.6 1.2 0.6 4.7 1.1 7.8 1.1 3.2 0 7.3-0.8 10-2 2.4-1.1 5.9-3.5 7.7-5.4 1.8-1.8 3.8-4.9 4.3-6.9 0.5-1.9 0.9-4.6 0.9-6 0-1.3-0.7-3.8-1.4-5.5-1.4-2.9-1.4-2.8-0.9 2.5zm-65.1 5.5c2.4-0.9 6.3-1.3 10-1.1 4.1 0.3 7.7 1.3 11.6 3.2 4.5 2.4 6.1 3.8 7.9 7.4 1.8 3.8 2.1 5.6 1.6 10.5-0.5 4.8-1.4 7.1-4.4 11.4-2 3-5.5 6.4-7.7 7.7-2.2 1.3-6.3 2.8-9 3.4-3.7 0.8-6.4 0.8-10 0-2.8-0.6-6.7-2.2-8.8-3.5-2.1-1.4-4.6-4.3-5.7-6.5-1.4-2.6-2-5.9-2-9.7 0-4 0.7-7.2 2.2-10.2 1.2-2.4 4.1-5.9 6.3-7.8 2.2-1.8 5.8-4 8-4.8zm123-4c-1.4 1.3-2.5 3.1-2.5 4 0 0.8 0.2 2.2 0.5 3 0.2 0.9 0.9 1.5 1.5 1.5q1 0 0-2c-0.8-1.4-0.6-2.6 0.5-4.5 1.1-1.8 2.3-2.5 4.7-2.5 1.8 0.1 3.8 0.4 4.4 0.8 0.6 0.4 1.6 1.7 2.2 3 0.8 1.5 0.9 3.1 0.2 5-0.6 1.5-2 3.3-3.3 3.9-1.2 0.7-2.9 1.4-3.7 1.7-0.9 0.3-0.2 0.5 1.5 0.6 2 0 3.8-0.8 5.5-2.5 1.6-1.7 2.5-3.8 2.5-6 0-2.2-0.9-4.2-2.5-5.9-1.8-1.8-3.6-2.6-5.8-2.6-2.2 0-4.2 0.9-5.7 2.5zm23.7 16.2c-1.8 0.9-4.4 3.3-5.7 5.3-1.4 1.9-3.2 6.5-4 10-0.9 3.6-2.2 7.5-3 8.8-0.9 1.2-2.6 2.8-3.8 3.4-1.2 0.6-4.3 1.7-6.7 2.4l-4.5 1.3c5.8 0.1 9.1-0.7 11.1-1.6 2-1 4.5-3 5.5-4.5l1.9-2.8c6.5 5.6 7.8 6 12.7 6.1 4.3 0 6.6-0.6 9.2-2.3 1.9-1.2 4.3-3.8 5.4-5.8 1.3-2.2 2-5.1 1.9-8-0.1-2.4-1-5.8-2-7.4-0.9-1.5-3.3-3.7-5.2-4.7-2-1-4.9-1.9-6.5-1.8-1.7 0-4.5 0.7-6.3 1.6zm-0.3 1.9c1.4-0.8 3.8-1.5 5.3-1.5 1.5 0 4.4 0.8 6.5 1.8 2.4 1.2 4.3 3.1 5.2 5.2 0.8 1.9 1.4 4.8 1.4 6.4-0.1 1.7-0.8 4.5-1.7 6.3-1 2-3.2 4-5.9 5.2-2.3 1.1-4.9 2-5.7 2-0.9 0-3.2-0.4-5.3-1-3-0.8-4.2-1.8-5.8-5.2-1.6-3.2-2-5.2-1.5-7.8 0.4-1.9 1.7-4.9 2.9-6.7 1.2-1.8 3.3-3.9 4.6-4.7zm234.9 4.7c-1.4 1.8-6.3 7-10.9 11.7-4.7 4.6-14.4 13.5-21.7 19.7-7.3 6.2-13 11.6-12.7 11.8 0.2 0.3 6.2-4.3 13.2-10.2 7-5.9 16.6-14.6 21.3-19.3 4.7-4.6 9.9-10.2 11.5-12.2 1.6-2.1 2.7-4 2.4-4.3-0.3-0.3-1.7 1-3.1 2.8zm61.9 3c-0.4 1.5-1.8 3.2-3 3.7-2.1 0.8-2.1 0.9-0.2 1.1 1.7 0.1 1.6 0.3-0.5 1-2.1 0.7-1.8 0.8 1.2 0.4 2.4-0.3 4.1 0 4.7 0.8 0.5 0.7 1.1 2.6 1.4 4.2 0.3 2.3 0.4 2 0.3-0.9-0.1-3.1-0.7-4.3-2.3-5-1.6-0.8-1.9-1.5-1.3-2.8 0.5-1 0.8-2.6 0.7-3.5-0.2-1.2-0.6-0.9-1 1zm-199.5 0.7c-1.2 0.5-3.3 2.2-4.7 3.9-1.4 1.7-3 4.9-3.5 7.1-0.7 2.6-0.7 5.4-0.1 7.8 0.5 2.3 2.4 5.1 4.7 7.2 2.4 2.3 4.3 5.2 5.1 8 0.7 2.5 1.3 5.3 1.3 6.3 0 0.9-0.9 2-2 2.2-1.1 0.3-2.9 2.2-3.9 4.3-1 2-2.6 6-3.5 8.7-0.8 2.8-2.5 6.3-3.6 7.8-1.1 1.5-3.3 3.5-4.8 4.3-2.5 1.5-3.8 1.5-10.8 0.4-6.1-1-8.6-1.8-10.7-3.9-1.6-1.4-4.9-5.6-7.5-9.3-2.6-3.7-5.1-6.7-5.5-6.8-0.4 0-0.7 0.4-0.7 0.8 0 0.4 3.6 5.5 8 11.2l8 10.5c-5.8 0.4-8.1 0-8.8-0.7-0.8-0.7-1.3-0.8-1.3-0.3 0 0.6 0.9 2.3 2 3.8 1.1 1.5 3.5 3.5 5.3 4.4 1.8 0.9 6.2 2.5 9.8 3.5 3.5 1 8.6 1.8 11.2 1.8 2.6 0 6-0.4 7.5-1 1.5-0.6 4-2.3 5.4-3.8l2.7-2.7c0.9 6.2 1.2 9.7 1.4 11.8 0.2 2.5-0.3 4.2-1.2 4.9-1.2 0.8-1 0.9 1 0.4 2.4-0.5 2.4-0.5 1.7 3.2-0.5 2-1 4.4-1.3 5.2-0.2 0.9-2 2.3-3.9 3.3-2 0.9-6.7 2.3-10.6 3-4.5 0.8-6.4 1.5-5.2 1.9 1.3 0.5 0.9 0.7-1.2 0.7-1.8 0.1-5.6 1.7-9 3.9-3.3 2.2-8 5.9-10.4 8.3-2.4 2.4-5.4 6.5-6.6 8.9-1.3 2.5-2.9 7-3.7 10-1 4.2-1.3 12.5-1.1 35.3l0.3 29.7c-14.4 8.9-21.2 13.2-24.5 15.5l-6 4c18.6 0.8 34.3 0.7 47 0.2 12.6-0.4 24.3-1.2 26-1.7 1.8-0.5-6.2-0.8-21.5-0.8-13.5 0-27.4-0.1-30.8-0.1-3.4 0-6.2-0.3-6.2-0.6 0-0.2 4.7-3.4 10.5-7 7.3-4.5 10.6-7.1 10.9-8.7 0.2-1.3 1.4-7 2.6-12.8 1.1-5.7 3.9-17.7 6.1-26.5 2.2-8.8 5-18.2 6.2-20.9 1.2-2.7 3.8-6.4 5.9-8.2 2.1-1.9 6.3-4.5 9.5-5.9 3.2-1.4 5.9-2.5 6-2.5 0.1 0-1.1 1.9-2.7 4.3-1.7 2.3-3.7 7.2-4.7 10.7-1.1 4.7-1.4 8.7-1 14 0.3 4.2 1.5 10.8 2.6 14.8 1.1 4 4.1 12.9 6.6 19.7 2.4 6.9 4.3 12.7 4.2 13-0.1 0.3-5.4 1.2-11.7 2.1-6.4 0.9-12 2-12.5 2.5-0.6 0.6 0.4 0.9 2.5 0.9 1.9 0 6.8-0.5 11-1 4.1-0.5 7.5-0.8 7.7-0.7 0.1 0.1-4 2-9 4.1-5.1 2.2-9.7 4.3-10.2 4.8-0.6 0.5-0.5 0.8 0.3 0.8 0.6 0 6.7-2.2 13.4-4.8 6.7-2.7 12.9-5.1 13.8-5.4 1.3-0.5 1.2-2.8-0.8-19.4-1.3-10.4-2.2-22.7-2-27.5 0.2-8.3 0.4-8.8 4.1-13.5 2.1-2.7 6.8-7.2 10.5-10.1l6.7-5.3c0.4 7.4 1.1 26.4 1.8 47 0.7 20.7 0.9 38.3 0.5 39.3-0.5 0.9-3 2.4-5.6 3.2-4.7 1.5-4.7 1.5-1 1.3 2.9-0.2 4.1 0.2 5.2 2 1.2 1.7 2.4 2.2 4.8 2 2.3-0.2 3.6-1 4.7-2.9 1.4-2.4 1.4-2.9 0.1-4.4-1.2-1.3-1.5-4-1.4-10.4 0.2-8.2 0.3-8.6 2.5-8.8 1.3-0.1 7.6-0.3 14.1-0.5l11.8-0.3c0 12 0.4 15.8 1 16 0.6 0.3 0.9-3.2 0.9-9.7 0-5.7-0.6-30.7-1.4-55.8-0.8-25-1.5-49-1.5-53.2 0-7.2 0.1-7.8 2.2-8.4 1.2-0.3 4.6-1.9 7.5-3.5 2.9-1.6 5.1-3.1 5-3.4-0.1-0.3-3.4 1.1-7.2 3.1l-7 3.6c-0.9-8.3-1-10.9-0.9-11.2 0.1-0.2 4.5-0.4 9.8-0.2 5.9 0.1 9.4 0.6 9.1 1.2-0.3 0.6-0.4 1-0.3 1.1 0.1 0 2.5-1.3 5.3-2.8 2.8-1.5 7-4.9 9.5-7.6 2.4-2.6 4-4.7 3.5-4.7-0.6 0-3.1 2.1-5.5 4.5-3.9 3.9-5.4 4.7-10.5 5.5-3.3 0.6-9.5 1-13.8 1-6.7 0-7.7-0.2-7.8-1.7 0-1 1.1-2.9 2.5-4.3 1.4-1.3 2.3-2.7 2.1-3-0.3-0.2-1.5 0.4-2.7 1.5-1.2 1.1-2.3 1.6-2.5 1-0.2-0.5-1.3-2.4-2.3-4.2-1.1-1.8-3.8-4.4-6-5.8-2.2-1.3-5.3-4.4-6.9-6.7-1.6-2.4-4.5-5.7-6.5-7.5-2.4-2.2-4.7-3.3-6.6-3.3-1.8 0-3.2 0.6-3.5 1.5-0.3 0.9-0.5 2.9-0.5 4.5 0 1.7-0.6 3.1-1.3 3.1-0.7 0-4.3 0.3-7.9 0.7l-6.7 0.7c-1-7.7-1.1-10.1-1-10.2 0.2-0.1 3.7-0.6 7.9-1 6.4-0.7 7.5-1.1 7.7-2.8 0.3-1.8 1.1-2 9.2-2 4.9 0 9.2-0.2 9.6-0.5 0.3-0.2 0.3-1.8-0.1-3.5-0.4-1.8-2.8-4.9-6.2-8-3.1-2.8-6.6-7.3-8.2-10.5-1.5-3-4.1-7-5.7-8.9-1.6-1.8-4.5-4.2-6.6-5.2-2.1-1-5.4-1.8-7.5-1.8-2.1 0-4.7 0.4-6 0.9zm2.2 29.8c-0.6-1.4-0.2-1.8 1.9-1.8 1.5 0 5.6 1.7 9.1 3.8 4.9 2.8 6.5 4.3 6.5 6 0 1.2-0.6 2.5-1.4 2.7-0.9 0.3-4.1 0.5-13 0.6l-1.2-4.8c-0.7-2.6-1.5-5.6-1.9-6.5zm26.8 32.3c2.4-1.2 6.4-2 9.3-2 3.2-0.1 6.1 0.6 8.2 1.9 1.8 1.1 4.2 3.9 5.5 6.3 1.9 3.8 2.2 5.9 2.3 19.7 0.1 8.6 0 13.7-0.6 7.5l-13.5 0.5c-12.3 0.5-13.5 0.4-13.4-1.2 0-1.6 1.2-1.8 26-1.8l-0.6-8.2c-0.3-4.6-0.8-9.3-1-10.5-0.2-1.3-1.1-2.3-1.9-2.3-1 0-1.4-0.6-1-1.7 0.3-1-0.2-2.8-1-4-0.9-1.3-2.8-2.7-4.3-3.3-1.6-0.7-4.8-0.8-7.7-0.4-3.7 0.5-5.8 1.5-10.5 6.4v20.3c0 11.1 0.4 32.8 0.9 48.2 0.6 20.8 0.6 28.2-0.3 28.8-0.9 0.5-0.8 0.9 0 1.5 0.9 0.5 1.5 8.3 2 26 0.8 22.1 0.7 25.2-0.6 25.2-1.3 0-1.8-9-3.5-67.7-1.1-37.3-1.9-70.7-1.9-74.3 0-3.9 0.7-7.7 1.7-9.7 1-2.1 3.2-4 5.9-5.2zm3.8 13.9h8.5l-0.5 12h-8v-6zm-20.2 9.9c3.1-2 5.8-3.7 5.9-3.8 0.1 0 0.3 2.7 0.3 12.4l-6.8 3.3c-3.7 1.8-6.8 3.2-6.9 3-0.1-0.1 0.3-2.7 0.8-5.8 0.9-5.2 1.2-5.6 6.7-9.1zm36.2 17.4c0.7-3.7 1.7-6.3 2.4-6.3 0.9 0 1.3 3 1.4 11.3 0.1 6.2 0.4 13.6 0.7 16.5 0.3 3.2 0.9 5.2 1.7 5.2q1.3 0.1-0.2 1c-0.9 0.6-7.3 1-14.3 1-10.7 0-12.7-0.2-12.7-1.5q0-1.5 3-1.5c2 0 4.2-1.1 7-3.7 2.3-2.1 5.4-6.5 7-9.8 1.6-3.3 3.4-8.8 4-12.2zm-8.3 30.4c7-0.1 12.9-0.3 13-0.5 0.1-0.1 0.3 6.9 0.2 31.3l-24.4 0.4-0.8-5.2c-0.4-2.8-0.7-9.8-0.7-25.7zm-7.3 33c2.8-0.2 8.7-0.4 13.3-0.5 6.5-0.1 8.3 0.1 8.7 1.3 0.3 0.8-0.2 1.7-1 2-0.8 0.3-6.2 0.5-12 0.5-7.7 0-10.5 0.3-10.5 1.3 0 0.9 2.7 1.1 23 0.2v12.8c0 10 0.3 13 1.5 14.2 1.3 1.3-0.1 1.5-26.5 1.5l-0.1-3.2c-0.1-1.8-0.4-9.2-1.4-29.7zm-10.4 55.5c0.6-0.7 2.2-1.2 3.5-1.2 1.3 0 2.6 0.6 2.9 1.5 0.3 0.8 0.3 2.1 0 3-0.3 0.9-1.7 1.5-3.5 1.5q-3 0-3.5-1.8c-0.3-0.9 0-2.3 0.6-3zm207-217c0 0.7 2.2 5.5 4.9 10.8 2.7 5.2 4.9 9.1 5 8.7 0-0.4-1.4-4.7-3.1-9.5-1.7-4.8-3.6-9.3-4.2-10-0.7-0.7-1.5-1.3-1.9-1.3-0.5 0.1-0.8 0.6-0.7 1.3zm-296.8 15c0.4 7.3 1 13.5 1.2 13.8 0.3 0.2 0.7 0.2 0.9 0 0.1-0.3-0.1-3.9-0.5-8-0.4-4.2-0.8-10.1-0.8-13.3-0.1-3.1-0.4-5.7-0.8-5.7-0.5 0-0.4 5.9 0 13.2zm219.1-11c-0.3 0.7-0.4 2.2-0.2 3.3 0.2 1.4 1.1 2 3.3 2 2.1 0 3.1-0.6 3.2-1.8 0.2-0.9-0.3-2.4-0.9-3.3-0.7-0.8-2.1-1.5-3.1-1.5-0.9 0.1-2 0.6-2.3 1.3zm44.6 7.9c-2 1.1-4.5 3.4-5.8 5.2-1.2 1.7-2.2 4.2-2.2 5.4 0 1.3 0.9 3.2 2 4.3 1.6 1.5 1.8 2.4 1 4-0.5 1.1-0.8 2.5-0.7 3.2 0.2 0.7 1-0.4 1.8-2.5 0.9-2.4 2-3.8 3.2-3.7 0.9 0 1.5-0.4 1.3-0.8-0.3-0.4-1.6-0.6-3-0.5-1.8 0.2-2.9-0.4-3.6-1.7-0.7-1.5-0.5-3 0.8-5.8 1-2.3 3-4.4 5.2-5.5 1.9-1 3.9-2.2 4.5-2.7 0.6-0.7 0.6-1 0-1-0.6 0-2.6 1-4.5 2.1zm-385.6 9.3c-2.8 1.5-6.3 4.3-7.7 6.4-1.5 2-2.7 4.1-2.7 4.7 0 0.5-1.8-0.7-4-2.8-2.2-2-5.7-4.2-7.7-4.7-2.1-0.6-4.9-1-6.3-1-1.4-0.1-4.5 0.6-7 1.5-2.5 0.9-5.8 2.6-7.5 3.8-1.6 1.3-4.2 4.8-5.8 7.7-1.9 3.8-2.7 7-2.7 10.5 0 3.2 0.8 6.5 2.2 9.4 1.3 2.4 3.9 5.6 5.8 7.2 1.9 1.6 5.3 3.2 7.5 3.6 2.5 0.4 3.8 0.3 3.4-0.3-0.4-0.5-2.2-1.3-4-1.7-1.9-0.5-5-2.5-7.1-4.8-2.2-2.3-4.3-5.7-4.9-8.2-0.8-3.2-0.8-5.6 0.2-9.7 0.8-3.8 2.3-6.7 4.8-9.4 2-2.1 4.8-4.5 6.4-5.2 1.5-0.8 5.3-1.4 8.5-1.4q5.7 0 9.2 2c1.9 1.1 4.5 3.7 5.7 5.7 1.2 2.1 2.4 5.3 2.8 7.3 0.5 2.2 0.1 5.6-0.9 9.2-1 3.7-2.7 6.9-4.7 8.8-2.1 2.1-2.6 3-1.5 3 0.9 0 3.1-1.8 4.9-4l3.2-4c3.3 5 6.1 7.7 8.4 9.2 2.2 1.5 6.1 3.3 8.6 4 3.6 1 5.4 1 9.3 0 2.6-0.8 6.2-2.5 8-3.8 1.7-1.3 4.6-4.8 6.2-7.7 2.5-4.4 3-6.3 3-12 0-3.7-0.6-8.2-1.3-10-0.8-1.8-2.9-5-4.8-7.1-1.9-2.1-5.2-4.8-7.4-5.9-2.2-1.1-6.5-2.2-9.5-2.4-4.5-0.4-6.4 0-10.6 2.1zm3.1 1.1c2.6-1 5.6-1.3 8.5-0.9 2.5 0.3 6.1 1.4 8 2.3 1.9 1 4.8 3.3 6.4 5.2 1.6 1.8 3.5 4.8 4.3 6.6 0.7 1.8 1.3 5.6 1.3 8.5q0 5.3-2.5 10.5c-1.5 3.1-4 6.4-6.2 8.1-2.1 1.5-5.8 3.1-8.3 3.5-2.5 0.4-6 0.2-8-0.3-1.9-0.6-5-2.1-6.8-3.3-1.8-1.2-4.3-3.8-5.7-5.7-2.1-3.1-2.4-4.8-2.6-13-0.2-7 0.2-10.3 1.3-12.5 0.9-1.7 2.7-4 4-5.3 1.2-1.2 4.1-2.9 6.3-3.7zm624.7 10.7c0.3 0.7 1.4 1.7 2.4 2.3 1.1 0.5 2.1 1.1 2.4 1.2 0.3 0.1-0.7 1.6-2.2 3.2-1.6 1.7-2.8 4-2.8 5.1q0 2 2 2c1.1 0 2.2 0.4 2.5 1 0.3 0.5-0.8 2.9-2.5 5.2-1.6 2.4-2.7 4.6-2.5 5 0.3 0.4 1.6 0.8 3 0.8 1.4 0 2.5 0.5 2.5 1.2 0.1 0.7-0.7 1.9-1.6 2.8-0.9 0.8-2.3 2.7-3 4.2-1.3 2.5-1.2 2.9 0.6 3.8 1.1 0.5 2.7 1 3.5 1 1.1 0 0.7 1.1-1.5 4.2-1.7 2.4-3 4.8-3 5.5 0 0.7 0.7 1.5 1.5 1.8 0.8 0.2 2.4 0.5 3.5 0.5 1.9 0 1.9 0.1 0.5 2.2-0.8 1.3-1.5 3.2-1.5 4.3 0 1.1 0.9 3 2 4.2 1.1 1.3 2.9 2.3 4.1 2.3 1.1 0 3.1-1.2 4.5-2.5 1.5-1.6 2.4-3.7 2.4-5.8 0.1-2-0.7-4-2-5.2-1.7-1.7-2.8-1.9-6.1-1.3-2.1 0.4-4.6 0.5-5.4 0.3-0.8-0.3-1.5-1.1-1.5-1.8 0.1-0.7 1.4-2.7 3-4.5 1.7-1.8 2.9-3.8 2.7-4.5-0.2-0.7-1.8-1.3-3.5-1.5-1.8-0.1-3.2-0.7-3.2-1.2 0-0.6 1.6-2.8 3.5-5 1.9-2.2 3.3-4.5 3-5-0.3-0.6-1.6-1-3-1-1.4 0-2.5-0.6-2.5-1.3 0-0.7 1.4-3 3.1-5.2 1.6-2.2 2.9-4.6 2.9-5.3 0-0.8-0.9-1-2.7-0.6-1.7 0.4-3.1 0.2-3.5-0.5-0.5-0.7 0.7-2.8 2.7-5.1 1.9-2.2 3.5-4.7 3.5-5.5 0-0.9-0.4-1.5-1-1.5-0.5 0-1 0.4-1 1 0 0.5-0.7 1-1.5 1-0.8 0-1.7-0.7-2-1.5-0.3-0.9-1-1.5-1.6-1.5-0.6 0-0.9 0.5-0.7 1.2zm7.3 53c0.9-1.2 2.6-2.2 3.8-2.2 1.2-0.1 2.8 0.5 3.5 1.2 0.7 0.7 1.2 2.2 1.2 3.3 0 1.1-0.9 3-2 4.2-1.1 1.3-2.8 2.3-3.7 2.3-1 0-2.4-0.6-3.1-1.3-0.7-0.7-1.3-2.1-1.3-3.3-0.1-1.1 0.7-3 1.6-4.2zm-308.7-48.9c-1.4 1.2-4.7 3.4-7.2 4.9-2.5 1.5-5.2 4-6 5.5-0.7 1.5-1.6 4.6-1.9 6.8l-0.7 4c2.3-4.7 3.6-7.6 4.3-9.5 1-2.6 2.7-4.2 6.1-6 2.6-1.4 5.9-3.8 7.4-5.3 1.4-1.5 2.1-2.7 1.6-2.7-0.5 0-2.1 1-3.6 2.3zm53.1 2.5c0 0.4 0.6 1.2 1.3 1.9 1.1 1 1 1.8-0.2 4.2-0.8 1.7-1.2 3.4-0.8 3.8 0.4 0.4 0.9-0.2 1.2-1.5 0.4-1.2 1.5-2.7 2.6-3.2 1.5-0.8 2.3-0.7 3 0.5 0.6 0.8 0.8 2.9 0.4 4.7-0.4 2.5-0.3 2.9 0.5 1.8 0.6-0.9 1.1-2.7 1.1-4 0-1.4-0.5-3.1-1.2-3.8-0.7-0.7-2.1-1.3-3-1.2-1.2 0-1.6-0.6-1.3-1.5 0.3-1-0.3-1.7-1.6-1.9-1.2-0.3-2.1-0.1-2 0.2zm208.1 7.2c0 0.5 0.8 1.2 1.8 1.4 0.9 0.3 3.2 2.1 5 4 2.4 2.7 3.2 4.5 3.2 7.3 0.1 2.7-0.9 5.2-3.2 8.7-1.8 2.6-4.9 6.1-6.8 7.7-2.2 1.9-5.2 3.2-8.3 3.7-2.6 0.4-4.7 1-4.7 1.4 0 0.4 1.9 0.5 4.3 0.2 2.3-0.4 5.3-1.2 6.7-1.9 1.4-0.7 4.3-3.3 6.5-5.7 2.2-2.5 4.8-6.2 5.9-8.4 1.3-2.8 1.6-4.9 1.1-7.4-0.4-2-1.5-4.6-2.4-5.9-0.9-1.3-3.3-3.2-5.3-4.3-2.1-1-3.7-1.4-3.8-0.8zm-286.2 17.6c-1.8 1.9-5.5 4.5-8.3 5.8-3.8 1.6-5.5 3.1-7 6.1-1.5 3.1-3 4.3-6.5 5.6-3.1 1.1-4.8 2.5-5.5 4.3-0.5 1.4-1.7 3-2.5 3.6-0.8 0.5-2.1 0.9-2.7 1-0.7 0-1.3-0.7-1.3-1.5 0-1.1-1.2-0.8-4.7 1.5-2.7 1.6-5 3-5.3 3-0.3 0-0.5-0.7-0.5-1.5 0-0.9 0.8-1.5 1.8-1.5 0.9 0 1.7-0.5 1.7-1 0-0.6-0.8-1-1.7-1-1 0-3.3 1.7-5.1 3.7-1.8 2.1-3.2 4.3-3 5 0.2 0.7 2.8-0.1 7.6-2.3 3.9-1.9 7.4-3.1 7.7-2.7 0.3 0.4-0.3 1.5-1.3 2.5-0.9 1-3.9 2.5-6.7 3.5-3.4 1.3-5.1 2.5-5.3 3.8-0.2 1.1 0.4 2.5 1.2 3.2 1.3 1 2.1 1 4.4-0.4 1.5-0.9 3.7-2.7 5-4 1.2-1.3 2.3-3.1 2.5-4 0.1-1 2.2-3.1 4.7-4.7 2.5-1.6 4.9-3.9 5.5-5.2 0.6-1.5 2.6-3 5.3-3.9 3.2-1.2 4.7-2.5 6.5-5.7 1.7-3.1 3.2-4.5 6.2-5.5 2.3-0.8 6-3.5 8.7-6.4 2.6-2.7 4.1-4.9 3.3-4.9-0.7 0-2.8 1.6-4.7 3.6zm296 7.3c0.5 1.1 1 3.7 1.1 5.8 0 2.2-0.7 5.1-1.9 7-1.1 1.8-3.9 4.1-6.2 5.3-2.6 1.1-6.5 1.9-9.8 2-3.9 0-5.1 0.3-4 1 0.8 0.5 3.3 0.9 5.5 0.9 2.2 0 5.8-0.8 8-1.8 2.2-1 5-2.9 6.2-4.2 1.2-1.4 2.7-3.7 3.2-5.2 0.6-1.5 1.1-3.9 1.1-5.2 0-1.4-0.6-3.7-1.2-5.1-0.7-1.3-1.7-2.5-2.1-2.5-0.4 0.1-0.4 0.9 0.1 2zm-214.5 11.6c-3.5 3.3-4.3 4.7-4.5 8.2-0.2 3.3-0.7 4.3-2 4.3-1 0-3.2 1.2-4.8 2.7-2 1.7-3.5 4.4-4 7-0.6 2.7-0.6 5.7 0 8 0.5 2.1 1.8 5 3 6.5 1.5 2 2.9 2.8 5.3 2.8 1.7 0 4.3-0.8 5.6-1.8 1.4-0.9 3.3-3.5 4.3-5.7 1-2.2 1.8-5.6 1.8-7.5 0-2-0.9-5-2-6.8-1.1-1.8-1.8-3.7-1.5-4.2 0.3-0.6 0.1-1-0.5-1-0.5 0-0.3-1.2 0.5-2.5 0.8-1.4 1.2-2.5 0.8-2.5-0.5 0-1.8 1.2-3 2.7l-2.2 2.8c0-5.5 0.5-7.8 1.2-8.7 0.7-1 2.3-1.8 3.7-1.9 1.4 0 1.9-0.3 1.3-0.5-1-0.3-0.9-0.9 0.3-2.2 0.8-0.9 1.4-2.2 1.2-2.7-0.1-0.6-2.2 0.8-4.5 3zm-10.6 16.2c1-1 3-1.7 5.2-1.7 2.4 0 4.4 0.8 5.9 2.2 1.8 1.8 2.3 3.3 2.2 7.8 0 3.7-0.7 6.5-2 8.7-1.1 1.8-3.1 3.8-4.5 4.5-2 1-3 1-5 0-1.4-0.7-3.2-2.8-4-4.7-0.8-2-1.5-4.9-1.5-6.5 0-1.7 0.5-4.3 1.1-5.8 0.6-1.5 1.8-3.5 2.6-4.5zm-237.2-19c0.6 0.5 7.1 3.1 14.5 5.6 8 2.8 15.1 4.7 17.5 4.6 3.7-0.1 3.4-0.2-3-1.9-3.8-1-10.8-3.2-15.5-4.8-4.7-1.7-9.8-3.3-11.5-3.7-1.8-0.4-2.6-0.3-2 0.2zm-87.8 11c-0.9 4.3-1.7 9.3-1.7 11.3 0 1.9 0.2 3.2 0.4 3 0.3-0.3 1.2-4.8 2.1-10 1-5.3 1.6-10.1 1.4-10.8-0.2-0.7-1.2 2.2-2.2 6.5zm455.7 4.4c0.3 2.4 1 9.3 1.7 15.4 0.7 7 0.9 19.2 0.5 34-0.3 12.6-0.8 24.7-1.1 26.7-0.3 2.5-1 3.8-2 3.8-0.8 0-4.1-1.3-7.2-2.8-3.6-1.7-8.6-5.5-13.4-10.2-4.4-4.4-9.1-10.2-11.2-14-2-3.6-5.2-11.3-7.1-17-1.9-5.8-4-14.4-4.6-19-0.6-4.7-1.5-11.2-1.9-14.5l-0.9-6c-0.1 12.8 0.5 20 1.3 24.2 0.8 4.3 2.7 11.4 4.1 15.8 1.4 4.4 4.1 10.9 6 14.5 1.8 3.5 5.8 9.4 8.7 13 2.9 3.5 7.8 8.3 10.8 10.4 3 2.2 7.5 4.8 10.2 5.8 2.6 1 5.6 1.8 6.7 1.8 1.8 0 2.1-0.9 2.6-7.3 0.4-4 0.8-8.1 1-9.2 0.3-1.1 0.5-11 0.5-22 0-11-0.5-23.6-1-28-0.5-4.4-1.3-10.4-1.8-13.4-0.4-2.9-1.2-5.6-1.6-5.9-0.4-0.3-0.6 1.5-0.3 3.9zm-383.1 13.5c-2.6 2-6.9 5.7-9.6 8.2-2.6 2.6-4.7 5-4.7 5.4 0 0.4 3-2 6.8-5.4 3.7-3.3 8.4-7.3 10.5-8.7 2.1-1.4 3.8-2.7 3.7-2.9 0-0.1-0.4-0.2-0.9-0.2-0.5 0-3.1 1.6-5.8 3.6zm6.1 4.2c-2.7 2.2-6.2 5.3-7.9 7.1-1.6 1.7-2.7 3.1-2.2 3.1 0.4 0 3.3-2.3 6.5-5 3.1-2.7 6.8-5.8 8.2-6.9 1.4-1.2 2-2.1 1.4-2.1-0.7 0-3.4 1.7-6 3.8zm140.6 17.9c0.1 3.4-0.3 3.9-3.7 5.5l-3.8 1.7c7.3-0.4 7.4-0.3 8 3.6 0.3 2.2 0.9 3.6 1.3 3.1 0.4-0.4 0.7-2.5 0.7-4.5 0-3.4 0.3-3.7 3.8-4.6 2-0.6 3.7-1.4 3.7-1.8 0-0.4-1.8-0.4-4 0l-4 0.8c0-5.8-0.4-7.5-1-7.5-0.5 0-1 1.7-1 3.7zm332-2.4c-3 0.7-7.5 2.2-10 3.4-2.5 1.2-6.9 4.5-9.8 7.5-2.9 2.9-5.3 5.7-5.2 6.3 0 0.5 2.3-1.4 5.2-4.2 3-2.9 8-6.5 11.3-8 5.3-2.5 7.2-2.8 15.5-2.8 7.9 0 10.2 0.4 13.8 2.2 2.3 1.3 6.3 4.2 8.8 6.5 2.6 2.4 5.8 6.3 7.2 8.8 1.5 2.4 3.5 6.7 4.5 9.5 1.1 2.7 2.6 8.6 3.3 13l1.4 8c-0.7-11.7-1.8-18.1-3-21.8-1.1-3.7-3.9-9.5-6.3-13-2.5-3.6-6.6-7.8-9.8-10-2.9-2.1-7-4.2-8.9-4.7-1.9-0.6-5.5-1.2-8-1.5-2.5-0.2-7 0.1-10 0.8zm-497.3 7.4c-2 3.2-3.7 6.4-3.7 7.3q0 1.5 0.9 0.5c0.6-0.6 2.8-3.8 5-7.3 2.5-3.8 3.6-6.2 2.8-6.2-0.7 0-3 2.6-5 5.7zm423.3 2.5c-0.8 0.6-1.3 1.9-1.2 2.7 0 0.9 0.8 2.1 1.7 2.8 1.1 0.9 2.1 1 3.5 0.3 1.1-0.6 2-1.8 2-2.8 0-0.9-0.5-2.3-1.2-3-0.7-0.7-1.8-1.3-2.3-1.2-0.6 0-1.7 0.5-2.5 1.2zm-301.5 350.7c1.6-1.1 4.4-1.9 6-1.9 1.7 0 4.6 0.4 6.5 1 1.9 0.6 4.5 2 5.8 3.2 1.6 1.6 2.3 3.4 2.3 6.3 0 2.5-0.7 4.6-1.8 5.7-1 0.9-4 2.2-6.8 2.8-3.7 0.9-6.1 0.9-9.2 0.1-2.6-0.7-5.3-2.3-6.8-4.1-1.4-1.7-2.5-3.8-2.5-4.8 0-0.9 0.8-2.8 1.8-4.1 0.9-1.3 3-3.2 4.7-4.2zm106.5-311.9h16.5l-0.1 20.7c0 11.4-0.4 21.6-0.7 22.5-0.4 1-2.4 2.5-4.4 3.4-2.4 1-5.2 1.3-11.3 0.4v-23.5zm107.5 17.9l4.5 0.6c2.5 0.4 5.3 0.8 6.3 1.1 1 0.2 2.1 1.9 2.7 4.1 0.5 2.1 1 6.2 1 9.3 0 4.3-0.5 6-2.3 7.7-1.2 1.3-3.3 2.3-4.7 2.3-1.4 0-3-0.4-3.7-0.8-0.6-0.4-1.9-2.5-2.8-4.7-1.2-2.9-1.6-6.2-1.3-11.8zm-149.2 11c1.2-0.5 3.5-0.7 5.2-0.4 1.6 0.3 4 1.2 5.2 2 1.3 0.8 2.8 3.1 3.4 5.2 0.6 2.1 0.8 5.1 0.5 6.7-0.4 1.7-1.5 4.5-2.6 6.3q-2 3.2-6 4.5c-3.6 1.1-4.3 1-6.8-0.9-1.5-1.1-3.3-3.1-4-4.5-0.6-1.3-1.2-4.6-1.3-7.4 0-3.5 0.6-5.8 2.1-7.8 1.1-1.5 3-3.2 4.3-3.7zm105.1 52h4.5c3.1 0 5.5 0.6 10.1 4l-5.8 4c-3.1 2.2-6.5 4-7.5 4-1.5 0-1.7-0.8-1.5-6zm-62.1 18.3c1.7-3.3 3.3-5.3 4.4-5.3 0.9 0 7.8 2.4 15.2 5.3 12.6 4.9 13.6 5.5 14.2 8.3 0.3 1.6 0.7 5.8 0.8 15.4h-8.2c-4.6 0-13.8 0.4-33.1 1.5l0.7-5.5c0.4-3 1.3-7.5 2-10 0.8-2.4 2.6-6.8 4-9.7zm60.4-4.6c0.9-0.2 3.4-0.5 9.2-0.7v6.5c0 6.5 0 6.5-2.7 6.6-2.1 0-3.1-0.7-5.2-5.6l0.5 2.8c0.3 2 0 2.7-1.1 2.7-1.1 0-1.6-1.5-2-5.9-0.4-5.2-0.3-6.1 1.3-6.4zm10.7 0c0.5-0.4 2.8-0.7 9.5-0.7v13h-10l-0.1-5.8c-0.1-3.2 0.2-6.1 0.6-6.5zm-20.5 0.3h3.5c2.3 0 3.7 0.6 4 1.5 0.3 0.9 0.5 3.6 0.5 10.5h-8v-6zm-1 15.6c-0.1-1.2 1.7-1.4 9.4-1.3 5.2 0.1 9.5 0.6 9.6 1 0 0.4-3.2 0.7-7.2 0.8-4 0-8.3 0.2-9.5 0.5q-2.3 0.4-2.3-1zm1.5 3.1c0.5-0.4 1.9-0.7 3.1-0.7 2.2 0 2.3 0.3 1.8 7.8-0.2 4.3-0.7 10.2-1 13.2-0.5 4.7-0.9 5.5-2.5 5.3-1.7-0.2-1.9-1.4-2-12.6-0.1-6.8 0.2-12.6 0.6-13zm6.8-0.7h7.7l0.6 8.3c0.4 4.5 0.5 9.6 0.4 11.2-0.2 1.7-0.2 3.8-0.1 4.8 0.1 1 0.9 1.9 1.9 2.2 0.9 0.2 0.2 0.3-1.8 0.2-3.3-0.2-3.5-0.3-4.2-5.2-0.4-2.7-1.4-7-2.2-9.5-0.8-2.4-1.5-3.6-1.5-2.5-0.1 1.1 0.6 4.3 1.4 7 0.8 2.8 1.5 6.3 1.5 7.8 0 2.3-0.4 2.7-5 2.7l0.6-9.2c0.3-5.1 0.6-11.2 0.7-13.5zm11.7 7.7c0-4.2 0.3-7.7 0.7-7.7 0.5 0 1.4 0.9 2 2 0.7 1.1 1.6 1.8 2 1.5 0.5-0.2 0.1-1.2-0.7-2-1.4-1.4-1.1-1.6 6.9-1.5l0.1 26-2.8 0.6c-1.9 0.4-3.2 0.1-4.5-1.3-1-1-2.2-3.6-2.7-5.8-0.5-2.2-1-7.5-1-11.8zm-29.2 1.5c3-6.8 4-8.2 5.9-8.2 2.3 0 2.3 0.1 2.3 14.5 0 11.2-0.5 16.5-2.1 23.2-1.1 4.9-3 11.4-4.2 14.6-1.9 5.1-2 6-0.7 6.8 0.8 0.5 3 0.9 8 0.9v12.5c0 9.1-0.3 12.6-1.3 12.9-0.6 0.2-3.9 0.7-13.2 1.6l0.1-5.2c0.1-2.9 0.4-18.8 1.5-65.3zm11 19.2c-0.2 0 1.8 0.1 4.2 0.3 2.5 0.2 5.5 0.5 6.8 0.8 1.2 0.2 2.4 1.2 2.6 2.2 0.3 1.4 0.5 1.3 1-0.5 0.4-1.2 1.1-2.3 1.6-2.3 0.6 0 1 5.7 1 30l-13.5 0.1 0.8-14.1c0.4-7.7 0.4-14 0-14-0.4 0-1.1 6.3-1.5 14-0.6 10.2-1.1 14-2 14-1 0-1.2-3.6-1.1-15.2 0.2-8.4 0.2-15.3 0.1-15.3zm19.2 15.5c0-11.3 0.3-15 1.3-15 0.7 0 1.9 0.6 2.8 1.3 0.9 0.7 2.6 2.7 3.8 4.5 1.5 2.3 2.1 4.8 2.2 9 0 5.2-0.1 5.6-1.6 4.2-1.1-1-1.6-1.1-1.5-0.2 0 0.7 0.7 1.5 1.5 1.7 1.1 0.4 1.5 1.9 1.5 9.5h-10zm-56.3-8.5c0.4-2.7 0.8-4.5 0.9-4 0.2 0.6 1.2 10.3 2.4 21.5 1.1 11.3 2.3 22.2 2.5 24.3 0.5 3.7 0.5 3.7-6.5 3.7v-20.2c0-11.1 0.3-22.5 0.7-25.3zm33.4 4.8c0.7-3.4 1.4-6.3 1.6-6.3 0.2 0 0.3 5.7 0.3 25h-8l2.4-6.2c1.3-3.4 3-9.1 3.7-12.5zm34.7 9.9l8.4 2.9c4.6 1.6 10 2.9 12.1 2.9 2 0 4.3 0.6 5 1.4 0.8 0.8 1.7 8.9 2.5 24.2 0.8 12.6 2 29.9 2.8 38.4 0.7 8.6 1.6 17.5 2.4 24h-33l-0.1-13.7c-0.1-7.6-0.1-25.9 0.1-40.8 0.1-14.8 0.6-27.5 1.1-28.2 0.6-0.8 0.5-1.5-0.1-1.8-0.5-0.2-1-2.5-1.1-4.9zm-297.5 2.5c1.2-0.2 4.6-0.3 7.6-0.3 4.6 0.2 5.6 0.5 6.5 2.5 0.9 2 0.8 2.6-0.9 3.8-1.3 0.9-4.6 1.4-9.2 1.4-7 0-7.3-0.1-6.8-2.3 0.3-1.2 0.5-2.8 0.5-3.5 0-0.7 1-1.4 2.3-1.6zm-11.3 3c3-0.8 6-1.5 6.6-1.5 0.5-0.1 0.9 0.5 0.7 1.4-0.2 0.8-0.3 2.1-0.3 3 0 1-1 1.5-3.7 1.4-2.1 0-5.6-0.4-7.8-0.8-2.5-0.5-3.4-1.1-2.5-1.4 0.8-0.4 4-1.3 7-2.1zm356.3-2.1l3.9 15c2.1 8.2 6.1 22.4 8.9 31.5 2.8 9 7.3 22.3 10 29.5 2.7 7.1 4.9 13.2 4.9 13.5 0 0.2-7.5 0.6-33.5 0.8l0.8-9.1c0.4-5.1 1.4-20.7 2.2-34.7 0.8-14.1 1.8-30.3 2.2-36zm-78.4 20.7c0-8.3 0.4-13.2 1.1-13.2 0.6 0 0.8 4.3 0.3 12.7-0.3 7-0.8 13-1 13.3-0.2 0.2-0.4-5.5-0.4-12.8zm3.6-12.6c0.5-0.4 2.3-0.5 3.9-0.2 1.7 0.3 4.4 0.6 9 0.6v24h-5.2c-2.9 0-5.9 0.2-6.8 0.5-1.2 0.4-1.5-1.4-1.6-11.9-0.1-6.7 0.2-12.6 0.7-13zm15.4 0.4h8.6l-0.2 7.2c-0.2 4-0.3 9.6-0.4 17.8l-8-0.5v-12.3zm-359.6 19.4c0.3-1.7 0.9-2 2.8-1.6 1.5 0.3 2.6 1.2 2.7 2.3 0.1 1.1-0.6 2.6-1.4 3.4-0.9 0.8-1.1 1.5-0.5 1.5 0.6 0 1 0.5 1 1 0 0.6-0.7 0.7-1.7 0.4-1.5-0.6-1.5-0.4-0.5 0.7 0.7 0.8 1.3 3.6 1.3 6.2 0 2.6-0.5 4.9-1.1 5.2-0.5 0.3-0.7 1-0.5 1.5 0.3 0.6 0.3 2.8 0 5-0.4 3.5-0.8 4-3 4-1.3 0-2.4-0.5-2.4-1.2 0-0.7 0.2-2.3 0.5-3.5 0.2-1.3 0.9-2.1 1.4-1.8 0.6 0.3 1 0.1 1-0.5 0-0.5-0.4-1.1-1-1.2-0.7-0.2-0.7-3.2 0-9.8 0.6-5.2 1.3-10.4 1.4-11.6zm302.6 5.6c0-3.9 0.2-4 3.4-4 3.2 0 3.4 0.2 3.3 3.8-0.1 3.5-0.4 3.7-3.4 4-3.2 0.2-3.3 0.1-3.3-3.8zm-38.5-1c4-1.6 6.9-1.9 14.4-1.7 8 0.2 9.5 0.5 10.7 2.2 0.8 1.1 1.5 2.6 1.5 3.3 0 0.7-2.2 2.4-4.8 3.9-2.6 1.4-9 5.2-14.3 8.3-5.2 3.2-10.9 6.5-12.7 7.4-1.8 0.9-4.7 1.5-6.5 1.4-2.9-0.3-3.3-0.6-3.6-3.8-0.1-1.9 0.4-5.3 1.3-7.5 0.8-2.2 3.2-5.7 5.3-7.7 2-2.1 6-4.7 8.7-5.8zm78.9 2.8c0.4-0.3 3.7-0.5 7.4-0.4 4.3 0.1 6.7 0.6 6.9 1.4 0.3 0.9-1.6 1.2-7.2 1.2-4.1 0-7.5-0.4-7.6-0.8-0.1-0.5 0.1-1.1 0.5-1.4zm-18 1c0.6-0.4 4-0.8 13.6-0.8l0.4 6.8c0.2 3.7 0.3 10.8 0.1 24.7l-4.2 0.3c-2.3 0.1-4.3 0.6-4.3 1 0 0.4 2 0.7 4.3 0.7 3.1 0 4.2 0.4 4.2 1.5 0 1.1-1.2 1.6-4.2 1.8-4.2 0.2-4.3 0.3-4.7 4.5-0.3 2.3-0.9 6.6-2.1 14.8l-8-0.1 0.8-7.7c0.4-4.3 1.2-16.6 1.8-27.3 0.8-12 1.6-19.8 2.3-20.2zm-283.1 3.8c4.7-0.8 12.3-1.2 17.7-1 5.3 0.2 12.2 1.1 15.5 1.9 3.3 0.9 9.9 3.4 14.5 5.7 4.7 2.3 10.4 6 12.6 8.3 2.2 2.2 5.2 6 6.7 8.5 1.5 2.5 3.6 7.4 4.7 11 1.6 5.2 1.9 8.6 1.6 16.5-0.2 5.5-0.9 11.6-2.5 17h-8.3c-5.6 0.1-9.6 0.6-12.3 1.8-2.2 1-3.7 2-3.5 2.2 0.3 0.3 2.6-0.2 5-1 2.5-0.8 7.4-1.5 10.8-1.5 3.4 0 6.5 0.5 6.7 1 0.3 0.6-0.8 3.4-2.5 6.3-1.7 2.9-5.4 7.9-8.3 11.1-2.8 3.3-9.1 9-13.9 12.8-4.8 3.8-9.3 6.8-10 6.9q-1.2 0 0.5-1.8c0.9-1 1.9-3.1 2.2-4.8q0.6-3-1.3-6.5c-1.1-2.1-3.7-4.4-6.3-5.7-2.4-1.3-5.7-2.3-7.4-2.3-1.6 0-4.6 0.5-6.7 1-2.1 0.6-4.9 2.4-6.3 4-1.6 2-2.5 4.3-2.5 6.5 0 2.3 0.9 4.6 2.5 6.5 1.7 2 4.4 3.5 7.8 4.5 3.3 1 6.7 1.3 9.2 0.8 2.5-0.4 3.8-0.3 3.4 0.3-0.3 0.5-5.3 3-11 5.5-5.7 2.6-12.9 5.5-16.1 6.5-5.2 1.8-5.8 1.8-7.5 0.3-0.9-0.8-6.6-5.7-12.5-10.7-5.9-5.1-10.7-9.5-10.7-9.9 0-0.4 2.9-2.7 6.5-5 3.5-2.4 6.4-5 6.4-5.8 0-0.8-0.4-2.4-1-3.5-0.6-1.2-2-2-3.7-2-1.5 0-3.3 0.5-4 1.2-0.6 0.7-2.2 3.3-3.5 5.8-1.2 2.5-2.9 4.5-3.7 4.5-0.8 0-2.7-2.5-4.3-5.5-1.5-3-3.4-8-4.1-11-0.8-3-1.8-8.9-2.9-20.5l2.4 2.9c1.3 1.7 3.8 3.6 5.6 4.3 1.8 0.7 4.4 1.3 5.7 1.3 1.4 0 4.2-0.8 6.2-1.7 2-1 4.6-2.7 7.8-6.1l2.6 4.2c1.4 2.3 3.8 4.9 5.3 5.9 1.4 0.9 4.8 2.2 7.4 2.8 3.8 0.9 5.9 0.8 10.2-0.5 3.1-0.8 7.1-2.8 9-4.4 2-1.5 4.6-4.9 5.8-7.5 1.2-2.6 2.2-6.4 2.2-8.4 0-2.1-0.4-5.4-0.9-7.3-0.6-1.9-2.5-5.2-4.3-7.4-1.8-2.2-5.1-4.7-7.3-5.7-2.2-1-6.2-1.9-9-1.9-3.3 0-6.4 0.7-9.5 2.3-2.4 1.3-5.9 4.3-7.7 6.5-1.8 2.3-3.3 3.8-3.3 3.2 0-0.5-1.9-1.9-4.2-3-2.3-1-5.4-1.9-6.8-2-1.3 0-4.3 0.5-6.5 1.2-2.2 0.6-5.5 2.7-11 8.1l0.7-9.4c0.3-5.1 1.4-11.1 2.2-13.1 0.9-2.1 3.8-5.8 6.4-8.4 2.6-2.5 6.5-5.6 8.7-6.9 2.2-1.3 6.9-3.5 10.3-4.9 3.4-1.4 10-3.2 14.5-4zm260.7-1.1h7.5l1.2 17c0.6 9.4 1.4 21.2 2.3 35.5h-11v-26.2zm45.8 0.2c3.2-0.2 6.5-0.4 7.5-0.5 1.4-0.2 1.7 0.6 1.7 4.3 0 2.9-0.4 4.5-1.2 4.5-0.9 0-1 0.2-0.1 0.7 0.7 0.5 1.3 4.2 1.8 18.5l-16.5 0.3 0.1-10.5c0.1-5.8 0.4-12 0.6-13.8 0.3-3.2 0.4-3.2 6.1-3.5zm11.2-0.7h8v8h-8v-4zm1.6 9.7c1-0.2 2.9-0.3 4.2-0.3 2.1 0.1 2.1 0.3 1.6 9.6-0.4 5.2-0.7 9.6-0.7 9.8-0.1 0.2-1.6 0-6.7-0.8l-0.2-9c-0.2-8.2-0.1-8.9 1.8-9.3zm-20.3 21.2c0.3-0.2 4.4-0.3 9.2-0.2 4.8 0.2 8.5 0.7 8.5 1.3 0 0.6-3.6 1-9 1-4.9 0-9-0.4-9.1-0.9-0.1-0.4 0.1-1 0.4-1.2zm-299.8 4.5c1.7-0.8 4.8-1.4 7-1.4 2.4 0 5.9 0.9 8.5 2.3 2.9 1.4 5.6 4 7.4 6.7 2.3 3.6 2.8 5.6 2.8 10.5 0 4.8-0.5 6.8-2.8 10.4-1.8 2.8-4.5 5.3-7.4 6.8-3.1 1.6-6.1 2.3-10 2.3-3.8 0-6.5-0.7-9-2.2-1.9-1.2-4.2-3.1-5.2-4.2-0.9-1.2-2.1-4.3-2.7-6.9-0.6-2.6-0.8-5.9-0.6-7.2 0.3-1.4 0.8-3.7 1-5 0.3-1.4 2.2-4.4 4.3-6.7 2.1-2.3 5.1-4.7 6.7-5.4zm291.2 2.3c0.4-2.3 1-2.7 6.8-2.7l-0.5 17h-8l0.6-5.8c0.3-3.1 0.8-7 1.1-8.5zm8.3-2.7h18v3.7c0 2.1 0.4 5.9 1.5 13.3h-19.5v-8.5zm20.1 0h2.5c2.4 0 2.4 0.1 2.4 8.5 0 5-0.4 8.5-1 8.5-0.5 0-1-3.4-1-8 0-5.4-0.3-8-1.1-8-0.9 0-1 2.2-0.4 8.2 0.4 4.6 0.5 8 0.3 7.8-0.3-0.3-0.7-4.2-1.1-8.8zm7 8.5c0-5 0.4-8.5 1-8.5 0.5 0 1 3.5 1 8.5 0 5-0.5 8.5-1 8.5-0.6 0-1-3.5-1-8.5zm-356-1.6c1.3-0.4 4-0.5 6-0.2 1.9 0.2 4.5 1.1 5.7 1.9 1.2 0.8 2.7 2.5 3.3 3.9 0.6 1.6 0.6 4.4 0 7.8-0.6 3.9-1.6 5.9-4 8-1.7 1.5-4.7 3.1-6.8 3.6-2.3 0.6-5 0.6-7 0-1.8-0.5-4.4-2.2-5.7-3.9-1.9-2.1-2.5-4.2-2.5-7.2 0-2.4 0.7-5.5 1.7-7 1-1.5 2.9-3.5 4.3-4.4 1.3-1 3.6-2.1 5-2.5zm355.8 12.4c0.9-0.7 1.7-1.3 1.9-1.3 0.1 0 0.3 1.8 0.3 4 0 3.5-0.3 4-2.3 4-1.9 0-2.2-0.5-1.9-2.7 0.2-1.5 1.1-3.3 2-4zm-64.8-0.3h11v7h-11v-3.5zm18 2c0-1.6 0.6-2 3.5-2 2.6 0 3.5 0.4 3.5 1.8 0 1.4-0.5 1.6-3 1-1.9-0.5-3-0.4-3 0.2 0 0.6 1.1 1 2.5 1 1.5 0 2.5 0.6 2.5 1.5 0 1.1-1.1 1.5-3.5 1.5-2.7 0-3.4-0.3-3-1.5 0.2-0.8 0.5-2.4 0.5-3.5zm8.5-1.3c0.4-0.4 2.7-0.7 5.1-0.7 3.2 0 4.4 0.4 4.4 1.5 0 1.2-1.3 1.5-5 1.5-2.8 0-5.1-0.4-5.2-0.8-0.1-0.5 0.2-1.1 0.7-1.5zm11.5 1.3c0-1.9 0.5-2 9.7-1.8 7.9 0.3 9.8 0.6 9.8 1.8 0 1.2-1.9 1.6-9.8 1.8-9.2 0.2-9.7 0.1-9.7-1.8zm31-2h34v7h-34v-3.5zm41 0h36l1 3.3c0.5 1.8 1 3.3 1 3.5 0 0.1-8.6 0.2-38 0.2v-3.5zm-72 6c0-0.6 4.3-1 11-1 6.6 0 11 0.4 11 1 0 0.6-4.4 1-11 1-6.7 0-11-0.4-11-1zm-22.3 7c0.2-3.9 0.3-4 8.3-4l-0.5 8.5 6.2 0.3c6.2 0.2 6.3 0.2 6.3 3.2 0 2.8-0.3 3-3.8 3-2.1-0.1-6.7-0.9-10.2-1.8-4.8-1.3-6.5-2.2-6.5-3.5 0-0.9 0.1-3.5 0.2-5.7zm9.8-3.3c0.4-0.4 3-0.7 10.5-0.7v7h-5.5c-5.4 0-5.6-0.1-5.7-2.8-0.1-1.6 0.2-3.1 0.7-3.5zm12.5-0.7h11c8.1 0 11 0.3 11 1.3 0 0.7 0.2 2.2 0.5 3.5 0.4 2.2 0.4 2.2-22.5 2.2v-3.5zm24 3.5c0-3 0.3-3.5 2.5-3.5 2.2 0 2.4 0.4 2.4 3.8 0 3.4-0.2 3.7-2.5 3.5-2.1-0.2-2.4-0.8-2.4-3.8zm-24 5.5h14.5c13.1 0 14.5 0.2 14.5 1.8 0 1.5-1.4 1.8-9.8 2.5-5.4 0.4-11.9 0.7-14.5 0.7-4.4 0-4.7-0.2-4.7-2.5zm-284.8 19.6c1.8-0.8 5.2-1.5 7.5-1.5 2.3-0.1 5.3 0.4 6.5 1 1.2 0.7 3.3 2.1 4.5 3.3 1.3 1.2 2.5 3.4 2.8 4.9 0.2 1.5-0.2 4.1-1 5.7-1 1.9-2.8 3.4-4.8 4-1.8 0.6-4.4 1-5.7 1-1.4 0-4.3-0.5-6.5-1.1-2.2-0.7-5.1-2.2-6.3-3.5-1.3-1.4-2.2-3.6-2.2-5.4 0-1.6 0.4-3.9 1-5 0.5-1.1 2.4-2.6 4.2-3.4zm9.8 25.1c4.6-2.4 8.9-4.3 9.5-4.2 0.5 0.1 1.4 1.7 1.9 3.6 0.7 2.7 0.4 4.3-1.3 7.7-1.5 2.9-3.6 5-6.9 6.9-3.4 2-6.6 2.8-11.2 3.1-5.7 0.3-7.3 0-12-2.4-3.1-1.6-5.3-3.3-5.1-3.9 0.3-0.5 4.1-2.2 8.5-3.8 4.4-1.5 11.9-4.7 16.6-7zm-50.6 14.2c1-1.1 2.9-1.9 4.2-1.9 1.3 0 3 1 3.8 2.3 1.1 1.8 1.2 2.6 0.2 4.1-0.6 1-2.3 1.9-3.6 1.9-1.4 0.1-3.4-0.5-4.3-1.3-1-0.8-1.9-1.9-2-2.4 0-0.5 0.7-1.7 1.7-2.7zm-73.4-346.5c-1.4 0.8-5.2 1.4-8.4 1.4-3.2-0.1-6.2 0.3-6.7 0.8-0.7 0.6-0.6 2 0.2 3.9 0.7 1.7 1.4 3.1 1.6 3.3 0.1 0.1 3.5-1.6 7.5-3.7 4-2.2 8-4 9-4 1.1-0.1 1.6-0.6 1.3-1.6-0.3-0.8-0.9-1.5-1.3-1.4-0.4 0-1.9 0.6-3.2 1.3zm16.2 1.1c-1.4 1.5-3.3 2.5-5 2.6-2.5 0-2.6 0.1-0.7 1.1 1.1 0.6 3 0.8 4.2 0.4 1.2-0.3 2.7-1.5 3.3-2.6 0.5-1.1 0.8-2.5 0.7-3-0.2-0.6-1.3 0.1-2.5 1.5zm583.8 0.5c0.8 0.6 2.4 1 3.5 1 1.1 0 3.6 1 5.7 2.3 2 1.2 4.9 3.8 6.3 5.7 1.5 1.9 3.6 5.5 4.7 8 1.2 2.8 2.2 7.7 2.5 13 0.4 5.9 0 10.8-1.1 16-0.9 4.3-3.8 11.9-6.6 17.5-2.7 5.5-4.9 10.1-4.8 10.3 0.2 0.2 1.8-2.1 3.7-5 1.9-2.9 4.7-8.4 6.2-12.3 1.5-3.8 3.2-10.1 3.9-14 0.7-4 0.9-9.8 0.6-13.7-0.4-3.7-1.6-9.1-2.7-12-1.1-2.9-3.5-7.1-5.3-9.3-1.8-2.2-5.3-5-7.7-6.2-2.5-1.2-5.8-2.2-7.4-2.2-2.4 0-2.7 0.2-1.5 0.9zm-691.8 2.8c-1 0.6-1 5.8 0.3 26.7 0.8 14.3 1.7 27.1 1.9 28.5 0.2 1.4 0.1-9.4-0.2-24-0.3-14.6-0.6-27.2-0.7-28 0-1 1.1-1.6 3.5-1.8 2-0.1 3.7 0.3 4.2 1 0.4 0.7 0.7 3 0.7 5.1 0 2.3 0.5 3.7 1.3 3.7 0.9 0 1.1-1.2 0.8-4.3-0.3-2.4-1.2-5.1-2-6-1-1.1-2.9-1.7-5-1.7-2 0-4.1 0.4-4.8 0.8zm188 0.5c0.2 0.7 1.5 1.4 2.8 1.6 1.3 0.1 3.8 0 5.6-0.3 1.9-0.3 3.1-1 2.9-1.6-0.3-0.5-3.1-1-6.2-1-4 0-5.5 0.4-5.1 1.3zm-78.2 6.5c0 1.8 1.1 5.5 2.5 8.2 1.3 2.8 3.7 6.5 5.3 8.3 1.6 1.8 5 4.6 7.7 6.4 2.7 1.7 7.4 3.9 10.5 4.7 3 0.9 7.5 1.6 10 1.7 2.4 0 7.4-0.9 11-2 3.5-1.1 7.4-2.7 8.5-3.6l2-1.6c-3.1 1.1-6.5 2.3-9.5 3.4-4.4 1.5-7.4 1.8-14 1.5-6.4-0.3-9.7-1-13-2.7-2.5-1.3-5.9-3.4-7.5-4.6-1.7-1.2-4.7-4.7-6.8-7.6-2.1-3-4.4-7.6-5.2-10.4-1.2-4.5-1.4-4.7-1.5-1.7zm83.9 8.5c-1.8 1.8-3.3 3.9-3.2 4.5 0.2 0.7 0.7 1.2 1.3 1.2 0.5 0 2-1.4 3.3-3.2 1.3-1.8 2.6-3.8 2.9-4.5 0.3-0.7 0.2-1.3-0.2-1.3-0.4 0-2.2 1.5-4.1 3.3zm-162.9 6.2c0 1.8-0.7 2.7-2.3 3-1.2 0.3-3.6 0.6-5.2 0.8q-3 0.4 1.6 0.6c3 0.1 5.3-0.4 6.3-1.4 0.8-0.8 1.6-2.2 1.6-3 0-0.8 0.4-1.3 1-1 0.5 0.3 1 0.1 1-0.5 0-0.5-0.9-1-2-1-1.5 0-2 0.7-2 2.5zm297.3 7.5c0.4 0.6 4.8 1 10.4 0.9 5.4-0.1 11.1-0.5 12.8-0.9 1.8-0.5-2.1-0.8-10.4-0.9-8.7 0-13.1 0.3-12.8 0.9zm-155.8 5.7c-2.8 1.4-7.2 2.8-9.8 3.2-3.1 0.4-4.4 1-3.7 1.6q0.9 1 5.4-0.2c2.5-0.7 6.8-2.4 9.6-3.8 2.7-1.4 5-2.7 5-3 0-0.3-0.4-0.5-0.8-0.4-0.4 0-3 1.2-5.7 2.6zm-128.5 1.2l3.5 0.6c1.4 17.5 2 20.3 2.5 19 0.5-1.1 0.8-3.4 0.9-5.2 0-3 0.3-3.3 3.1-3.3 1.6 0 3.2 0.6 3.4 1.3 0.3 0.7 0.6 14.1 0.8 29.9 0.1 15.8 0.6 29 0.9 29.5 0.4 0.4 1-11.6 1.3-26.7 0.3-15.1 0.2-29.3-0.2-31.5-0.8-3.9-0.8-4-5.5-4.2-4.6-0.3-4.7-0.4-4.7-3.3 0-1.6-0.5-3.9-1-5-0.8-1.5-2-1.9-4.8-1.8l-3.7 0.1zm306 8.2c-2 1.5-4 2-8.8 1.9-3.5 0-6.2 0.4-6.2 1 0 0.6 2.8 1 6.7 1 4.9-0.1 7.2 0.3 8.3 1.5 0.8 0.9 2.9 1.6 4.7 1.5 2.3 0 3.6-0.6 4.4-2.2 0.8-1.7 0.8-2.9 0-4.5-0.8-1.6-2-2.3-3.9-2.3-1.5 0.1-3.9 1-5.2 2.1zm2.9 0c1.3-0.5 2.9-0.6 3.6-0.4 0.8 0.3 1.4 1.4 1.4 2.4 0 1.1-0.8 2.4-1.9 2.9-1.1 0.6-2.7 0.8-3.5 0.5-0.9-0.3-1.6-1.4-1.7-2.5-0.1-1.3 0.6-2.4 2.1-2.9zm-43.3 19.2c-0.9 1.2-1.3 2.8-1.1 3.5 0.3 0.6 1.4 1.4 2.5 1.7 1.1 0.3 2.6-0.1 3.5-0.7 0.8-0.7 1.5-2 1.5-2.8 0-0.8-0.6-2.1-1.3-2.8-0.7-0.7-1.8-1.2-2.5-1.2-0.6 0-1.8 1-2.6 2.3zm431.8-0.5c-1 1-1.7 2.7-1.7 3.8 0.1 1 1 2.7 2 3.6 0.9 1 2.8 1.8 4 1.8 1.2 0 3.2-0.9 4.3-2 1.1-1.1 2-2.6 2-3.2 0-0.7-0.7-2.3-1.5-3.5-1-1.5-2.6-2.3-4.4-2.3-1.6 0-3.7 0.8-4.7 1.8zm2.1 0.3c1.1-0.6 2.4-1.1 3-1.1 0.5-0.1 1.5 0.6 2.2 1.4 0.7 0.9 1.1 2.6 0.9 3.8-0.3 1.3-1.3 2.6-2.3 2.9-1 0.4-2.6 0.3-3.6-0.2-1-0.5-1.8-2-1.9-3.3-0.1-1.6 0.5-2.9 1.7-3.5zm-319 16.7c-0.3 4.2-1.3 10-2.2 12.7-0.9 2.8-2.6 6-3.7 7.3-1.2 1.2-2.7 2.2-3.4 2.2-0.7 0-2.6-0.7-4.2-1.5-1.7-0.8-3-1.1-3-0.5 0 0.6 0.7 2.5 1.7 4.4l1.8 3.5c-5.9 7-7.3 9.4-7.1 9.9 0.3 0.4 2.1-0.6 4.1-2.3 2-1.6 4.3-3.4 5-4 1-0.7 2.3-0.5 4.4 0.8 1.7 0.9 4.3 1.7 5.8 1.7 2.5-0.1 2.3-0.2-1.2-1.5-2.2-0.8-4.7-2.1-5.5-2.9-1.4-1.3-1.3-1.7 0.5-3.8 1.1-1.3 3.1-5.2 4.5-8.6 1.3-3.5 2.7-6.3 3-6.2 0.2 0 0.6-2.1 0.7-4.7 0.1-2.7 0.5-6.9 0.7-9.5 0.3-2.7 0.1-4.8-0.4-4.8-0.4 0-1.1 3.5-1.5 7.8zm121.7-6.5c-0.4 0.6-0.7 14-0.5 29.7 0.1 18.4 0.5 28.9 1.2 29.5 0.8 0.7 1.1-8.2 1.1-29.7 0-17-0.3-30.8-0.5-30.8-0.2 0-0.8 0.6-1.3 1.3zm-315.2 6.5c0 4-0.2 4.2-3.5 4.7-2 0.3-3.9 1-4.3 1.7-0.6 0.9 0.3 1 3.5 0.5 3.3-0.5 4.4-0.4 4.8 0.8 0.2 0.8 0.5 2.4 0.5 3.5 0 1.1 0.4 2 1 2 0.5 0 0.7-1.7 0.5-4l-0.5-4c6.3-1.2 8.5-1.9 8.8-2.4 0.4-0.6-1.2-0.7-4.1-0.3-4.6 0.7-4.8 0.6-5.3-2-0.4-1.6-0.8-3.2-1-3.8-0.1-0.5-0.3 0.9-0.4 3.3zm-60 35.7c-3 2.4-3.1 2.5-6.3 0.9-3.1-1.6-3.4-1.6-9 1-3.8 1.7-6.4 3.7-7.7 5.9-1.1 1.7-2 4.6-2.1 6.2 0 1.7 0.7 4 1.5 5.3 0.9 1.2 2.9 2.9 4.6 3.7 1.6 0.8 5 1.5 7.5 1.5 3.5 0 4.7-0.4 5.5-2 0.5-1.1 1.4-1.8 2-1.5 0.5 0.3 1 5.8 1 13.5 0 9.7 0.2 12.8 1.1 12.3 0.9-0.6 1-4.2 0.6-13.3-0.3-6.9-0.3-12.9 0.1-13.5 0.3-0.5 2.9-2.5 5.7-4.4l5-3.3c3.8 3.1 6.1 3.9 7.5 3.7 1.3-0.1 3.3-0.7 4.3-1.1 1.1-0.5 2.5-2.1 3.3-3.6 0.7-1.6 1.4-3.2 1.4-3.8 0-0.5-0.9-1.9-2-3-1.6-1.6-2.9-1.9-5.8-1.4-3.3 0.5-4.1 0.2-6.7-2.5-2-2-4-3.1-5.7-3.1-1.5 0-4.1 1.1-5.8 2.5zm13.4 21.8c-0.5 1.2-3 3.2-5.4 4.5-4 2-4.2 2.2-1.5 1.8l3-0.5c-0.5 10.3-0.2 12.9 0.7 13.7 0.7 0.7 3.2 1.3 5.5 1.2 2.3 0 4.9-0.2 5.8-0.5 0.8-0.3 1.5-0.9 1.5-1.5 0-0.6-1.4-0.7-3.8-0.1-2.3 0.6-4.6 0.6-6 0-2-0.8-2.3-1.6-2.3-6.6 0-3.5 0.5-6.3 1.3-7 0.7-0.7 1.6-0.9 2-0.5 0.5 0.4 0.8-1 0.8-3 0-2.1-0.2-3.8-0.4-3.8-0.1 0-0.7 1-1.2 2.3zm133.6 21.8c-3.1 0.4-8.2 2.1-11.5 3.8-3.3 1.6-7.8 4.9-10 7.3-2.2 2.3-5.1 6.8-6.5 9.8-2.1 4.6-2.5 7-2.5 14.5 0 7.7 0.3 9.8 2.6 14.5 1.5 3 4.9 7.5 7.5 10 2.7 2.4 7.1 5.4 9.9 6.6 2.7 1.2 7.4 2.6 10.5 3 4.7 0.7 6.1 1.4 10.2 5.6 2.6 2.6 6.8 5.7 9.3 6.8q4.5 2 11 2c3.9 0 8.5-0.8 11.7-1.9 2.9-1.1 7.2-3.8 9.5-6 2.3-2.3 5.2-5.9 6.3-8.1 1.2-2.4 2-6 2-9 0-2.7-0.5-5-1-5-0.6 0-1 2.1-1 4.8 0 3-0.8 6.3-2.4 9.2-1.3 2.6-4.4 6.1-7.2 8.2-2.7 2.1-7 4.3-9.4 5-2.5 0.6-6.6 1.2-9 1.1-2.5 0-6.8-1-9.5-2.2-2.8-1.2-6.7-3.9-8.8-5.9-2.1-2-3.8-4-3.8-4.4 0-0.5 1.2-0.8 2.6-0.8 1.3 0 4.6-1 7.1-2.2 2.6-1.3 6.4-4.3 8.6-6.8 2.5-2.9 4.1-5.9 4.5-8.5 0.3-2.2 0.5-4.1 0.4-4.2-0.1-0.2-0.5-0.3-0.9-0.3-0.4-0.1-1.3 2.1-1.9 4.7-0.9 3.5-2.4 5.9-5.5 8.9-3.1 2.9-6.1 4.6-10.3 5.9-5 1.4-6.2 1.4-6.8 0.3-0.3-0.7-0.9-3-1.2-5-0.3-2.1-1-3.8-1.5-3.8-0.6 0-0.8 1.1-0.5 2.5 0.2 1.4 0.8 3.7 1.2 5.2l0.8 2.6c-7-1.1-11.3-2.5-14-3.7-2.8-1.2-7.1-4-9.5-6.2-2.6-2.4-5.6-6.4-7-9.5-1.9-4.3-2.4-7.1-2.5-13.4 0-6.5 0.5-9 2.6-13.5 1.4-3 4-7.2 5.9-9.3 1.9-2.2 6.4-5.3 9.9-7 6.2-3 7.2-3.2 18-3.2 10 0 12.7 0.4 20.1 2.8 4.6 1.6 8.7 2.6 9 2.3 0.2-0.3-1.8-1.5-4.5-2.6-2.8-1.2-7.5-2.7-10.5-3.5-3.1-0.7-8-1.5-11-1.8-3.1-0.3-8-0.1-11 0.4zm333 7.6c-2 1-4.4 3.4-5.4 5.3-1.2 2.4-1.7 5.1-1.5 8.7 0.2 3.3 1.1 6.2 2.5 8 1.1 1.5 3.1 3.2 4.5 3.7 1.3 0.5 3.6 0.6 5.1 0.2 1.5-0.3 3.7-1.5 4.8-2.6 1.1-1.1 2-2.6 2-3.2 0-0.7-1.1-0.1-2.5 1.5-1.8 1.9-3.5 2.7-5.8 2.7-1.8 0-3.7-0.4-4.3-0.8-0.6-0.4-1.8-1.8-2.8-3.2-0.9-1.4-1.7-4.4-1.7-6.7 0-2.4 0.7-5.8 1.4-7.7 0.9-2.1 2.6-3.9 4.3-4.6 2.3-1 3.5-1 6.2 0.1 1.9 0.8 4 2.5 4.7 3.9 1 1.9 1.4 2.1 1.4 0.8 0-1-1-2.9-2.2-4.3-1.2-1.3-3.4-2.7-4.7-3-1.5-0.3-4 0.2-6 1.2zm-38.3 9.3c-1 1.1-1.5 2.5-1.2 3 0.2 0.6 1.4 1 2.5 1 1.1 0 2.3-0.7 2.7-1.5 0.5-1 0.1-2.2-0.8-3.1-1.3-1.3-1.7-1.2-3.2 0.6zm-283.7 12c0 0.6 1.1 1 2.5 1 1.7 0 3.4 1.2 5.5 4 1.6 2.2 3.6 4 4.5 4 0.8 0 3.8-1.2 6.7-2.6 4.3-2.1 6.2-2.5 10.3-2.1 4.5 0.4 4.8 0.4 3-0.9-1.1-0.8-3.8-1.4-6-1.4-2.4 0-6.3 1.2-9.4 2.8-5.3 2.6-5.4 2.7-6.5 0.8-0.6-1.1-2.2-3-3.4-4.3-1.2-1.3-3.4-2.3-4.7-2.3-1.4 0-2.5 0.5-2.5 1zm-339.9 17.5c-1.8 1.2-2.4 2.5-2.3 5.1 0.1 2.5 0.9 3.9 2.8 5.2 2 1.3 3.1 1.5 5.2 0.7 1.5-0.6 3.1-2.3 3.7-3.8 0.8-2.2 0.6-3.2-1.1-5.4-1.2-1.6-3-2.9-4-3.1-1.1-0.1-3 0.5-4.3 1.3zm-0.1 2.5c0.5-1.1 2-2 3.2-2 1.3 0 2.8 0.5 3.5 1.2 0.7 0.7 1.3 2.5 1.3 4.1 0 1.7-0.8 3.1-2 3.7q-2 1-4 0c-1.1-0.5-2.3-1.9-2.5-3-0.3-1.1-0.1-2.9 0.5-4zm704.9 35.8c-3.4 3.1-7 7.2-8.1 9-1 1.7-1.6 3.4-1.3 3.7 0.2 0.3 1.3-1 2.4-2.7 1-1.8 4.4-5.7 7.5-8.5 3.1-2.9 6.4-5.3 7.3-5.3 1.5 0 1.7 0.7 1 5.7-0.4 3.5-1.9 7.9-3.7 11.1-1.7 2.8-2.7 5.2-2.3 5.2 0.4 0.1 2-2.1 3.4-4.7 1.5-2.6 3.2-7 3.9-9.8 0.9-3.7 0.9-5.6 0.1-7.2-0.6-1.3-1.8-2.3-2.6-2.3-0.8 0-4.2 2.6-7.6 5.8zm-297.9 27.2c0 0.6 2.8 1 6.5 1 3.6 0 6.5-0.4 6.5-1 0-0.6-2.9-1-6.5-1-3.7 0-6.5 0.4-6.5 1zm-278.2 32.6c-1 1.2-1.1 2-0.2 3.2 0.6 1 2.4 1.7 4.4 1.7 1.9 0 3.7-0.7 4.3-1.7 0.9-1.2 0.8-2-0.3-3.3-0.9-0.9-2.7-1.6-4.2-1.5-1.4 0-3.2 0.7-4 1.6zm-65 4.3c-1.6 1.4-2 2.3-1.3 3.1 0.5 0.6 2.3 1 3.9 0.8 2.1-0.2 3.1-0.9 3.2-2.2 0.1-1-0.4-2.2-1-2.7-0.6-0.5-1.4-0.9-1.8-0.9-0.3 0-1.7 0.9-3 1.9zm225.7 3.6c-2.8 1.2-7.7 3-11 3.9-3.3 0.9-8.9 1.6-12.3 1.6-3.5 0-6.2 0.4-6.2 1 0 0.6 3 1 7.2 1 4 0 9.7-0.7 12.8-1.6 3-0.9 7.6-2.7 10.2-4 2.6-1.3 4.9-2.8 5.1-3.4 0.2-0.5 0.1-1-0.2-0.9-0.4 0-2.9 1.1-5.6 2.4zm-209.3 10.3l0.3 6.7c6.5 0.4 8.5 0.1 8.5-0.5 0-0.5-1.1-1-2.3-1-1.2 0-2.8-0.4-3.5-0.8-0.6-0.4-1.3-3.1-1.5-5.9-0.1-2.9-0.6-5.3-1-5.3-0.5 0-0.7 3-0.5 6.8zm-21.7-3.9c-1.7 0.4-4.1 1.3-5.3 1.9-1.2 0.7-2.3 1.8-2.3 2.5 0 0.6 0.7 1.9 1.7 2.7 1.1 1 3.6 1.5 7.3 1.5 3.2-0.1 6.9-0.8 8.8-1.8 1.8-0.9 3.3-2.3 3.3-2.9 0-0.7-0.5-1.9-1.3-2.6-0.7-0.6-3-1.4-5.2-1.6-2.2-0.3-5.4-0.1-7 0.3zm-3 17.8c-1.1 0.2-3.8 0.9-5.8 1.4-2.3 0.6-3.8 1.6-3.8 2.4 0 0.8 1.5 2 3.3 2.5 1.8 0.6 5.3 1 7.8 1 2.4 0 6.5-1 9-2.1l4.5-2.1c-6.2-2.9-9.2-3.7-10.5-3.7-1.4 0.1-3.4 0.3-4.5 0.6zm109.8 20.6c-0.4 0.7 0.2 1.7 1.3 2.5 1 0.7 2.6 1.2 3.5 1.2 1 0 2.4-0.7 3.3-1.5 0.8-0.8 1.3-1.9 1.1-2.5-0.3-0.5-2.3-1-4.5-1-2.2 0-4.3 0.6-4.7 1.3zm-108.8 3.4c-0.5 0.3-0.8 1.5-0.7 2.5 0.1 1.3 1 1.8 2.9 1.8 1.5 0 3.4-0.4 4.3-0.9 0.9-0.6 1.2-1.5 0.7-2.5-0.4-0.9-2-1.6-3.6-1.6-1.5 0-3.2 0.3-3.6 0.7zm93.5 0.5c-1.5 0.7-2.4 1.8-2.3 3 0.2 1 1.5 2.3 3 2.8 1.7 0.7 3.7 0.7 5.3 0.2 1.4-0.5 2.5-1.7 2.6-2.8 0-1.2-0.9-2.5-2.3-3.2-1.3-0.7-2.7-1.2-3.1-1.1-0.4 0-1.9 0.5-3.2 1.1z"/>
</svg>